<?xml version="1.0" encoding="utf-8"?>
<!-- Generator: Adobe Illustrator 18.1.1, SVG Export Plug-In . SVG Version: 6.00 Build 0)  -->
<svg version="1.1" id="Layer_1" xmlns="http://www.w3.org/2000/svg" xmlns:xlink="http://www.w3.org/1999/xlink" x="0px" y="0px"
	 viewBox="0 0 1920 1080" enable-background="new 0 0 1920 1080" xml:space="preserve">
<g id="OBJECTS">
	<g>
		<g id="XMLID_1_">
			<g>
				<path fill="#FFFFFF" d="M1558.8,147.7v786.9c0,4.1-3.5,7.6-7.6,7.6h-1188c-4.1,0-7.6-3.5-7.6-7.6V147.7c0-4.1,3.5-7.6,7.6-7.6
					h1188C1555.5,140.2,1558.8,143.6,1558.8,147.7z"/>
			</g>
		</g>
		<g>
			<g>
				<defs>
					<path id="SVGID_1_" d="M1551.2,942.2h-1188c-4.1,0-7.6-3.5-7.6-7.6V147.7c0-4.1,3.5-7.6,7.6-7.6h1188c4.1,0,7.6,3.5,7.6,7.6
						v786.9C1558.8,939,1555.5,942.2,1551.2,942.2z"/>
				</defs>
				<clipPath id="SVGID_2_">
					<use xlink:href="#SVGID_1_"  overflow="visible"/>
				</clipPath>
				<g clip-path="url(#SVGID_2_)">
					<g>
						<g>
							<g>
								<path fill="#548936" d="M788.7,827.3c-2.2,0.2-36.9-3.9-38.4-14.7c0.9-4.8,3.5-6.9,9.1-8c7.8-1.5,15.6,0.6,23.1-1.3
									c-5.6-2.2-26.6-10.4-31.5-23.8c-0.9-2.4-2.4-6.3,0-9.9c2.4-3.7,7.6-6.5,12.1-6.5c6.7,0.2,7.8,6.3,21.8,20.7
									c5.4,5.6,11,10.6,11,10.6c-2.2-1.9-3.2-3.7-4.5-6c-1.5-2.6-3.7-5-4.1-7.8c-0.9-4.8,4.8-8.9,9.9-6.9
									c6.5,2.4,9.9,8.4,13.2,13.4c4.1,6,7.6,12.5,11.2,18.8c-1.1-2.6-2.6-5-3.7-7.6c-1.1-2.4-1.3-4.8-2.4-7.1
									c-1.3-2.6-1.5-8.6,3.7-8.6c5.2-0.2,9.5,6.5,11.2,8.9c6.5,9.9,17.1,26.4,19.2,25.7c2.2-0.6-5-19.7-0.9-21.4
									c2.8-1.1,11.2,5.8,13.6,14.9c2.4,8.6-2.8,10.6-1.3,17.7c0.9,3.2,10.8,12.3,18.4,19c-0.6,1.7-1.1,3.7-1.7,5.4
									c-2.6-2.2-5.2-4.1-8.2-6c-3.7-2.2-6.9-4.1-11.7-3.7c-5,0.6-8.9,3.5-13,5.4c-4.8,2.4-10.6,5.2-16.2,5c-3.2,0-8.4-1.1-8.4-4.5
									c-0.2-5.4,5.8-6.9,9.7-10.2c-5.8,1.1-28.3,5.6-33.3,3.9c-3.5-1.1-6.7-3.5-5.6-7.1c0.6-1.9,2.2-3.5,3.7-4.8
									c0.6-0.6,6.7-4.1,7.1-3.7C800.6,826.4,791.1,827.1,788.7,827.3z"/>
								<g>
									<path fill="#3B661F" d="M854.4,830.3c0.4-8.2,0.2-16.6-0.9-24.8c-0.2-0.9-0.2-2.4-1.3-3c-0.4,9.9,0.2,19.7-0.4,29.6
										c-7.3-3.5-13.2-8.6-20.1-12.3c-1.5-0.9-1.5-2.2-1.7-3.2c-0.9-6.3-0.6-12.1-2.4-18.1c-1.5,6.5-1.3,12.7-0.6,19.2
										c-7.8-3.5-14.5-7.6-21-12.1c-1.5-1.1-1.7-2.6-2.4-3.7c-2.4-5-4.1-9.5-6.9-14.3c0.6,5.4,2.6,10.2,4.5,15.1
										c-11.7-6.5-22.5-11.9-35.9-15.8c0,0.2-0.2,0.6-0.2,0.9c10.2,3.9,19.4,6.9,28.3,12.7c-5-0.9-9.9-1.7-15.1-1.1
										c13,1.1,24.2,4.8,32.6,12.7c-6.5-0.4-13,0-19.7,0.6c3.5,1.5,7.8,1.3,11.4,1.3c10.4-0.4,19.4,3.2,27.9,7.8
										c1.5,0.6,3,1.9,4.3,2.6c-8,1.1-16,1.7-24,3.5c3.9,0.9,7.6,0.6,11.4,0.2c0.6,0,1.5,0,2.2-0.2c11.9-2.8,19.4,1.3,27.9,7.6
										c-9.1,3.7-18.4,6.7-27.4,10.4c1.7,0.2,3.9-0.2,5.4-0.4c8.2-2.4,15.6-5,23.3-8c2.2-0.9,11,3,13.6,4.1
										c1.3,0.4,3.2,1.9,4.1,0.6c1.3-1.7-1.5-1.9-2.6-3C868.2,838.3,854.4,833.5,854.4,830.3z"/>
								</g>
							</g>
						</g>
						<g>
							<g>
								<g>
									<path fill="#78AA57" d="M812.3,876.3c-0.6,1.1-17.1,16.2-24.4,13.4c-2.8-1.9-3.2-3.9-1.7-6.9c2.2-4.1,6.5-7.1,8.2-11.4
										c-3.7,1.9-17.1,9.1-27.6,7.1c-1.7-0.2-5-0.9-6.5-3.2s-1.3-5.6,0.6-7.8c2.8-3,7.1-1.5,21.8-3.7c5.6-0.9,11.2-1.7,11-1.7
										c-2.2,0.2-3.7,0.2-5.6,0.2c-2.2,0-4.5,0.2-6.7-0.6c-3.5-1.1-3.9-5-0.6-6.9c4.1-2.2,9.3-1.9,13.8-1.9c5.4,0,11,0.4,16.4,0.9
										c-1.9-0.2-4.1-0.4-6.3-0.6c-1.9-0.2-3.7-0.9-5.6-1.1c-2.2-0.2-6-1.9-4.1-4.5c1.9-2.4,7.8-2.4,10.2-2.4
										c8.9,0.2,23.8,0.4,24-0.6c0.4-1.3-14.5-4.1-14-6.5c0.4-1.7,8.2-3.5,14.9-1.7c6.5,1.7,5.8,4.8,10.8,6.3
										c2.4,0.6,12.1-1.1,19.4-2.6c0.9,0.9,1.9,1.7,2.8,2.6c-2.4,0.4-4.8,1.1-7.1,1.9c-2.8,0.9-5.4,1.9-6.9,4.3
										c-1.5,2.6-1.3,5.2-1.5,8c-0.4,3-0.9,6.7-3.2,9.3c-1.3,1.5-4.1,3.5-6.3,2.6c-3.5-1.5-2.2-5-2.6-7.8
										c-1.5,3-7.6,15.1-10.6,17.1c-2.2,1.3-4.8,2.2-6.7,0.4c-0.9-0.9-1.5-2.2-1.5-3.2c0-0.4,0-4.5,0.4-4.5
										C816.4,870.5,812.9,875.2,812.3,876.3z"/>
									<g opacity="0.15">
										<path fill="#353264" d="M839.9,846.3c-5.2-2.8-10.6-5.4-16.4-7.6c-0.6-0.2-1.5-0.6-2.4-0.4c6.3,3.5,12.7,6.3,18.8,9.7
											c-5.2,2.4-10.8,3.5-16,5.6c-1.1,0.4-1.9,0-2.8-0.2c-4.3-1.5-8-3.7-12.7-4.8c3.7,2.8,7.8,4.8,12.1,6.5
											c-5.2,2.6-10.6,4.3-16.2,6c-1.3,0.4-2.4,0-3.2-0.2c-4.1-0.4-7.8-1.1-11.9-1.3c3.7,1.5,7.6,2.2,11.4,2.8
											c-8.9,3.5-16.6,6.7-24.2,11.9c0.2,0.2,0.2,0.2,0.4,0.4c6.5-3.5,12.1-6.9,19.2-9.3c-2.4,2.2-5,4.1-6.7,6.7
											c5.8-5.6,12.5-9.9,21.2-11.2c-2.8,3-5,6.3-7.3,9.5c2.4-1.1,3.9-3.2,5.4-5c3.9-5,9.7-8.2,16-10.6c1.1-0.4,2.4-0.9,3.5-1.3
											c-2.4,4.1-5.2,8.2-7.1,12.5c1.9-1.5,3.2-3.5,4.8-5.4c0.2-0.4,0.6-0.6,0.6-1.1c3-6.5,8.4-8.6,15.8-10.8
											c-1.1,5.4-2.8,10.8-4.1,16.4c0.9-0.6,1.5-1.9,1.7-2.6c1.7-4.5,2.8-9.1,4.1-13.6c0.4-1.3,6.3-4.1,8-5.2
											c0.9-0.4,2.6-0.9,2.2-1.7c-0.6-1.1-1.9,0-3,0.2C850.5,842.4,842.1,847.4,839.9,846.3z"/>
									</g>
								</g>
							</g>
						</g>
						<g>
							<g>
								<path fill="#548936" d="M824.8,700.9c-2.2-0.9-35.6-22.2-32-33.7c3.2-4.5,6.9-5.4,13.2-3.7c8.4,2.4,15.6,8.2,24.2,9.9
									c-4.8-5-21.8-23.5-20.5-39.7c0.2-2.8,0.6-7.6,5-10.2c4.1-2.6,10.8-3,15.6-0.4c6.7,3.5,4.8,10.2,11.9,31.8
									c2.8,8.4,6,16.2,6,16.2c-1.1-3-1.5-5.2-1.7-8.4c-0.2-3.2-1.3-6.7-0.4-9.9c1.5-5.4,9.1-6.7,13.4-2.2
									c5.4,5.6,5.8,13.6,6.7,20.1c1.1,8.2,1.5,16.4,2.2,24.6c0-3-0.2-6.3,0-9.3c0.2-2.8,1.1-5.6,1.1-8.4c0-3.2,2.6-9.5,8-7.1
									c5.4,2.4,6.5,11.2,6.9,14.5c1.7,13.2,4.3,35.2,6.9,35.6c2.6,0.4,4.8-22.5,9.5-22c3.5,0.2,8.4,11.4,6.5,21.8
									c-1.9,9.9-8.2,9.5-9.9,17.3c-0.9,3.7,5,17.9,9.3,28.3c-1.5,1.5-3,3-4.3,4.8c-1.5-3.5-3.2-6.7-5.4-10.2
									c-2.6-4.1-5-7.6-10.2-9.5c-5.4-1.7-10.6-0.9-16-0.9c-6,0-13.4,0-19-2.8c-3.2-1.7-8-5.2-6.5-8.9c2.4-5.6,9.5-4.1,14.9-5.4
									c-6.5-1.7-31.5-8.2-35.9-12.3c-3-2.8-5.2-6.7-2.2-9.9c1.5-1.5,3.9-2.6,6.3-3c1.1-0.2,8.9-0.9,9.1-0.2
									C837.1,706.1,826.9,702,824.8,700.9z"/>
								<g>
									<path fill="#3B661F" d="M890,736.6c4.5-8,8.4-16.8,11.4-25.7c0.4-1.1,0.9-2.4,0.2-3.7c-5.2,9.7-9.5,20.1-15.1,29.8
										c-5.6-7.1-9.3-15.3-14.5-22.5c-1.1-1.5-0.4-3,0-4.3c2.2-6.9,5.4-12.7,6.5-19.7c-4.8,5.8-7.8,12.3-10.2,19.2
										c-6.3-7.3-11-14.9-15.3-22.7c-1.1-1.9-0.4-3.5-0.4-5c0-6.3,0.6-11.7,0-17.9c-1.9,5.8-2.4,11.7-2.8,17.7
										c-8.6-12.3-17.1-23.3-28.7-33.7c-0.2,0.2-0.4,0.4-0.6,0.6c8.2,9.1,16.2,16.6,22.5,26.8c-4.8-3.2-9.3-6.7-14.9-8.6
										c12.5,7.6,22.2,16.8,27,29.2c-6.5-3.7-13.2-6.3-20.3-8.9c2.8,3.2,7.3,5.2,11,6.9c10.8,4.8,18.1,13,24.6,21.6
										c1.1,1.5,2.2,3.2,3,4.8c-8.6-2.8-17.1-6.3-26.1-8.2c3.5,2.6,7.3,4.3,11.4,5.8c0.6,0.2,1.5,0.6,2.2,0.9
										c13.4,3,19,11,24.6,21.4c-11-0.6-22-2.2-33-2.8c1.5,1.1,3.9,1.7,5.6,2.2c9.5,1.7,18.4,2.6,27.9,3.5
										c2.6,0.2,9.5,8.6,11.9,11c1.1,1.1,2.4,3.7,3.9,2.8c2.2-1.1-0.6-2.8-1.1-4.3C900,751.5,888.3,739.8,890,736.6z"/>
								</g>
							</g>
						</g>
						<g>
							<g>
								<g>
									<path fill="#78AA57" d="M824.4,762.5c-1.3,0.6-25.3,8-31.5,1.5c-1.7-3.5-1.3-5.4,1.7-7.8c4.1-3,10.2-4.1,13.8-7.6
										c-4.5,0.2-21.8,0.9-31.8-6.3c-1.7-1.3-4.5-3.5-5-6.5c-0.4-3,1.5-6.5,4.5-7.6c4.3-1.7,8,1.9,24,7.1
										c6.3,1.9,12.3,3.7,12.1,3.7c-2.4-0.6-3.9-1.5-5.8-2.6c-2.2-1.3-4.8-2.2-6.5-3.9c-3-2.8-1.5-7.1,2.8-7.3
										c5.2-0.2,10.6,2.6,14.9,5c5.6,2.8,11,5.8,16.4,8.9c-1.9-1.3-4.1-2.4-6-3.9c-1.7-1.3-3.2-2.8-5-3.9c-2.2-1.3-5.2-5-1.9-6.7
										c3.2-1.5,9.3,1.3,11.4,2.6c9.1,4.5,23.8,12.1,24.8,11s-12.7-11.2-11.2-13.4c1.1-1.5,9.9,0.4,16,5.6c5.8,5,3.5,7.8,8,11.7
										c2.2,1.9,13,5,21,6.9c0.4,1.3,1.1,2.6,1.7,4.1c-2.6-0.6-5.2-1.1-8.2-1.5c-3.5-0.4-6.5-0.6-9.3,1.1
										c-2.8,1.7-3.9,4.8-5.4,7.3c-1.9,2.8-4.3,6.3-7.8,7.8c-2.2,0.9-5.8,1.7-7.6-0.4c-2.8-3.5,0.2-6.3,1.1-9.3
										c-3.2,2.4-15.1,11.7-19,12.1c-2.8,0.2-5.8-0.2-7.1-3c-0.6-1.3-0.4-2.8,0-4.1c0.2-0.6,2.4-4.5,2.8-4.5
										C831.5,758.6,825.6,761.6,824.4,762.5z"/>
									<g opacity="0.15">
										<path fill="#353264" d="M867.3,745.6c-3.7-5.4-8.2-10.8-13-15.8c-0.6-0.6-1.3-1.5-2.4-1.5c4.5,6.5,9.9,12.7,14.3,19.2
											c-6.3-0.2-12.7-1.7-19-2.2c-1.3,0-2.2-0.9-2.8-1.7c-3.7-3.7-6.5-7.6-10.6-11c2.4,4.5,5.4,8.6,9.1,12.7
											c-6.5,0-13-0.6-19.4-1.9c-1.5-0.2-2.4-1.1-3.2-1.7c-3.9-2.6-7.3-5-11.4-7.1c3,3.2,6.7,5.8,10.4,8.4
											c-10.6-0.9-20.1-1.3-30.5,0c0,0.2,0.2,0.4,0.2,0.6c8.4-0.2,15.8-1.1,24.2,0c-3.5,0.9-7.1,1.7-10.2,3.7
											c8.6-3,17.7-3.9,27-1.1c-4.3,1.5-8.2,3.7-12.1,6c3,0,5.6-1.3,7.8-2.4c6.5-3.2,14-3.5,21.4-3c1.3,0,2.8,0.4,4.1,0.4
											c-4.5,3-9.3,5.6-13.4,9.1c2.8-0.6,5-1.7,7.3-3c0.4-0.2,0.9-0.4,1.3-0.6c6.3-5.2,13-4.8,21.4-3c-3.9,5-8.4,9.7-12.1,14.7
											c1.1-0.2,2.4-1.1,3-1.9c4.1-3.9,7.3-7.8,10.8-11.9c1.1-1.1,8.4-1.1,10.8-1.3c1.1,0,3,0.4,3-0.6c0-1.5-1.9-0.9-3-1.3
											C880.1,746.9,868.8,747.8,867.3,745.6z"/>
									</g>
								</g>
							</g>
						</g>
						<g>
							<g>
								<g>
									<path fill="#78AA57" d="M873.4,664.4c-1.3-0.6-21.4-16.8-17.7-24.2c2.6-2.6,5-3,9.1-1.5c5.4,2.2,9.5,6.5,14.9,8.2
										c-2.6-3.5-12.1-16.8-9.5-27c0.4-1.7,1.1-4.8,4.3-6.3c3-1.5,7.3-1.1,10.2,0.9c4.1,2.8,2.2,6.9,4.8,21.4
										c1.1,5.6,2.4,10.8,2.4,10.8c-0.4-2.2-0.4-3.5-0.2-5.6c0.2-2.2-0.2-4.5,0.9-6.5c1.5-3.2,6.7-3.7,9.1-0.4
										c3,3.9,2.6,9.1,2.4,13.4c0,5.4-0.6,10.6-1.1,16c0.4-1.9,0.4-4.1,0.9-6c0.4-1.7,1.3-3.5,1.5-5.4c0.4-2.2,2.6-5.8,6-3.9
										c3.2,1.9,3.2,7.8,3.2,9.7c-0.2,8.6-0.6,22.9,1.1,23.3s5.2-14,8.4-13.6c2.2,0.4,4.5,8,2.2,14.5c-2.2,6.3-6.3,5.4-8.2,10.4
										c-0.9,2.4,1.5,11.9,3.5,19c-1.1,0.9-2.2,1.7-3.5,2.8c-0.6-2.4-1.5-4.5-2.6-6.9c-1.3-2.8-2.6-5.2-5.8-6.9
										c-3.2-1.5-6.9-1.3-10.4-1.7c-3.9-0.4-8.9-1.1-12.1-3.2c-1.9-1.3-4.8-3.9-3.5-6c2.2-3.5,6.7-1.9,10.4-2.4
										c-4.1-1.5-19.9-7.6-22.5-10.6c-1.7-2.2-2.8-4.8-0.4-6.5c1.1-0.9,2.8-1.3,4.3-1.5c0.6,0,5.8,0.2,6,0.4
										C880.9,668.7,874.7,665.3,873.4,664.4z"/>
									<g opacity="0.15">
										<path fill="#353264" d="M912.9,692.1c3.7-5,7.1-10.2,9.9-15.8c0.4-0.6,0.9-1.5,0.4-2.4c-4.5,5.8-8.2,12.3-12.7,18.1
											c-3-5-4.5-10.6-7.3-15.6c-0.6-1.1,0-1.9,0.4-2.8c2.2-4.3,4.8-7.8,6.3-12.1c-3.7,3.5-6.3,7.3-8.6,11.7
											c-3.5-5.2-5.8-10.4-8-15.8c-0.4-1.3,0-2.4,0.2-3.2c0.6-4.1,1.5-7.6,1.7-11.4c-1.9,3.5-2.8,7.3-3.5,11.2
											c-4.5-8.6-8.9-16.2-15.6-23.8c-0.2,0.2-0.4,0.2-0.6,0.4c4.5,6.5,9.1,11.9,12.3,19c-2.8-2.4-5.4-5-8.9-6.7
											c7.6,5.8,13,12.3,14.9,20.7c-3.9-2.8-8.2-5-12.5-7.3c1.5,2.4,4.3,3.9,6.7,5.2c6.7,3.9,10.6,9.7,14,15.8
											c0.6,1.1,1.1,2.4,1.5,3.5c-5.4-2.6-10.6-5.2-16.4-7.1c1.9,1.9,4.5,3.2,6.9,4.8c0.4,0.2,0.9,0.6,1.3,0.6
											c8.6,3,11.4,8.4,14,15.6c-7.1-1.3-14.3-3-21.4-4.3c0.9,0.9,2.4,1.5,3.5,1.7c6,1.7,11.9,3,17.9,4.3c1.7,0.4,5.4,6.3,6.7,8
											c0.6,0.9,1.3,2.4,2.4,2.2c1.5-0.4,0-1.9-0.2-2.8C917.9,702.4,911.4,694,912.9,692.1z"/>
									</g>
								</g>
							</g>
						</g>
					</g>
					<path fill="#D0DDF7" d="M1123.5,1153.2c114,104.1,282.1,188.4,425.1,78.4c166.8-128.3,25.1-352.7,128.5-506.5
						c60.9-90.5,144.5-58.5,230.5-93.3c90.1-36.5,139.5-125.5,149.3-222.5c16-159-93.1-242.4-225.7-290.7
						c-256.6-94-653.2-48.6-725.5,140.2c-35,91.4,27.6,160.1-30.2,281.9c-44.5,93.5-97.8,87.9-129.6,162.2
						C888.5,837.9,993,1034.2,1123.5,1153.2z"/>
					<path fill="#111782" d="M863,1157.1c65.2,157.2,237.6,319.9,419.5,208.2c155.7-95.5,124.2-374.3,303.7-438.5
						c168.3-60.3,292,98.9,421-122.5c79.7-136.9,57.2-298.3-14-426.8c-121.8-219.9-575.4-470.4-775.2-163.9
						c-52.5,80.6-44.5,181.9-92.7,265.7c-56.8,98.9-134.8,110.4-211.2,178.8C769.7,786.9,797.6,1000.1,863,1157.1z"/>
					<path opacity="0.2" fill="#E7E7FD" enable-background="new    " d="M891.7,1212.4c-28.9-8.6-54-20.7-73.4-36.7
						c-55.9-45.6-88.1-140.2-75.2-219.9c12.3-75.4,65.7-114,117.3-151.4c51.2-36.9,99.4-71.9,102.2-139.5
						c2.8-75.4-35.2-133.1-72.1-188.8c-41-62-79.7-120.5-63.5-199.8c15.1-74.1,75.8-142.3,170.6-192.2
						c55.3-29.2,147.3-58.1,271.7-30.9l-0.2,1.3l0.2-1.3c121.4,26.4,245.4,120.3,331.6,251c90.9,137.8,126.8,296.4,98.5,435.5
						c-21,102.6-75.4,195.3-161.6,275.4c-75,69.6-170.9,126.6-277.8,164.6C1121.1,1229.3,985.1,1239.8,891.7,1212.4z M1294.2,62.4
						c-8.6-2.6-17.1-4.8-25.7-6.5c-123.6-27-214.9,1.7-270,30.7c-94.2,49.5-154.2,117.1-169.3,190.3c-16,78.2,22.5,136.3,63.1,197.9
						c37.2,55.9,75.6,114,72.6,190.3c-2.6,68.9-51.4,104.1-103.2,141.7c-51.2,37.2-104.1,75.4-116.2,149.7
						c-12.7,78.8,19,172.2,74.3,217.3c40.2,32.8,103.9,50.3,184.2,50.8c79.3,0.4,167.2-16,254.7-47.1c235.4-84,399-247.8,438-438.5
						c28.3-138.2-7.6-296.1-98.1-433.3C1518.6,184.7,1406.5,95.7,1294.2,62.4z"/>
					<path opacity="0.2" fill="#E0E5FD" enable-background="new    " d="M1795.1,1212.6c-11.4,0-22.9-0.2-34.6-0.9
						c-175-9.7-318-87.5-382.1-208.2c-102.6-192.7-1.9-461.2,152.5-546c78.2-43,145.8-41.7,188.8-33.3
						c73.7,14.7,128.1,48.6,152.9,95.5c26.8,50.3,12.3,97.2-3,147.1c-13.6,44.5-27.6,90.5-11,140.2c14.9,44.3,54,58.1,95.5,72.8
						c42.1,14.9,85.8,30.2,109.1,78.6c24.6,51,21.6,121.2-6.9,162.9C2017.8,1177.4,1915.4,1212.6,1795.1,1212.6z M1670.9,423.4
						c-38.4,0-86,8.6-138.2,37.4l0,0c-152.9,84-252.7,350.1-151,541.1c63.7,119.7,205.4,196.8,379.1,206.3
						c133.7,7.3,251-28.3,292.5-89c27.9-40.8,30.7-109.3,6.7-159.4c-22.7-47.1-65.4-62.2-106.9-76.7c-42.3-14.9-82.1-28.9-97.6-75
						c-17.3-50.8-2.8-97.4,10.8-142.3c15.1-49,29.2-95.5,3.2-144.3c-24.4-46-78-79.1-150.6-93.5
						C1705.2,425.3,1689,423.4,1670.9,423.4z M1531.8,459.2L1531.8,459.2L1531.8,459.2z"/>
				</g>
			</g>
		</g>
		<ellipse opacity="0.28" fill="#4C4C7C" enable-background="new    " cx="1241" cy="829.9" rx="281.7" ry="19.9"/>
		<g>
			
				<text transform="matrix(1 0 0 1 478.7533 463.1315)" fill="#2B2B2B" font-family="'TimesNewRomanPS-BoldMT'" font-size="66.8399">Creative Design</text>
			
				<text transform="matrix(1 0 0 1 478.7533 532.6844)" fill="#2B2B2B" font-family="'TimesNewRomanPS-BoldMT'" font-size="66.8399">House  &amp;  Agency</text>
			<g>
				<text transform="matrix(1 0 0 1 1088.5209 217.7758)" fill="#FFFFFF" font-family="'ArialMT'" font-size="13.368">Log In</text>
			</g>
			<g>
				<rect x="476.2" y="574.1" fill="none" width="334.4" height="113.6"/>
				<text transform="matrix(1 0 0 1 476.1525 584.1031)" fill="#141414" font-family="'Gadugi-Bold'" font-size="13.368">We work from sketch by pro artist and code</text>
				<text transform="matrix(1 0 0 1 476.1525 600.0881)" fill="#141414" font-family="'Gadugi-Bold'" font-size="13.368">by pro coder! It is a long established fact</text>
				<text transform="matrix(1 0 0 1 476.1525 616.2885)" fill="#141414" font-family="'Gadugi-Bold'" font-size="13.368">that a reader will be distracted</text>
			</g>
		</g>
		<g>
			<g>
				<g>
					<g>
						<g>
							<path fill="#F0F4FC" d="M1118.5,796.2l-1.3-0.4c-1.5-0.6-2.4-2.4-1.7-3.9l24.6-66.5c0.6-1.5,2.4-2.4,3.9-1.7l1.3,0.4
								c1.5,0.6,2.4,2.4,1.7,3.9l-24.6,66.5C1121.8,796,1120.1,796.8,1118.5,796.2z"/>
							<path fill="#F0F4FC" d="M1204.3,796.2l1.3-0.4c1.5-0.6,2.4-2.4,1.7-3.9l-24.6-66.5c-0.6-1.5-2.4-2.4-3.9-1.7l-1.3,0.4
								c-1.5,0.6-2.4,2.4-1.7,3.9l24.6,66.5C1201.1,796,1202.8,796.8,1204.3,796.2z"/>
						</g>
						<path fill="#F0F4FC" d="M1193.9,726.2h-65.2c-5,0-8.9-3.9-8.9-8.9V713c0-5,3.9-8.9,8.9-8.9h65.2c5,0,8.9,3.9,8.9,8.9v4.3
							C1202.8,722.3,1198.9,726.2,1193.9,726.2z"/>
					</g>
					<polygon fill="#341338" points="1184.2,767.2 1180.5,784.9 1193.3,786.5 1197,769 					"/>
					<path fill="#341338" d="M1178.2,527.5c-4.3,0.4-16.4,1.9-26.6,10.6c-3.5,3-5.6,5-6.3,8.4c-1.5,7.3,5.6,15.3,11.9,18.8
						c0,1.1,0,2.2-0.2,3.5c0,0.6-0.2,1.3-0.4,1.7c-0.2,0.6-0.2,1.1-0.4,1.7c0,0.2,0,1.5,0.6,3c0.6,1.9,1.9,4.8,4.8,6.5
						c4.1,2.6,9.9,2.2,13.6-1.1c3.7-3.2,3.7-8.2,3.7-8.9c-0.4,0-1.3-0.4-2.2-1.1c-0.2-0.2-0.4-0.4-0.4-0.6c-0.4-0.4-0.6-1.1-0.6-1.7
						c0.4-0.2,0.9-0.4,1.5-0.6c0.6-0.2,1.1-0.6,1.5-0.9c3-2.6,5.8-5.2,8.9-7.8c0.2-5.2,0.6-10.4,1.1-15.8c0-0.6,0.2-1.5,0.2-2.2
						c0.2-4.5,0.4-9.1,0.9-13.6C1186.6,527,1182.7,527,1178.2,527.5z"/>
					<polygon fill="#341338" points="1209.5,760.8 1205.6,778.5 1218.3,780 1222,762.5 					"/>
					<path fill="#353264" d="M1209.7,675h29.6c0,0,18.1-1.1,19.2,13.8c1.1,14.9-26.6,57.2-30.9,79.9c-1.3,0-2.4-0.2-3.7-0.2
						c-7.1-0.6-14-1.1-21.2-1.7c6-20.5,11.9-41,17.9-61.6l-44.5,0.2c-3.2,0-6.5-0.4-9.7-1.5c-8.6-3-21.8-7.3-14.7-31.1L1209.7,675z"
						/>
					<path fill="#47447A" d="M1202.4,771.6l-24.8-1.9l19.9-64.4l-44.5,0.2c-3.2,0-6.5-0.4-9.7-1.5c-0.2,0-0.4-0.2-0.6-0.2
						c-8.4-3-20.5-7.6-14.5-29.4c0.2-0.4,0.2-1.1,0.4-1.5l16.6,0.6l41,1.7h29.6c0,0,18.1-1.1,19.2,13.8
						C1236.3,703.7,1206.7,748.9,1202.4,771.6z"/>
					<path fill="#EDD366" d="M1193.9,632.2v0.2l-3.7,42.6c-15.1,0-30,0-45.1,0l-16.8-0.9h-0.9l10.4-26.6l0.4-1.1l6.9-17.1l46.9,2.6
						L1193.9,632.2z"/>
					<path fill="#341338" d="M1292.2,634.6c-0.2-2.4-4.1-4.8-5.6-6.3c-1.3-1.3-2.2-1.9-3.9-2.8c-2.2-1.1-4.3-1.9-6.7-2.4
						c-3.2-0.4-6.3,0.9-9.5,1.3c-3.2,0.4-6.7-0.2-8.6,2.8c-1.5,2.4-1.1,6.5,1.7,7.3c1.1,0.2,1.9-0.2,3,0c1.5,0.4,2.6,1.7,4.3,1.7
						c3.5,0.4,6.3-2.2,9.7-2.2c1.7,0,3,0.9,4.5,1.7c1.7,1.1,3.2,1.7,5.4,1.9c1.3,0,4.1,0.4,5.2-0.4
						C1293.1,637,1292.4,635.7,1292.2,634.6z"/>
					<path fill="#EDD366" d="M1185.7,634.2c1.5-0.4,3.2-0.2,4.8-0.4c0.6,0,1.5,0.2,2.2-0.4c-3-3.2-7.1-3.7-11-3.9
						c-6.5-0.4-13-0.2-19.4-1.3c-5.4-0.9-11-1.9-15.3-5.8c-3-2.6-4.8-5.6-5.8-9.3c-0.2-0.4,0-0.9-0.6-0.9c0,0-0.2,0.6-0.2,0.9
						c0,2.8,1.1,5.6,1.5,8.2c0.2,0.9,0,6.7,2.4,7.6c1.5,0.6,3.2,0.6,5,0.9c4.8,0.9,9.7,1.3,14.5,2.6c1.1,0.2,1.9,0.6,2.6,1.3
						c3,0.2,5.8-1.1,8.9-1.5C1178.6,632,1182.3,631.8,1185.7,634.2z"/>
					<path fill="#EDD366" d="M1156.3,572.2c-0.2,0-0.6-0.2-1.1-0.2c-0.6,0-1.3,0-1.9,0c0.2,0.6,0.4,1.5,0.6,2.6
						c0.6,2.6,1.1,4.3,2.4,5.8c3.5,4.8,8.4,6,14.3,5.2c2.6-0.2,4.8-1.1,6.5-2.6c0.6-0.6,1.3-1.5,2.2-3.2c1.1-1.9,1.7-3,1.7-4.3
						c0-0.6,0-2.2-1.7-4.1c-0.4,0.2-0.9,0.9-1.5,1.5c-0.4,0.6-0.4,1.1-0.4,1.3c-1.5,5.4-3.9,7.1-9.5,7.1c-2.2,0-4.3,0-6.3-1.1
						c-1.5-0.9-2.8-1.9-3.2-3.2c-0.2-0.6-0.2-0.9-0.4-2.8c-0.2-2.2-0.9-5.4-1.1-5.4C1156.6,568.9,1156.3,569.6,1156.3,572.2z"/>
					<path fill="#EDD366" d="M1199.3,618.4c-1.1,1.7-1.9,3.2-3,5l0,0c-0.4,0.2-0.6,0.4-0.9,0.6l0,0c-0.4,0.4-0.6,0.9-0.6,1.5
						c-0.4,1.9-0.9,3.9-0.9,5.8c0,0.2,0,0.6,0,0.9l0,0c0,0.2,0,0.2,0,0.4l0,0c-0.2,0.4-0.4,0.9-1.3,0.9c-0.9,0-1.3-0.6-1.9-1.1
						c-0.9-0.6-1.9-1.1-2.8-1.5c0,0,0,0-0.2,0c-0.6-0.2-1.3-0.4-1.9-0.4c0,0,0,0-0.2,0c-3.2-0.4-6.7-0.9-9.9-0.9
						c-6.5-0.2-13-0.6-19.4-2.2c-6-1.5-11.2-4.3-14.3-10.2c-0.4-0.9-0.6-1.7-1.1-2.6c-0.2-0.4-0.6-1.1-1.1-1.3
						c-0.2,0-0.6,0.2-0.9,0.2c-0.4,0.2-0.6,0.6-1.1,1.1c-1.9,3.2-4.3,6.3-6.5,9.3c-1.1,1.5-0.9,1.9,1.1,2.4c2.4,0.4,5,0.6,7.3,1.3
						c1.3,0.2,5.2,1.1,7.8,1.3c0.4,0,0.6,0,1.1,0.2c4.5,0.9,9.3,1.3,13.8,2.4c1.3,0.4,2.8,0.4,3.2,1.9c-2.4-0.2-4.5,0.2-5.4,2.8
						c-0.6,2.2-0.4,4.1,1.1,5.8c-0.9,0.6-1.7,1.1-2.8,0.9c-1.7-0.2-3.5-0.2-5.4-0.4c-3.7-0.4-7.3,0-11-0.4
						c-9.3-1.3-18.6-1.5-27.6-1.9c-5.2-0.2-8.9-5.2-6.9-10.2c0.4-1.1,0.9-2.2,1.1-3.2c1.1-2.8,1.9-5.4,3.9-8c1.5-3,3.2-6,4.8-9.1
						c0.4-0.6,0.9-1.9,1.5-3.2c2.6-5.4,6.9-13.8,13.8-23.8c5.2-7.3,6.7-8.2,7.3-8.6c4.5-2.4,11-2.6,13.2-2.6c0.4,0,0.6,0,0.6,0
						c0.4,0,0.6,0,0.9,0c-0.2,0.9-0.4,2.4-0.2,4.1c0,0.6,0.2,1.3,0.4,1.9c1.3,3,3.7,4.5,5,5.4c3,1.9,6.5,2.2,10.2,1.7
						c1.7-0.2,5.4-1.1,7.8-4.8c2.6-3.9,1.3-8.2,1.1-8.9c4.1,0.9,8,1.7,12.1,2.6c0,1.5,0,4.1,0.6,7.1c1.7,10.4,5.4,12.5,8.2,22.2
						C1201.5,608.7,1202.4,613.7,1199.3,618.4z"/>
					<path fill="#341338" d="M1194.4,642.2c0-0.2,0-0.2,0-0.4c-1.1-2.4-3.2-3.5-5-5.4c-0.6-0.6-1.3-1.3-1.9-2.2c0,0-7.1-4.1-11-3.7
						c-3.5,0.4-6.5,1.5-9.9,1.7c-0.9,0-1.7,0-2.6,0.2c-2.2,0.4-3.9,2.2-4.3,4.1c-0.4,2.4,0.4,4.5,2.2,5.6c0.2,0,0.6,0,0.9,0
						c0,0,0,0,0.2,0.2c0.4,0.2,0.6,0.2,1.1,0c0.9,0,1.5,0,2.2,0.4c2.4,1.9,5.2,1.7,7.8,0.9c1.1-0.4,2.4-0.9,3.5-1.1
						c2.8-0.9,5.2,0.6,7.1,1.9c3,1.9,6,1.5,9.1,1.3C1195.4,645.4,1194.8,643.5,1194.4,642.2z"/>
					<path fill="#1F3041" d="M1196.7,695.7"/>
					<path fill="#EDD366" d="M1263.7,624.7c-1.3,3.5-2.8,6.7-4.1,10.2c-26.4-0.2-52.5,0-53.1,0h-1.1c-3.2-2.6-8-8.2-9.9-10.6
						c-0.4-0.6-0.6-0.9-0.9-0.9v-0.2c0-1.3,0.9-2.2,1.5-3.2c1.5-2.4,2.8-5,2.8-8c0-1.1,0-2.2-0.2-3c-0.9-8-4.8-15.6-4.8-15.6
						c0-1.9-2.2-5.8-2.2-5.8c-1.5-2.6-1.5-5.2-1.5-7.8c0-2.2,0.4-3.9,0.6-5c2.4,1.5,5.6,3.9,8.4,7.6c3.9,5.4,4.1,10.2,6,16.6
						c1.3,4.5,3.5,11.2,7.8,18.8C1230.2,619.7,1246.8,622.1,1263.7,624.7z"/>
					<path opacity="0.15" fill="#21103E" enable-background="new    " d="M1154.8,576.1c-3.7,1.5-8.9,0.6-12.7,1.7
						c-14,4.1-9.7,36.1-30.2,48c-1.1,0.6-1.9,1.1-2.6,1.3h-0.2c1.1-2.8,1.9-5.4,3.9-8c1.5-3,3.2-6,4.8-9.1c0.4-0.6,0.9-1.9,1.5-3.2
						c2.6-5.4,6.9-13.8,13.8-23.8c5.2-7.3,6.7-8.2,7.3-8.6c4.5-2.4,11-2.6,13.2-2.6c0.4,0,0.6,0,0.6,0c0.4,0,0.6,0,0.9,0
						C1154.8,572.8,1154.6,574.3,1154.8,576.1z"/>
					<path fill="#959AF6" d="M1127.8,545.4"/>
					<path opacity="0.56" fill="#21103E" enable-background="new    " d="M1195.4,624L1195.4,624L1195.4,624
						c-0.4,0.6-0.6,1.1-0.9,1.7c-0.4,1.9-0.9,3.9-0.9,5.8c0,0.2,0,0.6,0,0.9l0,0c0,0.2,0,0.2,0,0.4l0,0c-0.2,0-0.4,0.2-0.6,0
						c-1.7-0.9-3.5-1.3-5.4-1.7c0,0,0,0-0.2,0c-0.6-0.2-1.3-0.2-2.2-0.4c-0.4,0-0.6-0.2-1.1-0.2c-0.6-0.2-1.3-0.4-1.7-0.9
						c-0.6-0.4-1.1-1.1-0.6-1.7c0.2-0.4,0.6-0.9,1.1-1.1c1.3-0.4,2.6-0.4,3.9-0.9c2.8-0.6,5.4-2.2,8-3.2v0.2
						C1194.8,622.9,1195,623.4,1195.4,624z"/>
					<path opacity="0.15" fill="#21103E" enable-background="new    " d="M1148.1,663.6c-1.1,3-1.9,6.3-2.6,9.7
						c-0.2,0.6-0.2,1.1-0.4,1.7c-1.9,9.5-2.4,20.1,0.9,28.5c-1.1,0-2.4,0.2-3.5,0.2c-8.4-3-20.5-7.6-14.5-29.4h-0.9l10.4-26.6
						C1148.1,639.8,1160,652.8,1148.1,663.6z"/>
					<path fill="#EFE9DC" d="M1201.9,564.8c-1.1-2.2-1.9-3.9-1.9-3.9c-1.7-3.2-2.8-4.5-4.1-8.2c-1.9-5.4,1.9-9.3,3.2-14.3
						c1.1-4.5,0.2-11.2-3.2-14.5c-3.9-3.5-8.6-2.2-12.1-6.7c-3.5-4.3-4.5-8.2-10.4-9.9c-11-3.2-23.8,2.4-30.7,11.2
						c-2.4,3-4.1,6.3-4.8,10.2c-0.9,6-0.2,9.9-5.4,14c-7.1,5.6-19.4,5.6-16.4,18.1c1.5,6.7,0.6,8.6-3.2,14c-2.6,3.7-5.8,8.6-5.8,13
						c0,4.8,2.2,10.8,5.6,14.3c0.9,0.9,2.6,2.4,5.4,3.2c4.5,1.5,8.6,0.2,10.4-0.6c10.4-4.5,5.6-24.2,15.3-28.3
						c4.8-2.2,8.6,1.3,11.7-1.9c1.3-1.3,1.9-3.5,2.2-5.8c0.2-1.9,0.2-3.9,0-5.8c0-1.9-0.2-3.7-0.4-5l0,0c0-0.2,0-0.4,0-0.4
						c-1.5-0.6-2.8-1.1-3.7-1.5c-3-1.3-3.7-1.7-4.1-2.4c-0.6-0.6-1.3-1.7-1.7-3c-1.7-5,1.7-11.7,6.7-9.9c1.7,0.6,3.5,3.5,5.2,3.5
						c1.5,0.2,6-3,7.8-3.7c6.7-2.8,14.3-5.6,18.8-11.7c-0.2,2.2,2.6,7.8,2.8,11.2v0.2c0,1.7,1.1,18.4-7.6,23.8
						c-1.1,0.6-2.2,1.1-3,1.7c-1.1,0.6-1.9,1.3-1.9,2.2c0,0.6,0,1.1,0.4,1.5c0.2,0.2,0.2,0.4,0.4,0.6c0,0,0.2,0.2,0.4,0.4
						c2.6,2.6,8,3.5,8,3.5c7.6,1.3,8.6,16.6,17.5,18.1c0.4,0,4.1,0.6,5.8-1.3C1212.3,586.7,1206.5,574.3,1201.9,564.8z"/>
					<path fill="#2A092F" d="M1176,568.1c0,0.6,0,1.1,0.4,1.5c-1.7,0.2-3.2,1.3-5.2,1.3c-4.1,0-8.2-0.2-11.9-1.7
						c-0.6-0.2-1.3-0.4-1.9-0.4c0.2-1.9,0.2-3.9,0-5.8c0-1.9-0.2-3.7-0.4-5c0.9,0.2,1.7,0.4,2.4,1.3c4.1,5.4,9.9,6.5,16.2,6.7
						c0.6,0,1.5,0,2.2,0h0.2C1176.9,566.6,1176,567.2,1176,568.1z"/>
					<path fill="#E2DAC9" d="M1159.2,514.1c-1.3,1.7-3.5,2.2-5,3.5c-1.7,1.5-3.2,3.2-4.3,5.4c-1.1,2.2-1.7,4.5-2.8,6.7
						c-1.1,2.4-2.2,4.5-3.5,6.9c-0.4,1.1-3,5-4.3,4.1c-1.1-0.6,0.2-1.9,0.6-2.6c0.6-0.9,1.1-1.9,1.7-3c2.6-4.3,4.1-9.1,6.3-13.8
						c1.1-2.4,2.6-4.3,4.8-5.6C1154.8,513.9,1156.3,513.6,1159.2,514.1z"/>
					<path fill="#E2DAC9" d="M1121.1,558.1c1.1-1.9,2.4-3.9,4.1-5.4c2.2-1.7,4.5-1.7,6.9-2.6c2.6-0.6,5.4-1.5,7.3-3.5
						c1.1-0.9,1.9-2.2,2.8-3.2c0.4-0.6,1.1-1.7,1.9-1.3c1.7,1.1-2.6,5.2-3.2,6c-1.9,1.9-4.5,3-7.1,3.9c-2.6,0.9-5.2,1.1-7.6,2.6
						C1124.8,555.8,1123.1,558.6,1121.1,558.1z"/>
					<path fill="#E2DAC9" d="M1175.1,519.5c-1.1,4.3-2.2,8.9-5.6,11.9c-1.1,0.9-2.2,1.5-3.2,2.2c-1.1,0.6-2.4,1.5-3.7,1.9
						c-1.1,0.2-1.9-0.4-1.1-1.3c0.4-0.4,1.5-0.6,1.9-1.1c0.6-0.4,1.1-0.9,1.7-1.1c4.1-3,8.4-7.1,7.3-12.7c-0.2-0.9-3.2-6-0.4-5.6
						C1174.3,513.4,1174.3,518,1175.1,519.5z"/>
					<path opacity="0.56" fill="#21103E" enable-background="new    " d="M1139.9,615c-0.2-1.3,0.4-2.6,1.1-3.5
						c2.8-4.1,5.6-8.2,6.7-13.2c0.2-0.6,0.6-1.1,1.3-1.1c1.1,0,0.9,0.9,0.9,1.5c0,0.9,0,1.7-0.2,2.4c-2.2,5.4-4.8,10.2-9.1,14.3
						C1140.1,615.2,1139.9,615.2,1139.9,615z"/>
					<path fill="#E2DAC9" d="M1200.6,565.1c-2.2-3-5-5.2-7.1-8.2c-1.7-2.4-3.9-6.7-1.3-9.3c0.4,4.3,2.6,8.2,5.4,11.7
						c1.5,1.7,3.2,3.2,5,4.5c1.7,1.3,3.5,2.6,4.8,4.1c1.3,1.5,1.1,5.6,0.9,5.2C1207.5,570,1204.1,565.1,1200.6,565.1z"/>
					<path fill="#353264" d="M1205.4,776.7c0.4-0.4,0.6-1.1,1.3-0.9c3.2,1.9,6.7,3.2,10.8,2.4c0.9-0.2,1.7,0.2,2.4,1.1
						c1.3,4.5,0.9,9.3,2.6,13.6c0.4,0.9,8.4,8.2,11.7,11.2c0.6,0.6,1.3,0.9,1.7,1.5c1.3,1.7,3.2,3.9,2.2,5.8c-1.1,1.7-3.5,0-5-0.4
						c-5.8-1.5-11.7-3.5-17.5-5c-1.7-0.4-2.8-1.3-3.5-3.2c-1.3-3.9-2.2-7.8-4.3-11.9c-1.7,3-3.2,5.6-4.3,8.6
						c-0.4,1.3-0.6,2.6-2.4,2.2s-1.7-1.7-1.3-3C1201.1,791.4,1201.5,783.4,1205.4,776.7z"/>
					<path fill="#353264" d="M1180.8,779.3c0.4-0.4,0.6-1.1,1.3-0.9c3.2,1.9,6.7,3.2,10.8,2.4c0.9-0.2,1.7,0.2,2.4,1.1
						c1.3,4.5,0.9,9.3,2.6,13.6c0.4,0.9,8.4,8.2,11.7,11.2c0.6,0.6,1.3,0.9,1.7,1.5c1.3,1.7,3.2,3.9,2.2,5.8c-1.1,1.7-3.5,0-5-0.4
						c-5.8-1.5-11.7-3.5-17.5-5c-1.7-0.4-2.8-1.3-3.5-3.2c-1.3-3.9-2.2-7.8-4.3-11.9c-1.7,3-3.2,5.6-4.3,8.6
						c-0.4,1.3-0.6,2.6-2.4,2.2s-1.7-1.7-1.3-3C1176.4,794,1176.9,786.2,1180.8,779.3z"/>
				</g>
				<g>
					<g>
						<polygon fill="#F0F4FC" points="1113.8,827.9 1108,827.9 1144.2,645.8 1150.1,645.8 						"/>
						<polygon fill="#F0F4FC" points="1409.5,827.9 1415.1,827.9 1378.8,645.8 1373.2,645.8 						"/>
					</g>
					<path fill="#F0F4FC" d="M1444.9,652.5h-366.8c-2.8,0-5-2.2-5-5v-2.4c0-2.8,2.2-5,5-5h366.8c2.8,0,5,2.2,5,5v2.4
						C1449.9,650.2,1447.7,652.5,1444.9,652.5z"/>
				</g>
				<g>
					<g>
						<path fill="#F0F4FC" d="M981.2,830.1C981,830.5,981.2,830.1,981.2,830.1c-1.9-0.9-3.2-2.8-2.2-5.8
							c8.6-25.7,17.5-53.4,26.4-79.1c1.1-3,3-3.7,5-2.6c0-0.2,0,0,0,0c1.9,0.9,3,2.8,2.2,5.8c-8.4,25.9-17.3,53.4-26.1,79.1
							C985.3,830.5,983.1,831,981.2,830.1z"/>
						<path fill="#F0F4FC" d="M1070.4,831.2C1070.4,831.4,1070.4,831.2,1070.4,831.2c2.2-0.9,3.2-2.8,2.4-5.8
							c-8-25.9-16.2-53.4-23.1-79.7c-0.9-3-2.6-3.7-4.8-2.8c0-0.2,0,0,0,0c-1.9,0.9-3.2,2.8-2.4,5.8c6.3,26.6,14.7,53.8,22.9,79.7
							C1066.3,831.4,1068.2,832,1070.4,831.2z"/>
					</g>
					<g>
						<path fill="#A56A50" d="M1048.1,571.8c8.2,12.5,14.7,25.7,20.1,39.7c1.3,3.2,2.4,7.1,3.5,10.6c19.2,2.4,38.2,3.9,57.7,5
							c3.5-1.5,7.8-3,11.4-2.6c10.2,1.3,16.8,6.5,22,14.9c-7.8-1.1-15.8-1.9-23.5-3c-24.6,2.2-49.2,4.3-73.7,4.8
							c-3.7,0-4.3,0-6.9-3.5c-8-10.4-14.5-22.9-19.4-35.4c1.5-1.3,3.7-3,4.8-4.8C1049,589.2,1050.1,581.3,1048.1,571.8z"/>
						<path fill="#6A6CD6" d="M1043.4,567c0-0.6,0-1.3,0-1.9c2.2-0.2,3.9,0.2,5.4,1.9c5.4,5.6,9.3,12.1,12.3,19.4
							c0.9,1.7,1.5,3.5,1.9,5.4c0.4,1.9,0.9,3.5-0.6,5.2c-1.5,1.7-3.9,2.6-6,3.2c-0.9,0.4-1.1-0.2-1.7-0.9c-1.1-0.9-1.5-1.7-1.9-2.8
							C1050.1,586.4,1047.7,576.7,1043.4,567z"/>
						<path fill="#7292F7" d="M1043.4,567c0-0.6,0-1.3,0-1.9c2.2-0.2,3.9,0.2,5.4,1.9c5.4,5.6,9.3,12.1,12.3,19.4
							c0.9,1.7,1.5,3.5,1.9,5.4c0.4,1.9,0.9,3.5-0.6,5.2c-1.5,1.7-3.9,2.6-6,3.2c-0.9,0.4-1.1-0.2-1.7-0.9c-1.1-0.9-1.5-1.7-1.9-2.8
							C1050.1,586.4,1047.7,576.7,1043.4,567z"/>
						<path fill="#B6785C" d="M1028.9,570.5c0.4,0.4,0.9,1.1,1.3,1.7C1029.8,571.5,1029.3,571.1,1028.9,570.5z"/>
						<path fill="#B6785C" d="M1058.3,782.1c-3.9,4.1-7.6,8.2-11.4,12.5c3.2,2.4,6.5,4.8,9.5,7.1c3.7-4.1,7.3-8.2,11-12.3
							C1064.3,786.9,1061.3,784.5,1058.3,782.1z"/>
						<path fill="#353264" d="M1048.1,792.3c0.4-0.2,1.1-0.6,1.5,0c1.9,3,4.1,5.4,7.6,6.7c0.9,0.2,1.5,1.1,1.3,1.9
							c-0.9,4.1-3.2,8-3.9,12.3c-0.2,0.9-0.2,1.5,0.2,2.4c0.6,4.3,2.8,8,4.3,11.9c0.2,0.6,0.6,1.5,0.9,2.2c0.4,1.7,1.1,4.5-0.9,5.4
							c-1.9,1.1-2.8-1.3-3.9-2.6c-4.1-3.9-8.2-7.8-12.1-11.9c-1.3-1.3-1.7-2.4-1.5-4.1c0.4-3.7,1.5-7.8,1.7-11.7
							c-2.6,1.5-5.2,3-7.3,5.2c-0.9,0.9-1.7,1.7-2.8,0.6c-1.1-1.1-0.6-2.2,0.2-3C1038,802,1042.1,796.4,1048.1,792.3z"/>
						<path fill="#B6785C" d="M1163.7,786.9c1.7,5.4,3.2,10.6,5,16c3.7-1.5,7.3-3,11-4.5c-1.7-5.2-3.2-10.4-5-15.8
							C1171,783.9,1167.4,785.4,1163.7,786.9z"/>
						<path fill="#353264" d="M1166.9,798.8c0-0.4,0.2-1.1,1.1-1.1c3.5,0.6,6.7,1.1,10.2-0.4c0.9-0.4,1.7-0.4,2.4,0.4
							c2.2,3.7,3.2,8,5.6,11.4c0.4,0.6,1.1,1.3,1.7,1.5c3.5,2.8,7.6,3.9,11.4,5.6c0.6,0.4,1.5,0.6,1.9,0.9c1.5,1.1,3.9,2.6,3.2,4.5
							c-0.6,1.9-3,0.9-4.5,0.9c-5.6,0-11.4,0-17.1-0.2c-1.7,0-2.8-0.4-3.9-1.9c-2.2-3-4.1-6.7-6.9-9.5c-0.9,2.8-1.5,5.8-1.7,8.9
							c0,1.3-0.2,2.4-1.7,2.4c-1.5,0-1.9-1.1-1.9-2.4C1166.3,812.8,1165.4,805.9,1166.9,798.8z"/>
						<path fill="#353264" d="M1147.5,696.6c0-2.2-1.1-3.9-3.2-5c-3.5-1.7-7.1-3.2-10.6-4.8c-3-1.3-6.5-2.2-9.5-3.2
							c-14-4.8-28.5-8.9-42.3-13.2c-7.8-2.4-15.3-4.5-22.9-7.1c-2.2-0.9-4.3-1.5-6.7-0.9c-1.5,0.4-2.2,1.9-2.8,3.2
							c-3.7,5.8-8.2,10.4-14.7,12.3c-7.8,2.4-15.6,1.5-23.5,1.3c-4.1,0-7.8-1.1-11.4-2.4c-1.3-0.4-2.6-1.9-4.1-1.1
							c-0.9,0.4-1.1,1.7-1.3,2.8c-1.9,13.2,0.4,23.3,10.2,32.8c2.4,2.4,5.2,3.9,8.4,5.2c3.9,1.5,6.5,2.8,11.4,3
							c23.5,0.2,48.8-0.4,72.8-1.1c-12.1,14.7-23.8,31.8-33.7,47.5c-3.5,5.4-5,7.8-7.1,13.4c2.4,2.4,6.5,20.1,15.6,10.8
							c8.9-9.3,44.3-49.2,54.6-60.5c3.2-3.5,4.1-4.3,4.8-3.2c0-0.2,0-0.6,0-1.1C1138.4,716.5,1141.7,705.9,1147.5,696.6z"/>
						<path fill="#272756" d="M1178.8,779.8c-8.6-19.4-18.1-46.9-25.5-67c-2.8-7.8-3.2-9.1-5.8-15.6c0-0.2,0-0.4,0-0.6
							c-5.8,9.3-9.1,19.7-16.6,28.7c0,0.6,0,0.9,0,1.1c0.6,1.3,1.3,5,4.3,10.6c5.8,11,23.3,39.3,29.2,55.3c0.6,1.5,1.5,2.2,3,1.9
							c4.1-0.6,8.2-0.4,12.1-2.6c1.5-0.2,3-0.9,4.8-1.1C1181.6,785.4,1181.8,786.5,1178.8,779.8z"/>
						<path fill="#212150" d="M1060.9,676.9L1141,705C1118.1,690.1,1087,684.5,1060.9,676.9z"/>
						<g>
							<path fill="#7292F7" d="M1059.8,601.1c-0.2,0.4-0.6,1.1-1.1,1.5v-0.2l0,0c-0.2-0.4-0.2-0.6-0.4-1.1c-1.9,0.4-3.9,1.1-5.8,1.5
								c-3.9,1.1-7.8,1.9-11.9,3c-1.9,0.4-3.9,1.1-5.8,1.5c0,0.2,0.2,0.4,0.2,0.6c0,0.2,0.2,0.4,0.2,0.6c0.9,1.3,2.2,1.5,3.2,3
								c1.7,2.8,0.6,1.9,1.3,6.3c0.6,4.5,10.2,14.3,14.7,17.7c0.4,0.4,2.8,3,3.7,3.7c-0.2,2.4-0.6,4.3-0.9,6.5l0,0
								c-0.9,5.8-2.6,11.4-4.8,16.8c0,0.2-0.2,0.2-0.2,0.4c-1.5,1.3-1.7,3.5-2.8,5c-5.8,8.6-12.7,13.4-22.5,16.6
								c-7.3,2.4-14.9,3.7-22.7,4.5c-1.3,0.2-2.6,0-3.9-0.2c-2.2-0.4-4.3-1.1-6.3-2.2l0,0l-0.2-0.2c-0.2,0-0.2-0.2-0.4-0.2
								c-0.9-0.6-1.5-1.3-1.9-2.2c-0.2-0.2-0.2-0.4-0.4-0.4l0,0l-0.2-0.4l0,0c0-0.2-0.2-0.9-0.4-1.1l0,0c0-0.2,0,0,0-0.2
								s0-0.2,0-0.4s0-0.4,0-0.6c0-0.2,0-0.4,0-0.6v-0.2c0.2-1.5,0.4-2.8,1.1-4.1c0,0,0-0.2,0.2-0.2l0,0c0,0,0,0,0-0.2
								c0,0,0-0.2,0.2-0.2c1.5-2.2,3.2-3.9,5-5.8l0.2-0.2l0.2-0.2c0.6-0.9,2.6-5,3.2-6.9c0.2-0.6,0.6-1.7,0.9-2.4
								c0-0.2,0.2-0.4,0.2-0.9c0.2-0.4,0.4-1.5,0.6-2.2c0.4-1.5,0.9-3.5,1.3-5.2c0.2-0.9,0.4-1.7,0.4-2.6
								c1.7-15.3,0.9-30.9,1.7-46.2c0-1.1,0.2-1.9,0.2-3c0.4-4.1,1.3-8,2.4-11.9c0.4-1.3,0.6-2.2,0.9-2.8c0,0,3.7-10.8,8-13.8
								c0,0,0.4-0.2,0.9-0.6c0.2,0,0.2-0.2,0.4-0.2c0.2,0,0.2-0.2,0.4-0.2c0.4-0.2,1.3-0.6,1.9-0.9c0.6-0.2,1.3-0.4,1.9-0.9
								c0.9-0.2,1.9-0.9,2.8-1.1c0.9-0.2,1.7-0.6,2.4-0.9c0,0,0,0,0.2,0l0,0l0,0c0.2,0,0.4,0,0.6-0.2c0.9-0.2,1.5-0.2,2.4,0
								c0.4,0,0.9,0,1.3,0c0,0,0,0,0.2,0l0,0l0,0l0,0l0,0h0.2c0.4,0,0.4,0,0.9,0c0,0,0.2,0,1.1,0c0.6,0,3.9,0,8.4-0.4
								c0.2,0,0.4,0,0.6,0c0.4,0,0.9,0,1.5-0.2c0.9,4.5,2.2,8.4,3.5,11.7c1.7,4.1,3.7,7.3,5.2,9.7c0,0,5.4,7.3,6,12.1
								C1060.2,599.6,1060.2,600.5,1059.8,601.1z"/>
							<path opacity="0.15" fill="#353264" enable-background="new    " d="M1028,565.9c0.2,0.6-5,3.7-10.4,9.1
								c-3.9,3.9-5.6,16-5.8,18.6c-0.9,6.5,2.2,17.5,2.8,19.4c2.2,7.3,3.5,9.1,2.4,14.3c-0.9,3.5-3.2,3.5-4.8,5.8
								c-6,9.1-1.7,23.5-3.9,33.7c-0.9,3.5-2.4,8-4.8,11.9c-2.4,4.1-5.4,7.6-9.1,8c-0.2,0-0.4,0-0.6,0c-0.2,0-0.2,0-0.4,0
								c-1.3-0.2-1.7-1.3-1.9-2.4c-0.2-0.4-0.2-0.9-0.4-1.1c-0.2-0.4-0.4-0.9-0.4-1.1l0,0c-0.2-0.6-0.2-1.3-0.2-1.7l0,0
								c0-1.5,0.6-3,1.1-4.3v-0.2l0,0c0,0,0,0,0-0.2c0,0,0-0.2,0.2-0.2c0.2-0.2,0.4-0.6,0.6-0.9c1.5-1.7,2.8-3.5,4.1-5.2l0.2-0.2
								l0.2-0.2c0.6-0.9,2.6-5,3.2-6.9c0.2-0.6,0.6-1.7,0.9-2.4c0-0.2,0.2-0.4,0.2-0.9c0.2-0.4,0.4-1.5,0.6-2.2
								c0.4-1.5,0.9-3.5,1.3-5.2c0.2-0.9,0.4-1.7,0.4-2.6c1.7-15.3,0.9-30.9,1.7-46.2c0-1.1,0.2-1.9,0.2-3c0.4-4.1,1.3-8,2.4-11.9
								c0.4-1.3,0.6-2.2,0.9-2.8c0,0,3.7-10.8,8-13.8c0,0,0.4-0.2,0.9-0.6c0.2,0,0.2-0.2,0.4-0.2s0.2-0.2,0.4-0.2
								c0.4-0.2,1.3-0.6,1.9-0.9c0.6-0.2,1.3-0.4,1.9-0.9c0.9-0.2,1.9-0.9,2.8-1.1C1026.3,566.6,1027.2,566.1,1028,565.9L1028,565.9
								z"/>
						</g>
						<path fill="#212150" d="M1139.9,731.8c-0.4-3-0.6-5.4-2.8-7.6C1137.6,727.1,1138.4,729.4,1139.9,731.8z"/>
						<path fill="#212150" d="M1007.3,704.6c-2.4-1.5-3.7-3.5-4.1-6.3C1004.7,700.3,1006.2,702.2,1007.3,704.6z"/>
						<path fill="#212150" d="M1067.4,769.6c-1.1,2.2-2.8,3.5-4.5,5C1063.7,772,1065,770.9,1067.4,769.6z"/>
						<path fill="#212150" d="M1081.2,752.8c-1.7,1.9-3.2,3.9-5.2,5.6C1076.4,755.4,1078.6,753.8,1081.2,752.8z"/>
						<path fill="#212150" d="M1093.5,735.3c-1.1,1.5-1.9,2.8-3,4.3c-0.4,0.4-0.9,1.1-1.5,0.6c-0.6-0.4-0.2-0.9,0.2-1.3
							C1090.5,737.2,1091.5,735.9,1093.5,735.3z"/>
						<path fill="#212150" d="M1073.6,762.3c-1.1,1.3-1.9,2.4-3,3.7c-0.2,0.4-0.6,0.4-1.1,0c-0.4-0.2-0.2-0.6,0-1.1
							C1070.8,763.6,1071.9,762.5,1073.6,762.3z"/>
						<path fill="#212150" d="M1047.3,714.7c-1.5,0.6-2.8,0.6-4.3-0.2c-0.2-0.2-0.4-0.4-0.2-0.9c0.2-0.2,0.4-0.4,0.6-0.4
							c1.3,0.2,2.6,0.4,4.1,0.9C1047.3,714.3,1047.5,714.7,1047.3,714.7z"/>
						<path fill="#212150" d="M1100.2,725.5c-0.9,1.9-2.2,3.5-3.7,4.8C1096.5,727.7,1098,726.8,1100.2,725.5z"/>
						<path fill="#212150" d="M1060,716c-1.5,0.4-2.8,0.6-4.1,0c-0.4-0.2-0.6-0.4-0.6-0.9s0.4-0.6,0.9-0.6
							C1057.4,715.2,1058.7,715.2,1060,716z"/>
						<path fill="#212150" d="M1015.9,711.3c-2.2-0.4-3.2-1.1-4.3-2.8C1013.6,708.9,1014.6,709.8,1015.9,711.3z"/>
						<path fill="#212150" d="M1022,714.3c1.7-0.9,3-0.4,4.5,0.9C1024.8,715.6,1023.5,715,1022,714.3z"/>
						<path fill="#212150" d="M1032.6,715.8c1.9-0.2,3.7-0.2,5.4,0.9C1035.8,716.9,1034.3,717.3,1032.6,715.8z"/>
						<path fill="#212150" d="M1142.5,737.9c1.5,1.7,1.7,3.5,2.2,5.4C1143,741.5,1142.5,740,1142.5,737.9z"/>
						<path fill="#212150" d="M1104.7,718.6c-0.9,1.5-1.7,2.8-3,3.9C1101.7,720.4,1103,719.7,1104.7,718.6z"/>
						<path fill="#212150" d="M1087,744.1c0,0.2,0,0.9,0,0.9c-0.6,1.3-0.9,2.4-2.2,2.8c0,0-0.4-0.2-0.4-0.4
							C1084.8,745.8,1085.7,745,1087,744.1z"/>
						<path fill="#212150" d="M1080.3,715.2c-1.3-0.2-2.6,0-3.7-1.1C1078.4,713.7,1078.8,713.7,1080.3,715.2z"/>
						<path fill="#212150" d="M1066.1,714.7c1.7-0.6,3-0.4,4.5,0.4C1068.9,715.6,1067.6,715.4,1066.1,714.7z"/>
						<path fill="#212150" d="M1104.9,713.7c-1.3,0.2-2.4,0.4-3.7-0.4C1103,712.6,1103.6,712.6,1104.9,713.7z"/>
						<path fill="#212150" d="M1090.9,714.1c1.3-0.6,2.4-0.4,3.7,0C1093.3,714.5,1092.2,714.5,1090.9,714.1z"/>
						<path fill="#212150" d="M1166.5,781.7c1.9,1.5,2.4,3.2,2.8,5.4C1167.6,785.6,1166.7,784.3,1166.5,781.7z"/>
						<path fill="#212150" d="M1162.8,775.2c-1.5-1.7-2.4-3.7-3.2-5.6C1162,770.7,1162.4,772.6,1162.8,775.2z"/>
						<path fill="#212150" d="M1152.9,759c2.8,1.5,3.5,2.8,3.9,5.8C1155.3,762.9,1154.2,761,1152.9,759z"/>
						<path fill="#B6785C" d="M1058.9,535.2c0,1.1-0.2,1.7-0.2,2.6c-0.4,2.6-0.2,6.5-0.4,9.1c-0.9,7.6-5.4,11.4-12.7,11.9
							c-0.4,0-0.9-0.2-1.3-0.2c0,3,0,7.3,0,9.9c-0.2,4.3-2.8,6.5-6.7,6.5c-2.4,0-4.3-1.5-6.3-2.4c-0.2-0.2-0.4-0.2-0.4-0.4
							s0.2-0.2,0.2-0.4c1.1-6.9,1.1-12.7-1.3-19.4c-0.4,1.5-0.9,2.8-1.3,4.3c0-0.9,0,0.4,0-0.6c0-1.3-0.2-5-0.2-6.7
							c-5.6-4.8-8.6-9.9-8.9-17.3l0,0c-5.8-11.4,11.7-18.4,21.8-17.7c9.1,0.6,16.6,8,17.9,17.5
							C1058.9,532.9,1058.9,534.2,1058.9,535.2z"/>
						<path fill="#A56A50" d="M1044,558.6c-2.2-3.2-4.5-6.7-6.7-9.9c-2.4,6.7,1.1,11.2,6.7,14.7C1044,561.6,1044,560.1,1044,558.6z"
							/>
						<path fill="#341338" d="M1065,526.4c-0.9,2.8-3.5,4.5-5.8,5.2c-5,1.3-9.3,1.3-14.3,0.9c-0.4,2.6-0.9,5.2-1.1,7.8
							c-1.5,0-2.6,0.4-4.3,0.4c-1.7,0-4.1-0.6-6-0.6c-1.3,3.2-3,9.3-3.9,11.9c-0.9,2.8-0.6,2.4-1.3,4.8c0-0.2,0-0.2,0-0.4
							s0-0.4,0-0.9c-0.6-3.9-1.3-5.6-4.1-8.9c-4.8-5.8-7.6-12.5-6.9-20.7c0.6-6,6.5-13,11.7-14.9C1046,505,1057.2,510.8,1065,526.4z
							"/>
						<path fill="#B6785C" d="M1035.8,533.5c2.8-1.3,5.8-0.2,7.1,2.6c1.3,2.6,0.6,5.8-2.2,7.1c-2.8,1.3-5.8,0-7.3-2.6
							C1032.4,538.1,1033.2,534.8,1035.8,533.5z"/>
						<path fill="#341338" d="M1031.7,507.8c0.2,7.6-5.6,13.6-13.2,13.8c-7.6,0.2-13.6-5.2-13.8-12.7c-0.2-7.6,5.6-13.6,13.2-13.8
							C1025.4,494.6,1031.5,500.3,1031.7,507.8z"/>
						<path fill="#A56A50" d="M1030.6,571.8c0,0.2-0.2,0.2-0.2,0.4l0,0l0,0c-0.4-0.6-0.9-0.9-1.3-1.7c-0.4-0.9-0.9-1.7-0.6-2.8
							c0.2-3-0.2-8-0.2-10.6c0.2-2.6,0.9-2.6,1.1-4.5C1031.7,559,1031.7,564.8,1030.6,571.8z"/>
						<path opacity="0.51" fill="#230028" enable-background="new    " d="M1028,555.3c-0.6-3.7-1.3-5.8-4.1-8.9
							c-4.8-5.6-7.3-13-6.9-20.5c1.3,0,1.5,0.6,1.5,1.9c0,1.3-0.4,3,0.6,3.9l0,0c1.1,3.5,2.6,6.5,4.5,9.3c1.7,2.4,2.8,5.2,4.1,8
							c0.4,1.1,0.9,2.2,1.3,3l0,0c-0.2,1.5-0.6,2.8-1.3,4.3c0-0.2,0-0.2,0-0.4C1028,556,1028,555.8,1028,555.3z"/>
						<path fill="#341338" d="M1027.6,543.9c0.9,1.1,1.3,2.2,1.1,3.7c-0.2,1.5-0.4,3.2-1.3,4.5c-0.4,1.5-1.3,2.8-1.7,4.3
							c2.2-2.6,3.7-6.5,4.1-9.7c0-0.2,0-0.4,0-0.6C1029.1,545,1028.7,544.1,1027.6,543.9z"/>
						<path fill="#230028" d="M1033.7,506.5c-0.9,0.2-1.3-0.6-1.9-0.6c-0.9-0.2-1.5,0.4-2.2,1.1c-3.7,3.7-7.3,7.6-11.2,10.8
							c0,0-0.2,0-0.2,0.2c-0.2,1.7-1.5,1.9-3,2.6c0.9,0,1.3,0.4,1.7,1.1c2.2,2.2,2.8,2.2,5.2-0.2c0.4-0.4,0.9-0.9,1.3-1.5
							c2.4-2.6,4.8-5.2,7.6-7.1c0.9-0.6,1.5-1.3,2.2-1.9C1034.3,509.5,1034.5,508.2,1033.7,506.5z"/>
						<path fill="#B6785C" d="M1057,551.2c-1.1-0.6-1.7-1.3-0.6-2.4c1.1-1.1,0.9-2.2,0.4-3.2c-0.4-1.1-0.9-1.7-1.1-2.8
							c-0.4-1.1-0.4-1.9,0.6-2.8c1.1-0.9,0.9-2.4,0.9-3.5c0-1.1,0.2-1.3,1.1-1.5c0.2,0.6,0.4,1.5,0.2,2.2c-0.6,3-0.2,6,0.9,8.9
							C1060.7,548.9,1058.7,549.7,1057,551.2z"/>
						<path opacity="0.51" fill="#230028" enable-background="new    " d="M1048.6,514.9c-1.7-0.6-3-1.9-4.3-3.2
							c-1.3-1.1-3-0.9-4.5-1.9C1044,507.8,1046.4,511.5,1048.6,514.9z"/>
						<path opacity="0.51" fill="#230028" enable-background="new    " d="M1022.2,534.2c-2.2-1.9-3.2-4.1-3.2-7.1
							c0-0.6,0-1.3,0.9-1.3c0.9,0,0.6,0.6,0.6,1.3c-0.2,1.5,0.4,2.8,0.9,3.9C1021.8,532,1022.2,532.9,1022.2,534.2z"/>
						<path opacity="0.51" fill="#230028" enable-background="new    " d="M1036.9,517.1c0.4,1.9,0,3-1.9,4.1
							c-1.9,0.9-3.2,0-4.5-1.3C1033.2,520.1,1035.2,519.5,1036.9,517.1z"/>
						<path opacity="0.51" fill="#230028" enable-background="new    " d="M1014,499c-1.1,1.1-1.9,2.2-2.4,3.7
							c-1.1,2.4-0.9,4.3,0.6,6.5c1.5,2.2,3.9,2.6,6.5,2.6c0.9,0,1.3-0.6,1.9-1.1c1.9-1.7,2.6-4.3,2.4-6.5c-0.2-2.2-1.1-3.2-3-3.5
							c-1.9-0.2-3.9,1.5-4.5,2.8c-0.4,1.3,0.6,1.7,1.3,2.2c0.6,0.4,1.3,0.6,0.9,1.3c-0.4,0.6-1.1,0.6-1.7,0.2
							c-2.2-1.1-3.2-3-1.9-5.4c1.3-2.4,4.3-3.9,6.9-3.2c2.8,0.6,3.7,3.2,3.7,5.8c0,1.1,0,2.4-0.6,3.5c-1.3,2.4-2.4,4.8-5.6,5.2
							c-3.2,0.4-6.3-0.9-8-3.9c-1.7-2.8-1.7-5.2-0.2-8C1011.2,500,1012.1,498.5,1014,499z"/>
						<g>
							<path fill="#6A6CD6" d="M1058.7,602.6c-1.9,1.5-5.6,2.2-7.6,2.6c-4.8,0.9-12.7-0.2-16,3.2c-0.2-0.4-0.2-0.9-0.4-1.3
								c7.8-2.2,15.8-4.1,23.5-6C1058.3,601.6,1058.5,602,1058.7,602.6z"/>
							<path fill="#B6785C" d="M1161.1,639.8c-8.9,0.6-17.7,0.6-26.6,1.5c-24.4,1.9-49.2,4.1-73.7,4.8c-1.7,0-2.2,0.2-3.7-0.4
								c-1.5-0.6-1.9-1.3-3.2-3c-5.4-7.6-10.8-16.2-14.9-25.1c-1.3-2.8-2.6-6-3.7-9.1c3.2-3.5,11.4-2.4,16-3.2
								c1.9-0.4,5.6-1.3,7.6-2.6c3,8,5.8,16.2,8.2,24.4c19.2,2.4,38.2,3.9,57.7,4.8c3.5-1.3,8-2.6,11.4-2.6
								C1146.2,629.6,1154,633.1,1161.1,639.8z"/>
						</g>
						<path opacity="0.3" fill="#353264" enable-background="new    " d="M1022.6,583c-1.1,9.5,2.6,17.1,9.3,23.8L1022.6,583z"/>
						<path fill="#341338" d="M1028.7,543.9c0.2,1.5,0.2,2.4-0.6,3.7c-0.9,1.3-1.9,2.6-3.2,3.5c-1.1,1.1-2.6,1.9-3.5,3
							c3.2-1.3,6.3-3.9,8.2-6.7c0.2-0.2,0.2-0.4,0.2-0.6C1029.8,545.6,1029.8,544.5,1028.7,543.9z"/>
						<path fill="#341338" d="M1032.1,512.8c0.6-1.7,1.3-3,3.2-3.9c1.7-0.9,3.9-1.9,5.8-2.2c1.9-0.6,4.1-0.9,6-1.7
							c-4.3-0.2-9.5,1.3-13.4,3.5c-0.2,0.2-0.4,0.2-0.6,0.4C1032.1,510.4,1031.5,511.5,1032.1,512.8z"/>
					</g>
					<g>
						<path fill="#F0F4FC" d="M1059.1,746.9c-19.4,0-43.2-0.2-62.4-0.6c-7.6-0.2-11.9-6-11.7-13.2c-0.6-0.4,0,0,0,0
							c0.2-7.3,4.5-13.2,12.3-13.2c19.4,0,43.6,0,63.1,0.4c7.8,0.2,11.2,6.3,11,13.4c0.6,0.2,0,0,0,0
							C1071.2,740.9,1066.9,746.9,1059.1,746.9z"/>
					</g>
				</g>
				<g>
					<path fill="#F0F4FC" d="M1226.3,580.6h-32.4c-1.5,1.1-2.2,2.6-2.4,4.3c-3,16.4-7.1,32.6-9.3,49.2c-0.2,0.9-0.2,1.7-0.2,2.4
						c0,1.5,0.4,2.8,1.1,3.9h37.6c6-0.4,11.4-1.1,14.5-1.3c0.9-0.9,1.7-1.7,2.4-2.6c7.3-9.1,8.4-19.2,2.4-29.4
						C1234.8,598.5,1229.1,590.3,1226.3,580.6z"/>
					<path fill="#E9EDF4" d="M1225.5,580.6c-0.2,6.5,1.7,12.3,6,17.7c5.8,7.3,10.6,15.3,9.9,25.5c-0.4,6.3-6,9.7-6.5,15.6
						c8,1.5,12.1-1.1,13-9.7l8.4-49H1225.5z"/>
					<path fill="#F0F4FC" d="M1241.9,638.5v0.2c0,0.2,0,0.4-0.2,0.6c-0.2,0.6-0.9,1.1-1.7,1.1h-97.4c-1.1,0-1.7-0.9-1.7-1.7v-0.2
						c0-1.1,0.9-1.7,1.7-1.7h97.4C1241,636.6,1241.9,637.4,1241.9,638.5z"/>
					<circle fill="#DBDCF8" cx="1222.2" cy="608.3" r="7.1"/>
				</g>
				<g>
					<path opacity="0.27" fill="#3F39A6" enable-background="new    " d="M1383.8,620.6c-2.2,0.6-4.1,1.1-6,1.5h-0.2
						c-0.2-0.4-0.4-0.6-0.6-1.1c0.4-0.4,0.4-1.1,0.2-2.6c-0.4-3-0.6-6-1.1-8.9c-1.1-6-0.4-12.3-0.9-18.4c-0.2-2.6-0.6-5.4-0.6-8
						c0-1.3-1.3-2.2-1.5-3.5c0.6-0.6,1.1-1.5,2.2-1.3c1.3,0.2,2.6,0.4,3.9,0.6c0.6,0,1.1,0.2,1.5,0.6
						C1381.4,589,1382.7,602.4,1383.8,620.6z"/>
					<g>
						<g>
							<path fill="#C48271" d="M1306.2,572.6c10.4-1.5,20.3-3.9,30.2-6.3c0.6-4.5,0.9-8.2-1.9-12.3c-7.3,0-14.7-1.5-22-1.1
								c-5.6-1.1-11-1.5-16.8,0c-4.1,1.1-5.6,4.8-7.3,8c-0.9,1.7-1.1,3.5-1.9,5.2c0.9,3.2,1.7,6.5,5.8,7.3
								C1297.2,574.3,1301.7,573.9,1306.2,572.6z"/>
							<path fill="#D5907E" d="M1286.6,565.9c2.8-1.9,2.8-5.2,4.8-7.8c2.4-3.5,5-5.4,9.7-5.4c3.9,0,8,0,11.9-0.2
								c1.1-5.8,2.4-11.9,3.5-17.7c0-0.2,0.2-0.4,0.2-0.6c0.4-2.4,0.6-3.7,0-4.5c-1.1-1.3-3.9-1.1-4.5-1.1c-3.7,0.4-10.4,0-24-2.8
								c-2.2,7.1-4.3,17.5-3,29.8C1285.1,559.7,1285.7,562.9,1286.6,565.9z"/>
						</g>
						<path fill="#C48271" d="M1295.7,805.7c-1.5,6-2.8,11.9-4.3,17.9c-4.5-0.6-9.1-1.3-13.4-1.9c1.5-5.8,3-11.9,4.3-17.7
							C1286.8,804.6,1291.1,805.2,1295.7,805.7z"/>
						<path fill="#C48271" d="M1368.5,802.9c0,6,0,12.1-0.2,18.1c-4.5,0.2-9.1,0.4-13.6,0.9c0-6,0.2-12.1,0.2-17.9
							C1359.6,803.5,1364.1,803.1,1368.5,802.9z"/>
						<path fill="#353264" d="M1293.1,820.8c-0.4-0.6-0.9-1.1-1.9-0.6c-2.2,1.3-4.8,1.7-7.3,1.5c-2.6-0.2-4.5-1.5-5.4-3.5
							c-0.4-1.1-0.9-1.1-1.7-0.9c-7.3,2.6-15.6,5.6-22.7,8.4c-1.7,0.6-2.6,1.5-3.2,2.8c-0.2,0,0,0,0,0c-0.6,1.3,0,2.4,1.9,2.6
							c12.5,0.2,26.1,0.2,38.7,0.2c1.9,0,2.6-0.9,2.8-2.6c0.2-1.7-0.2-4.8-0.2-6.7c0-0.2,0-0.2,0-0.4
							C1293.3,821.4,1293.3,821,1293.1,820.8z"/>
						<path fill="#353264" d="M1353.6,819.1c0.4-0.6,1.1-1.1,1.9-0.4c2.2,1.3,4.8,1.9,7.3,1.7c2.6-0.2,4.5-1.5,5.6-3.2
							c0.4-0.9,0.9-1.1,1.7-0.9c7.3,2.6,15.6,5.8,22.7,8.6c1.7,0.6,2.6,1.5,3,2.8c0.2,0,0,0,0,0c0.4,1.3,0,2.4-1.9,2.4
							c-12.5,0-26.1,0-38.9-0.2c-1.9,0-2.6-0.9-2.8-2.6c-0.2-1.7,0.4-4.8,0.4-6.7c0-0.2,0-0.2,0-0.4
							C1353.1,819.9,1353.3,819.3,1353.6,819.1z"/>
						<path fill="#353264" d="M1360.7,620.6c0-0.2,0.2-0.4,0.2-0.9c-5.4,0.6-13.2,1.1-22,0c-9.3-1.3-16.6-4.1-21.8-6.5
							c-6.9,33.7-14,67.8-21.6,102.2c-7.1,32.2-14.3,64.2-21.4,95.9c8.2,0,16.2-0.2,24.4-0.2c16.6-51,33-102,49.9-152.7
							c2.6,50.5,4.3,101.1,6.3,151.6c8.6,0,17.3,0.2,25.9,0.2c1.9-63.5,3.7-127,4.8-190.5C1377.1,620.1,1368.9,620.4,1360.7,620.6z"
							/>
						<path fill="#7292F7" d="M1403,538.3C1403,538.3,1402.8,538.3,1403,538.3c-0.2,0.6-0.4,0.6-0.6,0.9c-0.2,0.2-0.4,0.2-0.6,0.4
							c-0.6,0.4-1.3,0-2.2,0c-0.2,0-0.4,0-0.6,0c-6.3,0.4-12.7,1.5-18.8,1.5c-1.9,0-3,0.2-3.7,0.6c-0.6,0.4-0.6,1.3-0.4,2.6
							c0,0.4,0.2,0.9,0.2,1.3c1.1,4.8,1.5,10.2,3.2,15.1c0.2,0.6,0.6,1.7,0.9,2.6l0,0c0,0,0,0.2,0,0.4l0,0
							c1.3,5.8,2.2,11.7,2.8,17.7c0,0.4,0,0.9,0.2,1.7c0,0,0,0,0,0.2c1.3,12.7,2.2,26.1,3.2,38.9c-1.3,0.2,0.2,0-1.1,0.2l0,0
							c-6.7,1.3-56.8,11.2-67.8-3.5c-0.4-0.6-0.9-1.1-1.1-1.7c-2.6-4.8-1.9-9.9,0.9-16.4c0-0.2,0-0.2,0.2-0.4
							c3.9-8.6,6.3-20.3,3.7-30.5v-0.2l0,0c-0.4-1.3-1.1-2.6-1.5-3.9c-2.4-5-5.6-9.1-9.9-13.2l0,0c-0.9-0.9-0.6,0.2-1.1-0.9
							c0,0,0,0,0-0.2s-0.2-0.2-0.2-0.4c-0.9-1.9-0.9-7.3-1.5-10.4l0,0c-0.6-3-6.3-6.9-6.3-6.9l-13-6.5c0,0,0.2-0.4,0.4-1.3V526
							c1.5-5.2,6.9-23.1,15.8-30.2c5.2-4.1,19-10.2,27.4-11.9c0.9-0.2,2.6-0.6,3.7-0.9h0.2c0.2,0,0.4-0.2,0.6,0
							c0.4,0.4,0.6,0.9,1.1,1.3c6.3,4.3,13.8,2.4,20.7,0.2l0,0l0,0l0,0c0.2,0,0.2,0,0.4-0.2c0.4-0.2,0.6-0.2,0.6-0.2l0,0l0,0
							c0.2,0,0.2,0,0.4-0.2l0,0l0,0l0,0h0.2c0.4,0,0.9,0.2,1.3,0.2c5.2,1.3,9.7,3.5,14.3,6.3c0.9,0.4,1.7,1.1,2.4,1.7
							c0.2,0.2,0.6,0.4,0.9,0.6c0.9,0.4,1.5,1.1,2.4,1.7l0,0c0.9,0.6,1.7,1.3,2.6,2.2c0.9,0.6,1.5,1.3,2.4,2.2
							c0.2,0.2,0.4,0.4,0.6,0.6c5.8,5.6,11,11.2,14,18.4C1403.7,524,1405.6,531.8,1403,538.3z"/>
						<g>
							<path opacity="0.27" fill="#4E76C6" enable-background="new    " d="M1404.3,544.1c-0.4,0-0.9,0-1.1,0c-0.4,0-0.4,0.2-0.6,0
								c-0.2-0.2-0.2-0.9-0.2-1.1c0-1.1,0-2.4-0.2-3.9c0-0.2,0-0.4,0-0.9c-0.6-9.7-2.4-22.7-9.5-27c-5.8-3.7-4.5-2.2-8.9-6.7
								c-2.4-2.4-0.9-3.5-2.8-6c-5-6.7-14.5-9.9-21.4-13c0,0-0.2,0-0.2-0.2c-1.3-0.4-0.9-0.2-1.5-0.6c-0.2,0-0.2-0.2-0.2-0.2h0.2
								l0,0l0,0l0,0l0,0c0-0.2,0.9-0.4,1.1-0.4s0,0,0.2,0l0,0l0,0h0.2c0.2,0,0.2,0,0.4,0c0.4,0,1.1,0.2,1.5,0.2
								c5.2,1.3,9.7,3.5,14.3,6.3c0.9,0.4,1.7,1.1,2.4,1.7c0.2,0.2,0.6,0.4,0.9,0.6c0.9,0.4,1.5,1.1,2.4,1.7l0,0
								c0.9,0.6,1.7,1.3,2.6,2.2c0.9,0.6,1.5,1.3,2.4,2.2c0.2,0.2,0.4,0.4,0.6,0.6c5.8,5.6,11,11.2,14,18.4
								c2.8,6.3,4.8,14.3,2.2,20.5l0,0l0,0C1403,538.3,1403.7,540.6,1404.3,544.1z"/>
						</g>
						<path opacity="0.27" fill="#3F39A6" enable-background="new    " d="M1376.2,541.7c0.2,1.7,0.9,2.8-1.5,3.2
							c-2.4-3.9-3.2-8.4-5-12.7c-0.9-2.2-1.5-4.3-2.4-6.5c-0.4-1.3-0.4-2.2,0.9-2.6c1.3-0.4,1.7,0.6,1.9,1.5
							c0.9,2.4,1.9,4.5,2.6,7.1C1374.1,535,1374.9,538.5,1376.2,541.7z"/>
						<path fill="#4A749A" d="M1349.2,524"/>
						<path fill="#353264" d="M1370.8,600.7c-18.1,0.2-37.6,0.4-55.9,0.2c-2.4,0-3.9-0.9-5-3c-8.6-17.5-17.9-36.1-26.4-53.6
							c-1.1-2.2-0.6-3,1.7-3c18.1-0.4,37.4-0.6,55.9-0.6c2.4,0,3.9,0.9,5,3c8.9,17.5,17.9,36.3,26.4,53.8
							C1373.9,599.8,1373.4,600.7,1370.8,600.7z"/>
						<path fill="#D5907E" d="M1359.4,483.8c0.6,0.9-0.2,2.2-1.5,2.6c-6.7,1.9-12.5,2.2-19,0.6c-0.6-0.2-1.3-1.1-1.5-1.3
							c-1.7-1.3-7.3-8.6-5.8-10.2c2.4-2.4,5.4,1.5,8.4-0.2c2.2-1.1,4.3-3.7,4.8-6.5c0.2-1.5,0-1.5,0.2-3.7c0.2-1.9,1.9-5.8,3.7-7.8
							c0.2,3,0,3,0.9,6.9c0.4,1.5,2.4,6.7,4.1,9.7C1354.4,475.8,1357.7,481.7,1359.4,483.8z"/>
						<path fill="#DC9783" d="M1349.9,459.6c-0.2,0.9-0.9,1.3-1.5,1.7c-0.6,0.4-0.9,0-1.3,0.2c-1.5,1.1-1.7,3-1.5,4.3
							c0.6,4.3-1.7,8-5.2,10.2c-3.5,2.2-4.8,2.6-8.2,3.5c-1.7,0.4-3.5-0.6-4.8-1.7c-0.2-0.2-0.2-0.2-0.4-0.4
							c-3.9-4.1-7.8-9.7-9.7-14.5s-3-8.2-4.1-12.7c3-3.9,20.3-15.8,24.8-12.7c6.3,4.3-0.4,10.8,5,14.5c2.4,1.5,3.5-0.2,5.6-0.4
							C1350.1,454,1350.7,456.6,1349.9,459.6z"/>
						<path fill="#353264" d="M1354.2,464c-0.6-2.4-1.5-5.2-1.7-7.8c-0.2-1.5-0.4-2.8-1.3-4.1c0.4-6.9,0.6-18.1-10.4-17.1
							c-11-9.5-22.7-3.2-29.6,5.6c-3.9,5-4.8,4.1-9.5,6.3c12.5,6.9,23.5,3.9,34.1-5c0,5.2,0.9,11,6.9,13.2c1.9-0.6,3.9-1.3,5.8-1.9
							c0.4,2.8,0,4.8-1.9,6.9c0,1.1,0.4,2.4,1.3,3.2c1.3,1.5,4.3,3.7,6.3,2.4C1355.1,465.3,1354.4,464.8,1354.2,464z"/>
						<path fill="#C48271" d="M1345.8,463.8c-0.2,0.2-0.2,0.2-0.2,0.6c0,0.4,0,0.9,0.2,1.9c0.6,4.1-1.7,8-5.2,10.2
							c-3.5,1.9-4.8,2.6-8.2,3.5c-1.7,0.4-3.5-0.6-4.8-1.7c-0.2-0.2-0.2-0.2-0.4-0.4c1.3-0.6,3-1.5,4.1-1.9c2.4-1.3,5-2.8,6.9-4.3
							c3-2.4,4.5-4.5,5-8.2c0.2-0.9,0.4-1.7,0.4-2.4c0.2-0.6,0.6-1.1,0.9-1.5c1.5-2.2,2.8-3.9,4.3-6c0.2,0.4,0.4,1.3,0.4,1.5
							C1349,458.1,1347.1,460.5,1345.8,463.8z"/>
						<g>
							<path fill="#C48271" d="M1385.1,583.6c-10.4-1.3-20.3-3.5-30.5-6c-0.6-4.5-0.9-8.2,1.7-12.3c7.3-0.2,14.7-1.7,22-1.5
								c5.6-1.3,11-1.7,16.8-0.2c4.1,1.1,5.6,4.8,7.3,8c0.9,1.7,1.1,3.5,1.9,5.2c-0.9,3.5-1.5,6.7-5.8,7.6
								C1394.2,585.1,1389.6,584.9,1385.1,583.6z"/>
							<path fill="#D5907E" d="M1406.5,566.6c-0.2,3.5-0.9,6.7-1.7,10.2l0,0c-2.8-1.9-2.8-5.2-4.8-7.6c-2.4-3.5-5-5.4-9.7-5.2
								c-3.5,0-6.9,0.2-10.4,0c-0.4,0-1.1,0-1.5,0l0,0c-1.3-5.8-2.4-11.7-3.7-17.7c0-0.2-0.2-0.4-0.2-0.6s-0.2-0.6-0.2-0.9
								c0-0.2,0-0.4,0-0.6c-0.2-1.1-0.9-2.2,0.2-3.2c0.4-0.4,0.6-0.6,1.1-0.9c0.9-0.4,2.2-0.2,3.9-0.2c5.8,0,13.2-1.1,19.4-1.5
								c1.1,0,2.2,0,3.2,0c0.2,0,0.4,0,0.6,0l0,0c0.2,0,0.6,2.4,1.3,5.6C1405.6,550.4,1407.1,560.3,1406.5,566.6z"/>
						</g>
						<path opacity="0.27" fill="#3F39A6" enable-background="new    " d="M1309.1,538.5c-0.6,1.5-0.4,2.8-2.6,2.4
							c-0.6-4.5,0.6-9.1,0.9-13.6c0.2-2.4,0.4-4.5,0.6-6.7c0-1.3,0.6-2.2,1.9-1.9c1.3,0.2,1.3,1.3,1.3,2.2c-0.2,2.6-0.2,5-0.6,7.6
							C1309.9,531.6,1309.3,534.8,1309.1,538.5z"/>
					</g>
					<path fill="#C48271" d="M1356.4,565.3c0,0-39.3-4.5-35.6,4.8s33.9,7.6,33.9,7.6L1356.4,565.3z"/>
					<path fill="#C48271" d="M1293.3,570c0,0,30.7-1.3,31.5-8.2c0-0.6-0.2-1.1-0.4-1.7c-2.8-6.5-14.5-9.7-23.3-6.9
						c-2.8,0.9-8.2,2.4-9.7,7.3C1289.6,564.8,1292.6,569.2,1293.3,570z"/>
				</g>
			</g>
			<g>
				<g>
					<path fill="#548936" d="M1474.1,771.8c6.7-30.7,31.5-50.3,59-50.3c5.6,0,11.4,0.9,13.8,6.3c2.2,5-2.2,9.1-5.2,12.5
						c-7.6,8.6-17.7,13-28.3,16.6C1500.2,761.6,1477.5,771.6,1474.1,771.8z"/>
					<path fill="#548936" d="M1465.7,767.2c-6.3-30.9-30.9-50.8-58.3-51.2c-5.6,0-11.4,0.9-13.8,6c-2.2,5,2.2,9.1,5.2,12.5
						c7.3,8.9,17.5,13.2,28.1,17.1C1439.7,756.9,1462.2,767.2,1465.7,767.2z"/>
					<g>
						<path fill="#78AA57" d="M1457,740.4c-12.7-36.1-22.5-73.2-22.9-113.6c0-2.8,0.2-5.4,0.6-8.2c0.6-5,3-6.5,6.5-5.6
							c5,1.5,9.1,5.2,12.7,9.9c16.4,21.6,24,49.2,27.6,79.1c2.2,17.7,0.9,35.2-3.2,52.3c-0.4,1.9-1.3,3.5-1.9,5.2
							c-3.2-3-3.7-8-4.5-12.5c-4.3-25.3-5.4-33.7-0.9-2.8C1472.1,750.6,1460.5,749.7,1457,740.4z"/>
					</g>
					<path fill="#78AA57" d="M1477.8,744.8c6.3-30.9,30.7-50.8,58.3-51.2c5.6,0,11.4,0.9,13.8,6c2.2,5-2.2,9.1-5.2,12.5
						c-7.3,8.9-17.5,13.2-27.9,17.1C1503.7,734.2,1481,744.6,1477.8,744.8z"/>
					<path fill="#548936" d="M1470.6,715c1.5-16.6-1.5-32.2-3-48c-0.6-6.9,0.2-14,3.5-21.4c4.3-9.3,8.9-11,16-6
						c4.3,3,6.5,7.6,8,12.5c6.9,21.6,1.1,43-19.7,64.2c-2.2-1.5-0.4-3.9,0.6-5.8c5.2-9.9,8-19.9,9.3-30c-1.5,9.9-3.9,19.7-9.3,29.4
						C1475.2,711.9,1474.3,714.7,1470.6,715z"/>
					<path fill="#548936" d="M1440.8,691c-5.4-4.1-11.4-7.6-16.8-11.7c-3-2.2-7.8-4.1-6-9.5c1.7-5.2,6.9-4.5,10.6-4.3
						c17.5,1.1,29.6,11,35.6,32c3,10.4,4.1,21.2,2.4,32.6C1463.1,724.7,1448.2,696.4,1440.8,691z"/>
					<path fill="#548936" d="M1516.2,656.4c-9.3,4.5-14.5,6.9-19.7,12.7c-12.3,13.4-13.8,31.8-15.1,46.9c-0.6,8.2-1.1,20.5,1.3,35.2
						c9.5-6.3,16-13,20.1-17.7c0,0,19.2-22.5,21.2-78.6C1524,655.1,1523.3,653,1516.2,656.4z"/>
					<path fill="#78AA57" d="M1461.8,745.8c4.1-31.1-12.7-57.9-38.4-67.4c-5.2-1.9-11-3-15.1,1.3c-3.7,3.9-0.9,9.3,0.6,13.6
						c4.1,10.8,12.3,18.1,21,25.3C1440.6,727.5,1458.5,744.6,1461.8,745.8z"/>
					<g>
						<path fill="#3B661F" d="M1442.5,743c5.4,3.5,10.2,7.8,14.3,12.5c4.1,5,7.6,10.4,10.2,16.2c-3.9-5-7.6-10.2-11.7-14.9
							C1451.2,752.3,1446.9,747.8,1442.5,743z"/>
					</g>
					<g>
						<path fill="#3B661F" d="M1449.2,711.5c2.6,5.8,4.8,11.9,7.1,17.7c2.4,6,4.5,11.9,6.5,17.9c1.9,6,3.7,12.3,4.5,18.6
							c0.4,3.2,0.6,6.5,0.6,9.7c0,3.2-0.4,6.5-1.1,9.5c0.4-6.3,0-12.7-1.3-18.8c-1.3-6.3-3-12.3-5-18.4c-1.9-6-4.1-12.1-6-18.1
							C1452.9,723.6,1451,717.6,1449.2,711.5z"/>
					</g>
					<g>
						<path fill="#3B661F" d="M1457.9,701.6c2.6,5.8,4.8,11.9,7.1,17.7c2.4,6,4.5,11.9,6.5,17.9c1.9,6,3.7,12.3,4.5,18.6
							c0.4,3.2,0.6,6.5,0.6,9.7s-0.4,6.5-1.1,9.5c0.4-6.3,0-12.7-1.3-18.8c-1.3-6.3-3-12.3-5-18.4c-1.9-6-4.1-12.1-6-18.1
							C1461.3,713.9,1459.4,707.6,1457.9,701.6z"/>
					</g>
					<g>
						<path fill="#3B661F" d="M1482.3,689.9c-1.5,7.1-3.2,14.3-5,21.2l-5.4,21.2c-1.7,7.1-3.2,14-4.1,21.2
							c-0.9,7.1-1.1,14.5-0.4,21.6c-0.9-3.5-1.3-7.1-1.5-10.8c-0.2-3.7,0-7.3,0.2-11c0.6-7.3,1.9-14.5,3.7-21.6
							c1.7-7.1,3.9-14,5.8-21C1478,703.7,1480.1,696.8,1482.3,689.9z"/>
					</g>
					<g>
						<path fill="#3B661F" d="M1494.8,699.2c-1.5,7.1-3.2,14.3-5,21.2l-5.4,21.2c-1.7,7.1-3.2,14-4.1,21.2
							c-0.9,7.1-1.1,14.5-0.4,21.6c-0.9-3.5-1.3-7.1-1.5-10.8c-0.2-3.7,0-7.3,0.2-11c0.6-7.3,1.9-14.5,3.7-21.6
							c1.7-7.1,3.9-14,5.8-21C1490.3,713,1492.4,705.9,1494.8,699.2z"/>
					</g>
					<g>
						<path fill="#3B661F" d="M1514,734.2c-5.2,5.2-10.4,10.2-15.6,15.3l-16,14.9c-5.2,5-10.4,10.2-14.9,15.6
							c-4.8,5.6-8.6,11.4-12.1,17.9c1.3-3.5,2.8-6.7,4.5-9.9c1.7-3.2,3.9-6.3,6-9.1c4.3-5.8,9.5-11.2,14.9-16.2
							c5.4-5,10.8-9.7,16.2-14.5C1502.8,743.5,1508.4,738.7,1514,734.2z"/>
					</g>
					<path fill="#F0F4FC" d="M1498.5,773.3c4.5-0.4-1.3,40-4.1,57.2c-0.6,3.9-1.3,5.6-5.4,5.4c-8.6-0.2-17.5-0.2-26.1,0
						c-3.5,0-4.8-1.1-5.2-4.8c-1.7-15.1-8.9-51.2-9.5-54.6c-0.4-2.4,0.2-3,2.4-3C1453.6,773.5,1496.3,773.5,1498.5,773.3z"/>
				</g>
			</g>
		</g>
	</g>
</g>
<g id="DESIGNED_BY_FREEPIK">
</g>
</svg>
