<?xml version="1.0" encoding="utf-8"?>
<!-- Generator: Adobe Illustrator 18.1.1, SVG Export Plug-In . SVG Version: 6.00 Build 0)  -->
<svg version="1.1" id="_x3C_Layer_x3E_" xmlns="http://www.w3.org/2000/svg" xmlns:xlink="http://www.w3.org/1999/xlink" x="0px"
	 y="0px" viewBox="0 0 3006 1670" enable-background="new 0 0 3006 1670" xml:space="preserve">
<rect x="0" fill="#17237F" width="3006" height="1670"/>
<polygon fill="#FFFFFF" points="0,0 0,1670 1199.1,1670 1806.9,0 "/>
<g>
	<defs>
		<rect id="SVGID_1_" x="0" width="3006" height="1670"/>
	</defs>
	<clipPath id="SVGID_2_">
		<use xlink:href="#SVGID_1_"  overflow="visible"/>
	</clipPath>
	<g clip-path="url(#SVGID_2_)">
		<path fill="#468BB7" d="M2912.9,1427.2c0,26.5-348.2,47.9-777.7,47.9s-777.7-21.4-777.7-47.9s348.2-47.9,777.7-47.9
			S2912.9,1400.8,2912.9,1427.2z"/>
		<rect x="2628.4" y="1003.3" fill="#743064" width="14.4" height="423.7"/>
		<g>
			<g>
				<rect x="2155.2" y="1133.3" fill="#303030" width="30.2" height="41.6"/>
				<g>
					<g>
						<rect x="2156.6" y="1144.7" fill="#56585E" width="26.3" height="202.1"/>
					</g>
					<g>
						<polygon fill="#0A2126" points="2312.9,1385.1 2187,1318 2187,1348.5 2277.2,1385.1 2277.2,1391.8 2312.9,1391.8 						"/>
						<polygon fill="#0A2126" points="2187,1348.5 2152.9,1348.5 2152.9,1318 2152.9,1293.4 2187,1293.4 						"/>
						<polygon fill="#0A2126" points="2027,1385.1 2152.9,1318 2152.9,1348.5 2062.6,1385.1 2062.6,1391.8 2027,1391.8 						"/>
						<polygon fill="#0A2126" points="2158.5,1318 2158.5,1391.8 2150,1391.8 2150,1397 2187,1397 2187,1391.8 2179.2,1391.8 
							2181.6,1318 						"/>
					</g>
				</g>
			</g>
			<g>
				<path fill="#004555" d="M2225,1031.5h-125.1l-34.4-212.7c-6.2-38.2,23.3-72.9,62-72.9h69.7c38.7,0,68.2,34.7,62,72.9
					L2225,1031.5z"/>
				<polygon fill="#1E0C00" points="2082.9,925.9 2031.5,946.3 2063.1,1077.6 2076.9,1075.6 2061.7,961.2 2089,949.4 				"/>
				<polygon fill="#1E0C00" points="2238.6,925.9 2282.6,956.4 2275.3,1084.4 2257.6,1081.1 2263.8,970.7 2228.5,950.1 				"/>
				<path fill="#0089A9" d="M2295.8,1098.8h-234.1v-23.2h210.9C2285.4,1075.6,2295.8,1086,2295.8,1098.8L2295.8,1098.8z"/>
			</g>
		</g>
		<path fill="#3C1047" d="M2217.9,658.7c0,0-5,55.5,10.3,70.8c15.3,15.3,17.4,14.9,22.7,13.4c0,0-3.5,9.4-13.2,10
			c-0.7,0-1.3,0-2.1,0c-11.3-0.7,0.9,8.5,6.8,10.6c5.9,2.1-11.8,4.4-24.1,1.5c-7.6-1.8-86.8-0.8-99.1-11.8
			c-7.7-6.8,25.9-41,27.5-58.2C2150.8,650.1,2217.9,658.7,2217.9,658.7z"/>
		<path fill="#FD5E5A" d="M2377.1,653.9c0,0-7.4,15.6-10.6,33.5c-3.2,17.9,1.7,49.6,10.6,62.9c8.9,13.3,9.8,18.2,17.9,18.2
			c8.1,0,40.4-14.2,43.3-47.1c2.9-32.9-58.9-67.5-58.9-67.5H2377.1z"/>
		<path fill="#FC7575" d="M2711,935.2c0,0-20.8-9.5-27.2-15.9c-6.4-6.4-26.7-23.1-36.9-23.1s-61.5,23-54.3,25.6
			c7.2,2.6,46.6-9.2,46.6-9.2s-46.1,19-37.9,22.6c8.2,3.6,33.3-6.2,33.3-6.2s-12.8,6.2-12.8,10.8c0,4.6,18.8-4.6,29.6-4.6
			c10.9,0,39.6,17.9,39.6,17.9L2711,935.2z"/>
		<g>
			<g>
				<path fill="#AF9BE2" d="M2825.5,1217c-3.9,4.1-11,6.7-19,6.4c-8-0.3-14.9-3.4-18.5-7.7c3.9-4.1,11-6.7,19-6.4
					C2815,1209.6,2821.9,1212.7,2825.5,1217z"/>
				<g>
					<path fill="#AF9BE2" d="M2912.6,1384.2c-5.3-36.5-7.8-73.4-7.2-110.3c0.2-18.4,1.2-36.8,2.6-55.2c1.4-18.3,3.6-36.6,6.2-54.8
						c5.2-36.4,12.6-72.5,21.7-108.1c4.6-17.8,9.7-35.5,15.2-53c5.6-17.5,11.5-34.9,18.4-52l2.2,0.9c-6.6,17-12.3,34.5-17.7,52
						c-5.3,17.5-10.2,35.2-14.5,53c-8.7,35.6-15.6,71.6-20.3,107.9c-2.3,18.1-4.3,36.3-5.5,54.6c-1.2,18.2-2,36.5-1.9,54.8
						c-0.2,36.5,2.7,73,8.5,109L2912.6,1384.2z"/>
					<path fill="#AF9BE2" d="M2980.3,877.7c-10.4,6.3-18.7,19.6-21,35.8c-2.3,16.3,2,31.3,10.2,40.2c10.4-6.3,18.7-19.6,21-35.8
						C2992.8,901.7,2988.5,886.7,2980.3,877.7z"/>
					<path fill="#AF9BE2" d="M2919,933.7c-1.3,9.4,2.8,21,11.5,30.3c8.8,9.4,20,14.1,29.5,13.5c1.3-9.4-2.8-21-11.5-30.3
						C2939.7,937.9,2928.4,933.1,2919,933.7z"/>
					<path fill="#AF9BE2" d="M2960.8,982.8c8,5.2,20.1,6.4,32.3,2.5c12.2-4,21.3-12.1,24.8-21c-8-5.2-20.1-6.4-32.3-2.5
						C2973.4,965.8,2964.3,973.9,2960.8,982.8z"/>
					<path fill="#AF9BE2" d="M2949.9,1017.4c8,5.2,20.1,6.4,32.3,2.5c12.2-3.9,21.3-12.1,24.8-21c-8-5.2-20.1-6.4-32.3-2.5
						C2962.4,1000.4,2953.3,1008.5,2949.9,1017.4z"/>
					<path fill="#AF9BE2" d="M2937.4,1058.7c8,5.2,20.1,6.4,32.3,2.5c12.2-3.9,21.3-12.1,24.8-21c-8-5.2-20.1-6.4-32.3-2.5
						C2950,1041.7,2940.8,1049.9,2937.4,1058.7z"/>
					<path fill="#AF9BE2" d="M2929,1097.2c8,5.2,20.1,6.4,32.3,2.5c12.2-3.9,21.3-12.1,24.8-21c-8-5.2-20.1-6.4-32.3-2.5
						C2941.6,1080.2,2932.5,1088.3,2929,1097.2z"/>
					<path fill="#AF9BE2" d="M2932.5,1089.4c-8,5.2-20.1,6.4-32.3,2.5c-12.2-3.9-21.3-12.1-24.8-21c8-5.2,20.1-6.4,32.3-2.5
						C2920,1072.4,2929.1,1080.6,2932.5,1089.4z"/>
					<path fill="#AF9BE2" d="M2907.8,970.4c-1.3,9.4,2.8,21,11.5,30.3c8.8,9.4,20,14.1,29.5,13.5c1.3-9.4-2.8-21-11.5-30.3
						C2928.5,974.5,2917.3,969.7,2907.8,970.4z"/>
					<path fill="#AF9BE2" d="M2895,1012c-1.3,9.4,2.8,21,11.5,30.3c8.8,9.4,20,14.1,29.5,13.5c1.3-9.4-2.8-21-11.5-30.3
						C2915.7,1016.1,2904.4,1011.3,2895,1012z"/>
					<g>
						<path fill="#AF9BE2" d="M3147.5,1047.3c-16,8.8-30.9,19.2-45.4,30.1c-14.5,11-28.3,22.8-41.6,35.3
							c-13.2,12.5-25.8,25.7-37.7,39.4c-11.9,13.8-23,28.3-33.4,43.2c-20.8,29.9-38.1,62.3-52.1,96c-13.6,33.9-23.8,69.2-30.2,105.2
							l7.7,1.3c5.8-35.6,15.2-70.5,28.1-104.2c13.3-33.5,29.9-65.8,50.1-95.8c10.1-15,20.9-29.5,32.4-43.4
							c11.6-13.9,23.9-27.1,36.9-39.8c13-12.6,26.6-24.6,40.8-35.8c14.3-11.1,29.1-21.7,44.8-30.7L3147.5,1047.3z"/>
						<path fill="#AF9BE2" d="M3206.4,1006.2c-0.9,12.1-8.9,25.6-22.3,35c-13.4,9.4-28.8,12.5-40.5,9.2c0.9-12.1,8.9-25.5,22.3-35
							C3179.3,1006,3194.7,1002.9,3206.4,1006.2z"/>
						<path fill="#AF9BE2" d="M3116,996c9,8.2,14.5,22.9,13.5,39.2c-0.9,16.4-8.1,30.3-17.9,37.4c-9-8.2-14.5-22.9-13.5-39.3
							C3099,1017,3106.1,1003.1,3116,996z"/>
						<path fill="#AF9BE2" d="M3062.6,1022.7c10.8,5.5,20,18.2,23.5,34.2c3.5,16,0.3,31.4-7.3,40.9c-10.8-5.5-20-18.2-23.5-34.2
							C3051.8,1047.6,3055,1032.2,3062.6,1022.7z"/>
						<path fill="#AF9BE2" d="M3026.6,1055.9c10.8,5.5,20,18.2,23.5,34.2c3.5,16,0.3,31.4-7.3,40.9c-10.8-5.5-20-18.2-23.5-34.2
							C3015.8,1080.7,3019,1065.3,3026.6,1055.9z"/>
						<path fill="#AF9BE2" d="M2985.2,1089.9c11.9,2.6,24,12.5,31.5,27.1c7.4,14.6,8.3,30.3,3.4,41.4c-11.9-2.6-24-12.4-31.5-27.1
							C2981.1,1116.7,2980.3,1101,2985.2,1089.9z"/>
						<path fill="#AF9BE2" d="M2956,1132.5c10.8-0.5,23.6,5.3,33.3,16.3c9.7,11,14,24.3,12.2,35c-10.8,0.5-23.6-5.3-33.3-16.3
							C2958.5,1156.6,2954.3,1143.2,2956,1132.5z"/>
						<path fill="#AF9BE2" d="M2934.8,1159.3c10.8-0.5,23.6,5.3,33.3,16.3c9.7,11,14,24.3,12.2,35c-10.8,0.5-23.6-5.3-33.3-16.3
							C2937.3,1183.4,2933.1,1170,2934.8,1159.3z"/>
						<path fill="#AF9BE2" d="M2922.7,1198.8c9.3-0.4,20.2,4.6,28.5,14c8.3,9.4,12,20.8,10.5,30c-9.3,0.4-20.2-4.6-28.5-14
							C2924.9,1219.4,2921.2,1208,2922.7,1198.8z"/>
						<path fill="#AF9BE2" d="M2911,1240.1c6.8-3.8,16.8-4.3,26.7-0.5c9.9,3.8,17,10.9,19.4,18.3c-6.8,3.8-16.8,4.3-26.7,0.5
							C2920.6,1254.5,2913.4,1247.4,2911,1240.1z"/>
						<path fill="#AF9BE2" d="M2906.3,1274c4.2-4.6,11.7-7.5,20.1-7.2c8.5,0.4,15.7,3.9,19.4,8.9c-4.2,4.6-11.7,7.5-20.1,7.2
							C2917.2,1282.6,2910,1279,2906.3,1274z"/>
						<path fill="#AF9BE2" d="M3184.1,1096.5c-10.3,6.4-25.9,7.7-41.5,2.3c-15.5-5.4-27-16-31.1-27.5c10.3-6.4,25.9-7.7,41.5-2.3
							C3168.5,1074.4,3179.9,1085.1,3184.1,1096.5z"/>
						<path fill="#AF9BE2" d="M3151.3,1123.4c-10.3,6.4-25.9,7.7-41.5,2.3c-15.5-5.4-27-16-31.1-27.5c10.3-6.4,25.9-7.7,41.5-2.3
							C3135.7,1101.4,3147.1,1112,3151.3,1123.4z"/>
						<path fill="#AF9BE2" d="M3116.4,1156.7c-10.3,6.4-25.9,7.7-41.5,2.3c-15.5-5.4-27-16-31.1-27.5c10.3-6.4,25.9-7.7,41.5-2.3
							C3100.8,1134.6,3112.2,1145.3,3116.4,1156.7z"/>
						<path fill="#AF9BE2" d="M3077,1178.8c-8.4,5.2-21.1,6.3-33.7,1.9c-12.6-4.4-21.9-13-25.3-22.3c8.4-5.2,21.1-6.3,33.7-1.9
							C3064.2,1160.8,3073.6,1169.5,3077,1178.8z"/>
						<path fill="#AF9BE2" d="M3047.4,1199.9c-6.9,4.4-17.2,5.5-27.4,1.9c-10.2-3.5-17.7-10.7-20.3-18.4c6.9-4.4,17.2-5.5,27.4-1.9
							C3037.3,1185,3044.8,1192.2,3047.4,1199.9z"/>
						<path fill="#AF9BE2" d="M3029.8,1227.1c-6.9,4.4-17.2,5.5-27.4,1.9c-10.2-3.5-17.7-10.7-20.3-18.4c6.9-4.4,17.2-5.5,27.4-1.9
							C3019.7,1212.2,3027.1,1219.4,3029.8,1227.1z"/>
						<path fill="#AF9BE2" d="M3010.5,1251.7c-5.6,4.7-14.9,7-24.9,5.4c-10-1.6-18.1-6.7-21.9-13c5.6-4.7,14.9-7,24.9-5.4
							C2998.5,1240.3,3006.7,1245.4,3010.5,1251.7z"/>
						<path fill="#AF9BE2" d="M2991.8,1282.6c-6.3,1.8-14.6,0.2-22-4.9c-7.4-5-11.9-12.2-12.5-18.7c6.3-1.8,14.6-0.2,22,4.9
							C2986.6,1269,2991.2,1276.2,2991.8,1282.6z"/>
						<path fill="#AF9BE2" d="M2971,1301.1c-5,0.4-11-1.9-15.8-6.8c-4.8-4.8-7.2-10.9-6.8-15.8c5-0.5,11,1.9,15.8,6.8
							C2969,1290.1,2971.4,1296.2,2971,1301.1z"/>
						<path fill="#AF9BE2" d="M2957.2,1306c-3.3,0.5-7.1-0.8-10.1-3.8s-4.3-6.8-3.8-10.1c3.3-0.5,7.1,0.8,10.1,3.8
							C2956.4,1298.9,2957.7,1302.7,2957.2,1306z"/>
						<path fill="#AF9BE2" d="M2952.7,1315.1c-3.3,0.5-7.1-0.8-10.1-3.8c-3-3-4.3-6.8-3.8-10.1c3.3-0.5,7.1,0.8,10.1,3.8
							C2951.9,1308,2953.2,1311.9,2952.7,1315.1z"/>
					</g>
					<g>
						<path fill="#CFC3EE" d="M2792.7,1016.7c11.4,12.5,21.4,26.1,30.9,40c9.5,14,18.1,28.5,26,43.4c7.9,14.9,15,30.2,21.4,45.9
							c6.3,15.7,11.7,31.7,16.4,47.9c9.3,32.5,14.9,66.1,17.1,99.9c1.9,33.8,0.2,67.8-4.9,101.4l-7.2-1.2c5.5-33,7.7-66.5,6.3-99.9
							c-1.7-33.4-6.7-66.7-15.4-99c-4.4-16.2-9.5-32.1-15.5-47.8c-6.1-15.6-12.9-31-20.5-45.9c-7.6-14.9-16-29.5-25.2-43.6
							c-9.2-14-19.1-27.7-30.2-40.3L2792.7,1016.7z"/>
						<path fill="#CFC3EE" d="M2753.2,963c-2.9,10.9,0.2,25.1,9.2,37.4c9,12.3,21.6,19.6,32.8,20.2c2.9-10.9-0.2-25.1-9.2-37.4
							C2777.1,970.9,2764.5,963.6,2753.2,963z"/>
						<path fill="#CFC3EE" d="M2835.7,981c-10.3,4.5-19.5,15.8-23.6,30.4c-4.1,14.7-1.9,29,4.6,38.2c10.3-4.5,19.5-15.8,23.6-30.4
							C2844.4,1004.5,2842.2,990.1,2835.7,981z"/>
						<path fill="#CFC3EE" d="M2874.6,1020.4c-11.2,1.6-23,10-30.8,23.1c-7.8,13.1-9.6,27.5-5.8,38.1c11.1-1.6,23-10,30.8-23.1
							C2876.7,1045.4,2878.4,1031,2874.6,1020.4z"/>
						<path fill="#CFC3EE" d="M2896.3,1060.2c-11.2,1.6-23,10-30.8,23.1c-7.8,13.1-9.6,27.5-5.8,38.1c11.2-1.6,23-10,30.8-23.1
							C2898.4,1085.2,2900.2,1070.8,2896.3,1060.2z"/>
						<path fill="#CFC3EE" d="M2922.6,1102.5c-11.2-1.3-24.8,3.8-35.7,14.4c-10.9,10.6-16.3,24.1-15.3,35.3
							c11.2,1.3,24.8-3.8,35.7-14.4C2918.2,1127.2,2923.6,1113.7,2922.6,1102.5z"/>
						<path fill="#CFC3EE" d="M2935.5,1148.6c-9.4-3.6-22.3-2.3-34.1,4.4c-11.8,6.7-19.5,17.2-21.2,27.1c9.4,3.6,22.3,2.3,34.1-4.4
							C2926.1,1169,2933.9,1158.5,2935.5,1148.6z"/>
						<path fill="#CFC3EE" d="M2946.1,1178.5c-9.4-3.6-22.3-2.3-34.1,4.4c-11.8,6.7-19.5,17.2-21.2,27.1c9.4,3.6,22.3,2.3,34.1-4.4
							C2936.8,1198.8,2944.5,1188.4,2946.1,1178.5z"/>
						<path fill="#CFC3EE" d="M2945,1216.8c-8-3.1-19.1-2-29.2,3.8c-10.1,5.8-16.7,14.7-18.2,23.2c8,3.1,19.1,2,29.2-3.8
							C2936.9,1234.2,2943.5,1225.3,2945,1216.8z"/>
						<path fill="#CFC3EE" d="M2943,1256.5c-4.8-5.4-13.5-8.8-23.3-8.4c-9.8,0.4-18.2,4.5-22.5,10.2c4.8,5.4,13.5,8.8,23.3,8.4
							C2930.3,1266.3,2938.6,1262.2,2943,1256.5z"/>
						<path fill="#CFC3EE" d="M2937,1287.7c-2.3-5.3-8-10.1-15.5-12.3c-7.5-2.2-14.9-1.2-19.7,2c2.3,5.3,8,10.1,15.5,12.3
							C2924.8,1292,2932.3,1291,2937,1287.7z"/>
						<path fill="#CFC3EE" d="M2745.9,1049c7.2,8.7,20.5,14.5,35.7,14.4c15.2-0.1,28.5-6,35.5-14.8c-7.2-8.7-20.5-14.5-35.7-14.4
							C2766.2,1034.2,2753,1040.2,2745.9,1049z"/>
						<path fill="#CFC3EE" d="M2766.7,1082.4c7.2,8.7,20.5,14.5,35.7,14.4c15.2-0.1,28.5-6,35.5-14.8c-7.2-8.7-20.5-14.5-35.7-14.4
							C2787,1067.7,2773.7,1073.6,2766.7,1082.4z"/>
						<path fill="#CFC3EE" d="M2787.4,1122c7.2,8.7,20.5,14.5,35.7,14.4c15.2-0.1,28.5-6,35.5-14.8c-7.2-8.7-20.5-14.5-35.7-14.4
							S2794.5,1113.2,2787.4,1122z"/>
						<path fill="#CFC3EE" d="M2815.5,1153.2c5.8,7.1,16.7,11.8,29,11.7c12.4-0.1,23.2-4.9,28.9-12.1c-5.8-7.1-16.7-11.8-29-11.7
							C2832,1141.2,2821.2,1146.1,2815.5,1153.2z"/>
						<path fill="#CFC3EE" d="M2835.1,1180.6c4.7,5.9,13.5,9.9,23.5,9.9c10-0.1,18.7-4.1,23.4-10.1c-4.7-5.9-13.5-9.9-23.5-9.9
							C2848.4,1170.5,2839.7,1174.6,2835.1,1180.6z"/>
						<path fill="#CFC3EE" d="M2842.5,1209.7c4.7,5.9,13.5,9.9,23.5,9.9c10-0.1,18.7-4.1,23.4-10.1c-4.7-5.9-13.5-9.9-23.5-9.9
							C2855.8,1199.6,2847.1,1203.7,2842.5,1209.7z"/>
						<path fill="#CFC3EE" d="M2852.1,1237c3.5,5.8,11,10.6,20.3,12.2c9.3,1.6,17.9-0.5,23.1-4.9c-3.5-5.8-11-10.6-20.3-12.2
							C2866,1230.6,2857.3,1232.7,2852.1,1237z"/>
						<path fill="#CFC3EE" d="M2859.3,1269.8c5,3.4,12.8,4.5,20.8,2.3c8-2.2,14.1-7.2,16.6-12.7c-5-3.4-12.8-4.5-20.8-2.3
							C2867.9,1259.3,2861.8,1264.3,2859.3,1269.8z"/>
						<path fill="#CFC3EE" d="M2872.1,1292.3c4.2,1.9,10.2,1.6,15.9-1.2c5.7-2.8,9.6-7.4,10.7-11.9c-4.2-1.9-10.2-1.6-15.9,1.2
							C2877.1,1283.2,2873.2,1287.8,2872.1,1292.3z"/>
						<path fill="#CFC3EE" d="M2882.8,1300.6c2.7,1.4,6.5,1.4,10-0.3c3.5-1.7,5.8-4.7,6.3-7.7c-2.7-1.4-6.5-1.4-10,0.3
							C2885.6,1294.6,2883.3,1297.6,2882.8,1300.6z"/>
						<path fill="#CFC3EE" d="M2884,1310c2.7,1.4,6.5,1.4,10-0.3s5.8-4.7,6.3-7.7c-2.7-1.4-6.5-1.4-10,0.3
							C2886.8,1304,2884.5,1307,2884,1310z"/>
					</g>
					<g>
						<path fill="#8475AA" d="M3034.1,979.6c-11.6,14-21.7,29.2-31.2,44.7c-9.4,15.5-18,31.6-25.7,48.1
							c-7.7,16.5-14.6,33.3-20.6,50.5c-6,17.2-11,34.7-15.2,52.5c-8.4,35.5-12.6,71.9-13.2,108.4c-0.3,36.5,3.3,73.1,10.6,108.9
							l7.7-1.6c-7.7-35.2-11.8-71.2-12.1-107.2c0-36.1,3.7-72.2,11.4-107.5c3.9-17.6,8.6-35.1,14.2-52.3c5.7-17.2,12.3-34,19.7-50.5
							c7.4-16.5,15.7-32.6,24.8-48.3c9.2-15.6,19.1-30.9,30.4-45L3034.1,979.6z"/>
						<path fill="#8475AA" d="M3073.8,919.8c3.7,11.6,1.1,27-7.9,40.8c-9,13.7-22.2,22.2-34.3,23.4c-3.7-11.6-1.1-27,7.9-40.8
							C3048.6,929.5,3061.7,921,3073.8,919.8z"/>
						<path fill="#8475AA" d="M2986,943.4c11.4,4.3,21.9,16,27,31.5c5.1,15.6,3.6,31.2-2.9,41.4c-11.3-4.3-21.9-16-27-31.5
							C2977.9,969.2,2979.4,953.6,2986,943.4z"/>
						<path fill="#8475AA" d="M2946.1,987.9c12.1,1.2,25.3,9.6,34.4,23.2c9.1,13.7,11.8,29.1,8.2,40.7c-12.1-1.2-25.3-9.6-34.4-23.2
							C2945.2,1014.9,2942.6,999.5,2946.1,987.9z"/>
						<path fill="#8475AA" d="M2924.8,1031.9c12.1,1.2,25.3,9.6,34.4,23.2c9.1,13.7,11.8,29.1,8.2,40.7
							c-12.1-1.2-25.3-9.6-34.4-23.2C2923.9,1059,2921.2,1043.5,2924.8,1031.9z"/>
						<path fill="#8475AA" d="M2898.8,1078.8c12-2,26.9,2.8,39.2,13.6c12.3,10.9,18.8,25.1,18.3,37.3c-12,2-26.9-2.8-39.2-13.6
							C2904.8,1105.2,2898.3,1090.9,2898.8,1078.8z"/>
						<path fill="#8475AA" d="M2887.3,1129.2c9.9-4.4,23.9-3.7,37,2.9c13.1,6.6,21.9,17.5,24.2,28.1c-9.9,4.4-23.9,3.7-37-2.9
							C2898.4,1150.6,2889.6,1139.8,2887.3,1129.2z"/>
						<path fill="#8475AA" d="M2877.4,1161.9c9.9-4.4,23.9-3.7,37,2.9c13.1,6.6,21.9,17.5,24.2,28.1c-9.9,4.4-23.9,3.7-37-2.9
							C2888.6,1183.3,2879.7,1172.5,2877.4,1161.9z"/>
						<path fill="#8475AA" d="M2880.7,1203.1c8.5-3.8,20.5-3.2,31.7,2.5c11.2,5.7,18.8,15,20.8,24.1c-8.5,3.8-20.5,3.2-31.7-2.5
							C2890.2,1221.4,2882.6,1212.2,2880.7,1203.1z"/>
						<path fill="#8475AA" d="M2884.9,1245.7c4.9-6,14.1-10.1,24.6-10.2c10.6-0.1,19.8,3.9,24.8,9.8c-4.9,6-14.1,10.1-24.6,10.2
							C2899.1,1255.6,2889.9,1251.7,2884.9,1245.7z"/>
						<path fill="#8475AA" d="M2892.9,1279.1c2.2-5.8,8.1-11.3,16.1-14.1c8-2.8,16-2.1,21.3,1.1c-2.2,5.8-8.1,11.3-16.1,14.1
							C2906.3,1283,2898.2,1282.3,2892.9,1279.1z"/>
						<path fill="#8475AA" d="M3086.2,1011.9c-7.3,9.7-21.3,16.7-37.7,17.4c-16.4,0.7-31-5-39.1-14.1c7.3-9.7,21.3-16.7,37.7-17.4
							C3063.5,997.1,3078.1,1002.8,3086.2,1011.9z"/>
						<path fill="#8475AA" d="M3065.6,1049c-7.3,9.7-21.3,16.7-37.7,17.4c-16.4,0.7-31-5-39-14.1c7.3-9.7,21.3-16.7,37.7-17.4
							C3043,1034.2,3057.5,1039.9,3065.6,1049z"/>
						<path fill="#8475AA" d="M3045.3,1092.8c-7.3,9.7-21.3,16.7-37.7,17.4c-16.4,0.7-31-5-39-14.1c7.3-9.7,21.3-16.7,37.7-17.4
							C3022.7,1078,3037.3,1083.7,3045.3,1092.8z"/>
						<path fill="#8475AA" d="M3016.8,1127.8c-5.9,7.9-17.3,13.6-30.7,14.1c-13.3,0.6-25.2-4.1-31.8-11.5
							c5.9-7.9,17.3-13.6,30.7-14.1C2998.4,1115.8,3010.2,1120.4,3016.8,1127.8z"/>
						<path fill="#8475AA" d="M2997.1,1158.3c-4.8,6.7-14,11.4-24.8,11.8c-10.8,0.5-20.4-3.5-25.7-9.7c4.8-6.7,14-11.4,24.7-11.8
							C2982.2,1148.2,2991.8,1152.1,2997.1,1158.3z"/>
						<path fill="#8475AA" d="M2990.6,1190c-4.8,6.7-14,11.4-24.8,11.8c-10.8,0.5-20.4-3.5-25.7-9.7c4.8-6.7,14-11.4,24.7-11.8
							C2975.7,1179.9,2985.3,1183.8,2990.6,1190z"/>
						<path fill="#8475AA" d="M2981.7,1220c-3.4,6.5-11.3,12-21.2,14.2c-9.9,2.2-19.3,0.4-25.2-4c3.4-6.5,11.3-12,21.2-14.2
							C2966.4,1213.8,2975.9,1215.6,2981.7,1220z"/>
						<path fill="#8475AA" d="M2975.7,1255.7c-5.2,4-13.5,5.5-22.2,3.5c-8.7-2-15.6-7-18.5-12.8c5.2-4,13.5-5.5,22.2-3.5
							C2965.8,1244.9,2972.7,1249.9,2975.7,1255.7z"/>
						<path fill="#8475AA" d="M2963.1,1280.5c-4.5,2.2-11,2.2-17.2-0.5c-6.3-2.7-10.7-7.5-12.1-12.2c4.5-2.2,10.9-2.2,17.2,0.5
							C2957.2,1271,2961.7,1275.7,2963.1,1280.5z"/>
						<path fill="#8475AA" d="M2952,1290.1c-2.8,1.7-6.9,1.9-10.7,0.2c-3.8-1.7-6.5-4.8-7.2-8c2.9-1.7,6.9-1.9,10.7-0.2
							C2948.7,1283.8,2951.3,1286.9,2952,1290.1z"/>
						<path fill="#8475AA" d="M2951.2,1300.2c-2.8,1.7-6.9,1.9-10.7,0.2c-3.8-1.7-6.5-4.8-7.2-8c2.9-1.7,6.9-1.9,10.7-0.2
							C2947.9,1293.9,2950.5,1297,2951.2,1300.2z"/>
					</g>
					<g>
						<path fill="#AF9BE2" d="M2865.4,1272.2c-17.2-25.1-35.2-49.7-54.5-73.3l0.3-0.3c19.8,23.2,38.3,47.4,56,72.2
							c17.7,24.9,34.3,50.5,49.3,77.1c3.6,6.5,7.1,13,10.5,19.6c-1.3,0.7-2.7,1.5-4,2.3c-3.3-6.7-6.7-13.3-10.2-19.9
							C2898.6,1323.3,2882.5,1297.4,2865.4,1272.2z"/>
						<path fill="#AF9BE2" d="M2792,1166.9c6.3,0.6,12.9,4.8,17,11.7c4.1,6.9,4.8,14.7,2.3,20.5c-6.3-0.6-12.9-4.8-17-11.7
							C2790.2,1180.5,2789.5,1172.8,2792,1166.9z"/>
						<path fill="#AF9BE2" d="M2839,1181.6c2.6,5,2.7,12.6-0.2,20.1c-2.9,7.5-8.1,13-13.4,15c-2.6-5-2.7-12.6,0.2-20.1
							C2828.5,1189.1,2833.7,1183.6,2839,1181.6z"/>
						<path fill="#AF9BE2" d="M2840.6,1236.9c-4.3,3.7-11.6,5.5-19.6,4.4c-8-1.1-14.5-4.9-17.6-9.6c4.3-3.7,11.6-5.5,19.6-4.4
							C2830.9,1228.4,2837.4,1232.2,2840.6,1236.9z"/>
						<path fill="#AF9BE2" d="M2859.6,1261.4c-4.3,3.7-11.6,5.5-19.6,4.4c-8-1.1-14.5-4.9-17.6-9.6c4.3-3.7,11.6-5.5,19.6-4.4
							C2849.9,1252.9,2856.4,1256.7,2859.6,1261.4z"/>
						<path fill="#AF9BE2" d="M2872.4,1280.9c-4.3,3.7-11.6,5.5-19.6,4.4c-8-1.1-14.5-4.9-17.6-9.6c4.3-3.7,11.6-5.5,19.6-4.4
							C2862.8,1272.4,2869.3,1276.2,2872.4,1280.9z"/>
						<path fill="#AF9BE2" d="M2886.7,1302.4c-4.3,3.7-11.6,5.5-19.6,4.4c-8-1.1-14.5-4.9-17.6-9.6c4.3-3.7,11.6-5.5,19.6-4.4
							C2877.1,1294,2883.6,1297.8,2886.7,1302.4z"/>
						<path fill="#AF9BE2" d="M2855.5,1202.6c2.6,5,2.7,12.6-0.2,20.1c-2.9,7.5-8.1,13-13.4,15c-2.6-5-2.7-12.6,0.2-20.1
							C2845,1210.1,2850.2,1204.6,2855.5,1202.6z"/>
						<path fill="#AF9BE2" d="M2871.3,1224.2c2.6,5,2.7,12.6-0.2,20.1c-2.9,7.5-8.1,13-13.4,15c-2.6-5-2.7-12.6,0.2-20.1
							C2860.8,1231.7,2866,1226.2,2871.3,1224.2z"/>
						<path fill="#AF9BE2" d="M2886.3,1246.1c2.6,5,2.7,12.6-0.2,20.1c-2.9,7.5-8.1,13-13.4,15c-2.6-5-2.7-12.6,0.2-20.1
							C2875.9,1253.5,2881,1248,2886.3,1246.1z"/>
						<path fill="#AF9BE2" d="M2900.9,1267.4c2.6,5,2.7,12.6-0.2,20.1c-2.9,7.5-8.1,13-13.4,15c-2.6-5-2.7-12.6,0.2-20.1
							C2890.4,1274.9,2895.6,1269.4,2900.9,1267.4z"/>
					</g>
				</g>
			</g>
			<linearGradient id="SVGID_3_" gradientUnits="userSpaceOnUse" x1="2823.1318" y1="1370.8364" x2="2998.8438" y2="1370.8364">
				<stop  offset="0" style="stop-color:#F24949"/>
				<stop  offset="1" style="stop-color:#FFC16F"/>
			</linearGradient>
			<path fill="url(#SVGID_3_)" d="M2854.1,1329.8h113.9c18.9,9.7,30.9,24,30.9,40.1c0,17.2-13.7,32.4-34.8,42h-106
				c-21.2-9.6-34.8-24.8-34.8-42C2823.1,1353.8,2835.1,1339.4,2854.1,1329.8z"/>
			<path fill="#F8F0A1" d="M2864.8,1338.8c-11.2-1.3-26.3,7.2-30.1,24.2c-5.3,33.6,28.3,43.4,46.7,34.9c-16-4-33.5-11.3-34-27.9
				c-0.9-8.7,4.3-17,4.3-17.2c0.7-1,2.2-3.5,4.8-6.5C2858.8,1343.5,2861.7,1341.1,2864.8,1338.8z"/>
			<rect x="2848.7" y="1324.9" fill="#6B9FC5" width="125.8" height="7.9"/>
		</g>
		<g>
			<g>
				<path fill="#AF9BE2" d="M1564.3,1196.4c-3.9,4.1-11,6.7-19,6.4c-8-0.3-14.9-3.4-18.5-7.7c3.9-4.1,11-6.7,19-6.4
					C1553.8,1188.9,1560.7,1192,1564.3,1196.4z"/>
				<g>
					<path fill="#AF9BE2" d="M1651.4,1364c-5.3-36.5-7.8-73.4-7.2-110.3c0.2-18.4,1.2-36.8,2.6-55.2c1.4-18.3,3.6-36.6,6.2-54.8
						c5.2-36.4,12.6-72.5,21.7-108.1c4.6-17.8,9.7-35.5,15.2-53c5.6-17.5,11.5-34.9,18.4-52l2.2,0.9c-6.6,17-12.3,34.5-17.7,52
						c-5.3,17.5-10.1,35.2-14.5,53c-8.7,35.6-15.6,71.6-20.3,107.9c-2.3,18.1-4.3,36.3-5.5,54.6c-1.2,18.2-2,36.5-1.9,54.8
						c-0.2,36.5,2.7,73,8.5,109L1651.4,1364z"/>
					<path fill="#AF9BE2" d="M1719.1,857.5c-10.4,6.3-18.7,19.6-21,35.8c-2.3,16.3,2,31.3,10.2,40.2c10.4-6.3,18.7-19.6,21-35.8
						C1731.6,881.5,1727.4,866.4,1719.1,857.5z"/>
					<path fill="#AF9BE2" d="M1657.8,913.5c-1.3,9.4,2.8,21,11.5,30.3c8.8,9.4,20,14.1,29.5,13.5c1.3-9.4-2.8-21-11.5-30.3
						C1678.5,917.7,1667.3,912.9,1657.8,913.5z"/>
					<path fill="#AF9BE2" d="M1699.7,960.4c8,5.2,20.1,6.4,32.3,2.5c12.2-4,21.3-12.1,24.8-21c-8-5.2-20.1-6.4-32.3-2.5
						C1712.2,943.4,1703.1,951.6,1699.7,960.4z"/>
					<path fill="#AF9BE2" d="M1688.7,997.2c8,5.2,20.1,6.4,32.3,2.5c12.2-4,21.3-12.1,24.8-21c-8-5.2-20.1-6.4-32.3-2.5
						C1701.2,980.2,1692.1,988.3,1688.7,997.2z"/>
					<path fill="#AF9BE2" d="M1676.2,1038.5c8,5.2,20.1,6.4,32.3,2.5c12.2-4,21.3-12.1,24.8-21c-8-5.2-20.1-6.4-32.3-2.5
						C1688.8,1021.5,1679.7,1029.7,1676.2,1038.5z"/>
					<path fill="#AF9BE2" d="M1667.9,1077c8,5.2,20.1,6.4,32.3,2.5c12.2-4,21.3-12.1,24.8-21c-8-5.2-20.1-6.4-32.3-2.5
						C1680.4,1060,1671.3,1068.1,1667.9,1077z"/>
					<path fill="#AF9BE2" d="M1671.3,1069.2c-8,5.2-20.1,6.4-32.3,2.5c-12.2-4-21.3-12.1-24.8-21c8-5.2,20.1-6.4,32.3-2.5
						C1658.8,1052.2,1667.9,1060.3,1671.3,1069.2z"/>
					<path fill="#AF9BE2" d="M1646.6,950.1c-1.3,9.4,2.8,21,11.5,30.3c8.8,9.4,20,14.1,29.5,13.5c1.3-9.4-2.8-21-11.5-30.3
						C1667.3,954.3,1656.1,949.5,1646.6,950.1z"/>
					<path fill="#AF9BE2" d="M1633.8,991.7c-1.3,9.4,2.8,21,11.5,30.3c8.8,9.4,20,14.1,29.5,13.5c1.3-9.4-2.8-21-11.5-30.3
						C1654.5,995.9,1643.3,991.1,1633.8,991.7z"/>
					<g>
						<path fill="#AF9BE2" d="M1886.3,1027.1c-16,8.8-30.9,19.2-45.4,30.1c-14.5,11-28.3,22.8-41.6,35.3
							c-13.2,12.5-25.8,25.7-37.7,39.4c-11.9,13.8-23,28.3-33.4,43.2c-20.8,29.9-38.1,62.3-52.1,96c-13.6,33.9-23.8,69.2-30.2,105.2
							l7.7,1.3c5.8-35.6,15.2-70.5,28.1-104.2c13.3-33.5,29.9-65.8,50.1-95.8c10.1-15,20.9-29.5,32.4-43.4
							c11.6-13.9,23.9-27.1,36.9-39.8c13-12.6,26.6-24.6,40.8-35.8c14.3-11.1,29.1-21.7,44.8-30.7L1886.3,1027.1z"/>
						<path fill="#AF9BE2" d="M1945.2,986c-0.9,12.1-8.9,25.5-22.3,35c-13.4,9.4-28.8,12.5-40.5,9.2c0.9-12.1,8.9-25.5,22.3-35
							C1918.2,985.8,1933.5,982.7,1945.2,986z"/>
						<path fill="#AF9BE2" d="M1854.8,975.7c9,8.2,14.5,22.9,13.5,39.3c-0.9,16.4-8.1,30.3-17.9,37.4c-9-8.2-14.5-22.9-13.5-39.3
							C1837.8,996.8,1845,982.9,1854.8,975.7z"/>
						<path fill="#AF9BE2" d="M1801.4,1002.5c10.8,5.5,20,18.2,23.5,34.2c3.5,16,0.3,31.4-7.3,40.9c-10.8-5.5-20-18.2-23.5-34.2
							C1790.7,1027.3,1793.9,1012,1801.4,1002.5z"/>
						<path fill="#AF9BE2" d="M1765.4,1035.7c10.8,5.5,20,18.2,23.5,34.2c3.5,16.1,0.3,31.4-7.3,40.9c-10.8-5.5-20-18.2-23.5-34.2
							C1754.7,1060.5,1757.9,1045.1,1765.4,1035.7z"/>
						<path fill="#AF9BE2" d="M1724,1069.7c11.9,2.6,24,12.4,31.5,27.1c7.4,14.6,8.3,30.3,3.4,41.4c-11.9-2.6-24-12.5-31.5-27.1
							C1719.9,1096.4,1719.1,1080.8,1724,1069.7z"/>
						<path fill="#AF9BE2" d="M1694.8,1112.3c10.8-0.5,23.6,5.3,33.3,16.3c9.7,11,14,24.3,12.2,35c-10.8,0.5-23.6-5.3-33.3-16.3
							C1697.3,1136.3,1693.1,1123,1694.8,1112.3z"/>
						<path fill="#AF9BE2" d="M1673.6,1139.1c10.8-0.5,23.6,5.3,33.3,16.3c9.7,11,14,24.3,12.2,35c-10.8,0.5-23.6-5.3-33.3-16.3
							C1676.1,1163.1,1671.9,1149.8,1673.6,1139.1z"/>
						<path fill="#AF9BE2" d="M1661.5,1178.6c9.3-0.4,20.2,4.6,28.5,14c8.3,9.4,12,20.8,10.5,30c-9.3,0.4-20.2-4.6-28.5-14
							C1663.7,1199.2,1660,1187.8,1661.5,1178.6z"/>
						<path fill="#AF9BE2" d="M1649.8,1219.8c6.8-3.8,16.8-4.3,26.7-0.5c9.9,3.8,17,10.9,19.4,18.3c-6.8,3.8-16.8,4.3-26.7,0.5
							C1659.4,1234.3,1652.3,1227.2,1649.8,1219.8z"/>
						<path fill="#AF9BE2" d="M1645.1,1253.8c4.2-4.6,11.7-7.5,20.1-7.2c8.5,0.4,15.7,3.9,19.4,8.9c-4.2,4.6-11.7,7.5-20.1,7.2
							C1656,1262.3,1648.8,1258.8,1645.1,1253.8z"/>
						<path fill="#AF9BE2" d="M1922.9,1076.3c-10.3,6.4-25.9,7.7-41.5,2.3s-27-16-31.1-27.5c10.3-6.4,25.9-7.7,41.5-2.3
							C1907.3,1054.2,1918.7,1064.8,1922.9,1076.3z"/>
						<path fill="#AF9BE2" d="M1890.1,1103.2c-10.3,6.4-25.9,7.7-41.5,2.3c-15.5-5.4-27-16-31.1-27.5c10.3-6.4,25.9-7.7,41.5-2.3
							C1874.5,1081.1,1886,1091.8,1890.1,1103.2z"/>
						<path fill="#AF9BE2" d="M1855.2,1136.5c-10.3,6.4-25.9,7.7-41.5,2.3c-15.5-5.4-27-16-31.1-27.5c10.3-6.4,25.9-7.7,41.5-2.3
							C1839.6,1114.4,1851,1125.1,1855.2,1136.5z"/>
						<path fill="#AF9BE2" d="M1815.8,1158.6c-8.4,5.2-21.1,6.3-33.7,1.9c-12.6-4.4-21.9-13-25.3-22.3c8.4-5.2,21.1-6.3,33.7-1.9
							C1803.1,1140.6,1812.4,1149.3,1815.8,1158.6z"/>
						<path fill="#AF9BE2" d="M1786.3,1179.7c-6.9,4.4-17.2,5.5-27.4,1.9c-10.2-3.5-17.7-10.7-20.3-18.4c6.9-4.4,17.2-5.5,27.4-1.9
							C1776.1,1164.8,1783.6,1172,1786.3,1179.7z"/>
						<path fill="#AF9BE2" d="M1768.6,1206.9c-6.9,4.4-17.2,5.5-27.4,1.9c-10.2-3.5-17.7-10.7-20.3-18.4c6.9-4.4,17.2-5.5,27.4-1.9
							C1758.5,1192,1766,1199.2,1768.6,1206.9z"/>
						<path fill="#AF9BE2" d="M1749.3,1231.5c-5.6,4.7-14.9,7-24.9,5.4c-10-1.6-18.1-6.7-21.9-13c5.6-4.7,14.9-7,24.9-5.4
							C1737.4,1220.1,1745.5,1225.2,1749.3,1231.5z"/>
						<path fill="#AF9BE2" d="M1730.6,1262.4c-6.3,1.8-14.6,0.2-22-4.9c-7.4-5-11.9-12.2-12.5-18.7c6.3-1.8,14.6-0.2,22,4.9
							C1725.4,1248.8,1730,1255.9,1730.6,1262.4z"/>
						<path fill="#AF9BE2" d="M1709.8,1280.9c-5,0.5-11-1.9-15.8-6.8c-4.8-4.8-7.2-10.9-6.8-15.8c5-0.5,11,1.9,15.8,6.8
							C1707.9,1269.9,1710.2,1276,1709.8,1280.9z"/>
						<path fill="#AF9BE2" d="M1696,1285.8c-3.3,0.5-7.1-0.8-10.1-3.8c-2.9-3-4.3-6.8-3.8-10.1c3.3-0.5,7.1,0.8,10.1,3.8
							S1696.5,1282.5,1696,1285.8z"/>
						<path fill="#AF9BE2" d="M1691.5,1294.9c-3.3,0.5-7.1-0.8-10.1-3.8c-3-3-4.3-6.8-3.8-10.1c3.3-0.5,7.1,0.8,10.1,3.8
							C1690.7,1287.8,1692,1291.6,1691.5,1294.9z"/>
					</g>
					<g>
						<path fill="#CFC3EE" d="M1531.5,996.5c11.4,12.5,21.4,26.1,30.9,40c9.4,14,18.1,28.5,26,43.4c7.9,14.9,15,30.2,21.4,45.9
							c6.3,15.7,11.7,31.7,16.4,47.9c9.4,32.5,14.9,66.1,17.1,99.9c1.9,33.8,0.2,67.8-4.9,101.4l-7.2-1.2c5.5-33,7.7-66.5,6.3-99.9
							c-1.7-33.4-6.7-66.7-15.4-99c-4.4-16.2-9.5-32.1-15.5-47.8c-6.1-15.6-12.9-31-20.5-45.9c-7.6-14.9-16-29.5-25.2-43.6
							c-9.2-14-19.1-27.7-30.2-40.3L1531.5,996.5z"/>
						<path fill="#CFC3EE" d="M1492,942.8c-2.9,10.9,0.2,25.1,9.2,37.4c9,12.3,21.6,19.6,32.8,20.2c2.9-10.9-0.2-25.1-9.2-37.4
							C1515.9,950.7,1503.3,943.4,1492,942.8z"/>
						<path fill="#CFC3EE" d="M1574.5,960.7c-10.3,4.5-19.5,15.8-23.6,30.4c-4.1,14.7-1.9,29,4.6,38.2c10.3-4.5,19.5-15.8,23.6-30.4
							C1583.2,984.3,1581,969.9,1574.5,960.7z"/>
						<path fill="#CFC3EE" d="M1613.4,1000.2c-11.2,1.6-23,10-30.8,23.1c-7.8,13.1-9.6,27.5-5.8,38.1c11.2-1.6,23-10,30.8-23.1
							C1615.5,1025.2,1617.2,1010.8,1613.4,1000.2z"/>
						<path fill="#CFC3EE" d="M1635.2,1040c-11.2,1.6-23,10-30.8,23.1s-9.6,27.5-5.8,38.1c11.2-1.6,23-10,30.8-23.1
							C1637.2,1065,1639,1050.6,1635.2,1040z"/>
						<path fill="#CFC3EE" d="M1661.4,1082.3c-11.2-1.3-24.8,3.8-35.7,14.4c-10.9,10.6-16.3,24.1-15.3,35.3
							c11.2,1.3,24.8-3.8,35.7-14.4S1662.4,1093.5,1661.4,1082.3z"/>
						<path fill="#CFC3EE" d="M1674.3,1128.4c-9.4-3.6-22.3-2.3-34.1,4.4c-11.8,6.7-19.5,17.2-21.2,27.1c9.4,3.6,22.3,2.3,34.1-4.4
							C1665,1148.8,1672.7,1138.3,1674.3,1128.4z"/>
						<path fill="#CFC3EE" d="M1684.9,1158.3c-9.4-3.6-22.3-2.3-34.1,4.4c-11.8,6.7-19.5,17.2-21.2,27.1c9.4,3.6,22.3,2.3,34.1-4.4
							C1675.6,1178.6,1683.3,1168.2,1684.9,1158.3z"/>
						<path fill="#CFC3EE" d="M1683.8,1196.6c-8-3.1-19.1-2-29.2,3.8c-10.1,5.8-16.7,14.7-18.2,23.2c8,3.1,19.1,2,29.2-3.8
							C1675.8,1214,1682.4,1205.1,1683.8,1196.6z"/>
						<path fill="#CFC3EE" d="M1681.8,1236.3c-4.8-5.4-13.5-8.8-23.3-8.4c-9.8,0.4-18.2,4.5-22.5,10.2c4.8,5.4,13.5,8.8,23.3,8.4
							C1669.1,1246.1,1677.5,1242,1681.8,1236.3z"/>
						<path fill="#CFC3EE" d="M1675.8,1267.5c-2.3-5.3-8-10.1-15.5-12.3c-7.5-2.2-15-1.2-19.7,2c2.3,5.3,8,10.1,15.5,12.3
							C1663.7,1271.7,1671.1,1270.8,1675.8,1267.5z"/>
						<path fill="#CFC3EE" d="M1484.7,1028.7c7.2,8.7,20.5,14.5,35.7,14.4c15.2-0.1,28.5-6,35.5-14.8c-7.2-8.7-20.5-14.5-35.7-14.4
							C1505.1,1014,1491.8,1020,1484.7,1028.7z"/>
						<path fill="#CFC3EE" d="M1505.5,1062.2c7.2,8.7,20.5,14.5,35.7,14.4c15.2-0.1,28.5-6.1,35.5-14.8
							c-7.2-8.7-20.5-14.5-35.7-14.4C1525.8,1047.5,1512.5,1053.4,1505.5,1062.2z"/>
						<path fill="#CFC3EE" d="M1526.3,1101.8c7.2,8.7,20.5,14.5,35.7,14.4c15.2-0.1,28.5-6.1,35.5-14.8
							c-7.2-8.7-20.5-14.5-35.7-14.4C1546.6,1087.1,1533.3,1093,1526.3,1101.8z"/>
						<path fill="#CFC3EE" d="M1554.3,1133c5.8,7.1,16.7,11.8,29,11.7c12.4-0.1,23.2-4.9,28.9-12.1c-5.8-7.1-16.7-11.8-29-11.7
							C1570.8,1121,1560,1125.9,1554.3,1133z"/>
						<path fill="#CFC3EE" d="M1573.9,1160.4c4.7,5.9,13.5,9.9,23.5,9.9c10-0.1,18.7-4.1,23.3-10.1c-4.7-5.9-13.5-9.9-23.5-9.9
							C1587.3,1150.3,1578.6,1154.4,1573.9,1160.4z"/>
						<path fill="#CFC3EE" d="M1581.3,1189.5c4.7,5.9,13.5,9.9,23.5,9.9c10-0.1,18.7-4.1,23.4-10.1c-4.7-5.9-13.5-9.9-23.5-9.9
							C1594.7,1179.4,1586,1183.5,1581.3,1189.5z"/>
						<path fill="#CFC3EE" d="M1591,1216.8c3.5,5.8,11,10.6,20.3,12.2c9.3,1.6,17.9-0.5,23.1-4.9c-3.5-5.8-11-10.6-20.3-12.2
							C1604.8,1210.4,1596.2,1212.5,1591,1216.8z"/>
						<path fill="#CFC3EE" d="M1598.1,1249.6c5,3.4,12.8,4.5,20.8,2.3c8-2.2,14.1-7.2,16.6-12.7c-5-3.4-12.8-4.5-20.8-2.3
							C1606.7,1239.1,1600.6,1244.1,1598.1,1249.6z"/>
						<path fill="#CFC3EE" d="M1610.9,1272c4.2,1.9,10.2,1.6,15.9-1.2c5.7-2.8,9.6-7.4,10.7-11.9c-4.2-1.9-10.2-1.6-15.9,1.2
							C1615.9,1262.9,1612,1267.5,1610.9,1272z"/>
						<path fill="#CFC3EE" d="M1621.6,1280.4c2.7,1.4,6.5,1.4,10-0.3c3.5-1.7,5.8-4.7,6.3-7.7c-2.7-1.4-6.5-1.4-10,0.3
							C1624.4,1274.4,1622.1,1277.4,1621.6,1280.4z"/>
						<path fill="#CFC3EE" d="M1622.8,1289.8c2.7,1.4,6.5,1.4,10-0.3c3.5-1.7,5.8-4.7,6.3-7.7c-2.7-1.4-6.5-1.4-10,0.3
							C1625.6,1283.8,1623.3,1286.7,1622.8,1289.8z"/>
					</g>
					<g>
						<path fill="#8475AA" d="M1773,959.4c-11.6,14-21.7,29.2-31.2,44.7c-9.4,15.5-18,31.6-25.7,48.1c-7.7,16.5-14.6,33.3-20.6,50.5
							c-6,17.2-11,34.7-15.2,52.5c-8.4,35.5-12.6,71.9-13.2,108.4c-0.3,36.5,3.3,73.1,10.6,108.9l7.7-1.6
							c-7.7-35.2-11.8-71.2-12.1-107.2c0-36.1,3.7-72.2,11.4-107.5c3.9-17.6,8.6-35.1,14.2-52.3c5.7-17.2,12.3-34,19.7-50.5
							c7.4-16.5,15.7-32.7,24.8-48.3c9.2-15.6,19.1-30.9,30.4-45L1773,959.4z"/>
						<path fill="#8475AA" d="M1812.6,899.5c3.7,11.6,1.1,27-7.9,40.8c-9,13.7-22.2,22.2-34.3,23.4c-3.7-11.6-1.1-27,7.9-40.8
							C1787.4,909.3,1800.6,900.8,1812.6,899.5z"/>
						<path fill="#8475AA" d="M1724.8,923.2c11.4,4.3,21.9,16,27,31.5c5.1,15.6,3.6,31.2-2.9,41.4c-11.3-4.3-21.9-16-27-31.5
							C1716.7,949,1718.2,933.4,1724.8,923.2z"/>
						<path fill="#8475AA" d="M1685,967.7c12.1,1.2,25.3,9.6,34.4,23.2c9.1,13.7,11.8,29.1,8.2,40.7c-12.1-1.2-25.3-9.6-34.4-23.2
							C1684.1,994.7,1681.4,979.3,1685,967.7z"/>
						<path fill="#8475AA" d="M1663.6,1011.7c12.1,1.2,25.3,9.6,34.4,23.2c9.1,13.7,11.8,29.1,8.2,40.7
							c-12.1-1.2-25.3-9.6-34.4-23.2C1662.7,1038.8,1660.1,1023.3,1663.6,1011.7z"/>
						<path fill="#8475AA" d="M1637.6,1058.6c12-2,26.9,2.8,39.2,13.6c12.3,10.9,18.8,25.1,18.3,37.3c-12,2-26.9-2.8-39.2-13.6
							C1643.6,1085,1637.1,1070.7,1637.6,1058.6z"/>
						<path fill="#8475AA" d="M1626.1,1109c9.9-4.4,23.9-3.7,37,2.9c13.1,6.6,21.9,17.5,24.2,28.1c-9.9,4.4-23.9,3.7-37-2.9
							C1637.2,1130.4,1628.4,1119.6,1626.1,1109z"/>
						<path fill="#8475AA" d="M1616.2,1141.7c9.9-4.4,23.9-3.7,37,2.9c13.1,6.6,21.9,17.5,24.2,28.1c-9.9,4.4-23.9,3.7-37-3
							C1627.4,1163.1,1618.5,1152.3,1616.2,1141.7z"/>
						<path fill="#8475AA" d="M1619.5,1182.9c8.5-3.8,20.5-3.2,31.7,2.5c11.2,5.7,18.8,15,20.8,24.1c-8.5,3.8-20.5,3.2-31.7-2.5
							C1629,1201.2,1621.5,1191.9,1619.5,1182.9z"/>
						<path fill="#8475AA" d="M1623.7,1225.5c4.9-6,14.1-10.1,24.6-10.2c10.6-0.1,19.8,3.9,24.8,9.8c-4.9,6-14.1,10.1-24.6,10.2
							C1637.9,1235.4,1628.7,1231.5,1623.7,1225.5z"/>
						<path fill="#8475AA" d="M1631.8,1258.8c2.2-5.8,8.1-11.3,16.1-14.1c8-2.8,16-2.1,21.3,1.1c-2.2,5.8-8.1,11.3-16.1,14.1
							C1645.1,1262.7,1637.1,1262.1,1631.8,1258.8z"/>
						<path fill="#8475AA" d="M1825,991.7c-7.3,9.7-21.3,16.7-37.7,17.4c-16.4,0.7-31-5-39-14.1c7.3-9.7,21.3-16.7,37.7-17.4
							C1802.4,976.9,1816.9,982.6,1825,991.7z"/>
						<path fill="#8475AA" d="M1804.4,1028.8c-7.3,9.7-21.3,16.7-37.7,17.4c-16.4,0.7-31-5-39.1-14.1c7.3-9.7,21.3-16.7,37.7-17.4
							C1781.8,1014,1796.4,1019.7,1804.4,1028.8z"/>
						<path fill="#8475AA" d="M1784.1,1072.6c-7.3,9.7-21.3,16.7-37.7,17.4c-16.4,0.7-31-5-39-14.1c7.3-9.7,21.3-16.7,37.7-17.4
							C1761.5,1057.7,1776.1,1063.5,1784.1,1072.6z"/>
						<path fill="#8475AA" d="M1755.6,1107.6c-5.9,7.9-17.3,13.6-30.7,14.1c-13.3,0.6-25.2-4.1-31.8-11.5
							c5.9-7.9,17.3-13.6,30.7-14.1C1737.2,1095.6,1749,1100.2,1755.6,1107.6z"/>
						<path fill="#8475AA" d="M1735.9,1138.1c-4.8,6.7-14,11.4-24.8,11.8c-10.8,0.5-20.4-3.5-25.7-9.7c4.8-6.7,14-11.4,24.8-11.8
							C1721,1127.9,1730.6,1131.9,1735.9,1138.1z"/>
						<path fill="#8475AA" d="M1729.4,1169.8c-4.8,6.7-14,11.4-24.8,11.9c-10.8,0.5-20.4-3.5-25.7-9.7c4.8-6.7,14-11.4,24.7-11.8
							C1714.6,1159.7,1724.1,1163.6,1729.4,1169.8z"/>
						<path fill="#8475AA" d="M1720.5,1199.8c-3.4,6.5-11.3,12-21.2,14.2c-9.9,2.2-19.3,0.4-25.2-4c3.4-6.5,11.3-12,21.2-14.2
							C1705.2,1193.6,1714.7,1195.4,1720.5,1199.8z"/>
						<path fill="#8475AA" d="M1714.5,1235.5c-5.2,4-13.5,5.5-22.2,3.5c-8.7-2-15.6-7-18.5-12.8c5.2-4,13.5-5.5,22.2-3.5
							C1704.7,1224.6,1711.5,1229.7,1714.5,1235.5z"/>
						<path fill="#8475AA" d="M1701.9,1260.3c-4.5,2.2-10.9,2.2-17.2-0.5c-6.3-2.7-10.7-7.5-12.1-12.2c4.5-2.2,10.9-2.2,17.2,0.5
							C1696.1,1250.8,1700.5,1255.5,1701.9,1260.3z"/>
						<path fill="#8475AA" d="M1690.8,1269.9c-2.9,1.7-6.9,1.8-10.7,0.2c-3.8-1.7-6.5-4.8-7.2-8c2.9-1.7,6.9-1.9,10.7-0.2
							C1687.5,1263.5,1690.1,1266.6,1690.8,1269.9z"/>
						<path fill="#8475AA" d="M1690.1,1280c-2.9,1.7-6.9,1.9-10.7,0.2c-3.8-1.7-6.5-4.8-7.2-8c2.9-1.7,6.9-1.9,10.7-0.2
							C1686.7,1273.7,1689.3,1276.8,1690.1,1280z"/>
					</g>
					<g>
						<path fill="#AF9BE2" d="M1604.2,1252c-17.2-25.1-35.2-49.7-54.5-73.3l0.3-0.3c19.8,23.2,38.4,47.4,56.1,72.2
							c17.7,24.9,34.3,50.5,49.3,77.1c3.6,6.5,7.1,13,10.5,19.6c-1.3,0.7-2.7,1.5-4,2.3c-3.3-6.7-6.7-13.3-10.2-19.8
							C1637.4,1303,1621.3,1277.2,1604.2,1252z"/>
						<path fill="#AF9BE2" d="M1530.7,1146.7c6.3,0.6,12.9,4.8,17,11.7c4.1,6.9,4.8,14.7,2.3,20.5c-6.3-0.6-12.9-4.8-17-11.7
							C1528.9,1160.3,1528.3,1152.6,1530.7,1146.7z"/>
						<path fill="#AF9BE2" d="M1577.8,1161.4c2.6,5,2.7,12.6-0.2,20.1c-2.9,7.5-8.1,13-13.4,15c-2.6-5-2.7-12.6,0.2-20.1
							C1567.3,1168.9,1572.5,1163.4,1577.8,1161.4z"/>
						<path fill="#AF9BE2" d="M1579.4,1216.7c-4.3,3.7-11.6,5.5-19.6,4.4c-8-1.1-14.5-4.9-17.6-9.6c4.3-3.7,11.6-5.5,19.6-4.4
							C1569.7,1208.2,1576.3,1212,1579.4,1216.7z"/>
						<path fill="#AF9BE2" d="M1598.4,1241.2c-4.3,3.7-11.6,5.5-19.6,4.4c-8-1.1-14.5-4.9-17.6-9.6c4.3-3.7,11.6-5.5,19.6-4.4
							C1588.7,1232.7,1595.2,1236.5,1598.4,1241.2z"/>
						<path fill="#AF9BE2" d="M1611.3,1260.7c-4.3,3.7-11.6,5.5-19.6,4.4c-8-1.1-14.5-4.9-17.6-9.6c4.3-3.7,11.6-5.5,19.6-4.4
							C1601.6,1252.2,1608.1,1256,1611.3,1260.7z"/>
						<path fill="#AF9BE2" d="M1625.6,1282.2c-4.3,3.7-11.6,5.5-19.6,4.4c-8-1.1-14.5-4.9-17.6-9.6c4.3-3.7,11.6-5.5,19.6-4.4
							S1622.4,1277.5,1625.6,1282.2z"/>
						<path fill="#AF9BE2" d="M1594.3,1182.4c2.6,5,2.7,12.6-0.2,20.1s-8.1,13-13.4,15c-2.6-5-2.7-12.6,0.2-20.1
							C1583.9,1189.9,1589,1184.4,1594.3,1182.4z"/>
						<path fill="#AF9BE2" d="M1610.1,1204c2.6,5,2.7,12.6-0.2,20.1c-2.9,7.5-8.1,13-13.4,15c-2.6-5-2.7-12.6,0.2-20.1
							C1599.7,1211.5,1604.8,1206,1610.1,1204z"/>
						<path fill="#AF9BE2" d="M1625.2,1225.8c2.6,5,2.7,12.6-0.2,20.1c-2.9,7.5-8.1,13-13.4,15c-2.6-5-2.7-12.6,0.2-20.1
							C1614.7,1233.3,1619.9,1227.8,1625.2,1225.8z"/>
						<path fill="#AF9BE2" d="M1639.7,1247.2c2.6,5,2.7,12.6-0.2,20.1c-2.9,7.5-8.1,13-13.4,15c-2.6-5-2.7-12.6,0.2-20.1
							C1629.3,1254.7,1634.4,1249.2,1639.7,1247.2z"/>
					</g>
				</g>
			</g>
			<linearGradient id="SVGID_4_" gradientUnits="userSpaceOnUse" x1="1561.9521" y1="1350.6255" x2="1737.668" y2="1350.6255">
				<stop  offset="0" style="stop-color:#F24949"/>
				<stop  offset="1" style="stop-color:#FFC16F"/>
			</linearGradient>
			<path fill="url(#SVGID_4_)" d="M1592.9,1309.6h113.9c18.9,9.7,30.9,24,30.9,40.1c0,17.2-13.7,32.4-34.8,42h-106
				c-21.2-9.6-34.8-24.8-34.8-42C1562,1333.6,1574,1319.2,1592.9,1309.6z"/>
			<path fill="#F8F0A1" d="M1603.6,1318.6c-11.2-1.3-26.3,7.1-30.2,24.2c-5.3,33.6,28.3,43.4,46.7,34.9c-16-4-33.5-11.3-34-27.9
				c-0.9-8.7,4.3-17,4.3-17.2c0.7-1,2.1-3.5,4.8-6.5C1597.6,1323.3,1600.5,1320.9,1603.6,1318.6z"/>
			<rect x="1587.6" y="1304.7" fill="#6B9FC5" width="125.8" height="7.9"/>
		</g>
		<g>
			<rect x="2453.5" y="334" fill="#290096" width="486.5" height="495.7"/>
			<rect x="2462.8" y="343.3" fill="#F1ECFF" width="467.8" height="477"/>
			<g>
				<path fill="#D7CEEE" d="M2716.2,478.7h-87.4l76.9,41.6C2712.2,507.9,2716,493.7,2716.2,478.7z"/>
				<path fill="#D7CEEE" d="M2527.9,478.7c0.6,34.5,19.7,64.4,47.8,80.3l43.5-80.3H2527.9z"/>
				<path fill="#D7CEEE" d="M2623.8,479.8v91.4c34.5-0.6,64.4-19.7,80.3-47.9L2623.8,479.8z"/>
				<path fill="#D7CEEE" d="M2527.9,475.3h87.6l-77-41.7C2531.9,446.1,2528.1,460.3,2527.9,475.3z"/>
				<path fill="#FFE5A0" d="M2668.4,395l-43.5,80.3h91.4C2715.6,440.9,2696.5,410.9,2668.4,395z"/>
				<path fill="#D7CEEE" d="M2620.4,474.1v-91.3c-34.4,0.6-64.4,19.7-80.3,47.8L2620.4,474.1z"/>
				<path fill="#FFFCED" d="M2624.9,380.1v87.5l41.7-76.9C2654,384.2,2639.9,380.4,2624.9,380.1z"/>
				<path fill="#D7CEEE" d="M2620.4,483.7l-41.7,77c12.5,6.5,26.7,10.3,41.7,10.6V483.7z"/>
				<g>
					<rect x="2540.3" y="707.2" fill="#D7CEEE" width="20.6" height="78.1"/>
					<rect x="2577.6" y="693.1" fill="#D7CEEE" width="20.6" height="92.2"/>
					<rect x="2615" y="679" fill="#D7CEEE" width="20.6" height="106.3"/>
					<rect x="2652.4" y="664.9" fill="#D7CEEE" width="20.6" height="120.4"/>
					<rect x="2689.7" y="650.7" fill="#D7CEEE" width="20.6" height="134.5"/>
					<rect x="2727.1" y="636.6" fill="#D7CEEE" width="20.6" height="148.6"/>
					<rect x="2764.4" y="622.5" fill="#D7CEEE" width="20.6" height="162.7"/>
					<rect x="2801.8" y="608.4" fill="#D7CEEE" width="20.6" height="176.8"/>
					<rect x="2839.1" y="594.3" fill="#D7CEEE" width="20.6" height="190.9"/>
					<rect x="2876.5" y="580.2" fill="#D7CEEE" width="20.6" height="205.1"/>
				</g>
				<path fill="#ECB2CD" d="M2902.5,500.1L2902.5,500.1L2902.5,500.1c-1.8,0.3-51.2,9.1-53,9.1l16.9,4.6
					c-6.6,2.5-41.9,15.9-50.6,19.2c-2.6,11.6-4.5,19.7-6,26.2c-8-0.8-23-2.1-36-3.4c-4.9,4.4-42.7,38.4-47.6,42.8
					c-11.9-1.5-26.7-3.4-37.3-4.7c-10.2,8.7-59.3,50.5-69.1,58.8c-9.8-3.3-23.7-8-32.2-10.9c-3.6,2.5-66.2,46-70,48.5l3.5,5
					l67.4-46.8c10,3.4,23.1,7.8,32.6,11c8.2-7,62.2-53,69.7-59.3c11.9,1.5,26.6,3.4,37.4,4.8c2.7-2.4,46-41.4,47.7-42.9
					c6.7,0.6,28.8,2.7,38.7,3.6c1.7-7.3,5.7-24.8,6.5-28.4l48-22l-3.7,16.5L2902.5,500.1z"/>
			</g>
		</g>
		<g>
			<g>
				<g>
					<g>
						<rect x="1824.9" y="1144.7" fill="#56585E" width="26.3" height="202"/>
					</g>
					<g>
						<polygon fill="#0A2126" points="1855.3,1348.5 1821.2,1348.5 1821.2,1317.9 1821.2,1293.3 1855.3,1293.3 						"/>
						<polygon fill="#0A2126" points="1695.3,1385 1821.2,1317.9 1821.2,1348.5 1730.9,1385 1730.9,1391.7 1695.3,1391.7 						"/>
						<polygon fill="#0A2126" points="1981.1,1385 1855.3,1317.9 1855.3,1348.5 1945.5,1385 1945.5,1391.7 1981.1,1391.7 						"/>
						<polygon fill="#0A2126" points="1826.7,1317.9 1826.7,1391.7 1818.3,1391.7 1818.3,1396.9 1855.3,1396.9 1855.3,1391.7 
							1847.5,1391.7 1849.9,1317.9 						"/>
					</g>
				</g>
				<rect x="1821.6" y="1133.3" fill="#303030" width="33.9" height="41.6"/>
			</g>
			<g>
				<polygon fill="#1E0C00" points="1751.1,925.9 1709.4,949 1743.1,1101.9 1759.5,1098.8 1740.2,956.8 1762.9,947 				"/>
				<polygon fill="#1E0C00" points="1906.9,925.9 1950.9,960.4 1943.6,1105.4 1925.8,1101.6 1932,976.6 1896.8,953.3 				"/>
				<path fill="#0089A9" d="M1893.3,1031.5h-125.1l-34.4-212.7c-6.2-38.2,23.3-72.9,62-72.9h69.7c38.7,0,68.2,34.7,62,72.9
					L1893.3,1031.5z"/>
				<path fill="#0089A9" d="M1958.8,1117h-234.1l0,0c0-12.8,10.4-23.2,23.2-23.2h187.7C1948.4,1093.8,1958.8,1104.2,1958.8,1117
					L1958.8,1117z"/>
			</g>
		</g>
		<path fill="#002B32" d="M1904.1,770.8l11.7-7.9c0,0-30.7-50.4-27.5-93.9c1.7-22.9-35.9-56.7-45.9-51.5
			c-0.6-0.2-33.4,0.7-36.3,75.6l-7,87.7l35.4,31.4c0,0,22.3-38.3,50.7-21.5c28.4,16.8,17.7,9.6,17.7,9.6S1904.1,778.8,1904.1,770.8z
			"/>
		<path fill="#746C87" d="M1776.2,772.8c0,0-0.3,83.5,8.2,101.2c8.5,17.7,4.7,123.2,4.7,123.2l97.6,2.9c0,0,12.5-98.4,12.5-125.3
			s9.8-102.3,9.8-102.3S1842.6,755.5,1776.2,772.8z"/>
		<path fill="#FC7575" d="M1871.4,713.3c1.5,1.5-4.5,41.6,1.3,53.3c0,0-15.6,86.4-26.1,87.7c-9.1,1.1-14-72.4-15.9-80.8
			c-2.5-11.3,2.9-67.6,2.9-67.6L1871.4,713.3z"/>
		<path fill="#FD5E5A" d="M1870.8,730.9c-14,12.6-27.9,6.7-38.5-9.2c0.2-8,1.3-15.3,1.4-15.8l37.7,7.4
			C1872,713.9,1871.3,721.4,1870.8,730.9z"/>
		<path fill="#FC7575" d="M1865.8,620.5c0,0,17.2,3.3,19.2,18c2,14.7,4.9,27,2,44.2c-2.9,17.2-13.1,40.1-29.9,43.8
			c-16.8,3.7-34.4-24.1-34.4-39.3c0-15.1-6.1-40.5,5.3-56.1C1839.6,615.6,1865.8,620.5,1865.8,620.5z"/>
		<g>
			<path fill="#FFFFFF" d="M1846.4,699.8c9,3.9,22.4,4,22.4,4s-0.9,1.8-2.6,3.8c-3.9-0.2-11.6-0.9-17.9-3.2
				C1847.1,701.9,1846.4,699.8,1846.4,699.8z"/>
			<path fill="#2E0A29" d="M1848.4,704.5c6.3,2.3,14,3,17.9,3.2C1859.9,715.3,1853.1,713.4,1848.4,704.5z"/>
		</g>
		<path fill="#FD5E5A" d="M1865.8,620.5c0,0,17.2,3.3,19.2,18c1.9,13.4,4.4,24.7,2.7,39.5c-2.7-1.9-6.6-3.8-12.1-5.6
			c-15.2-5-30.6-28.1-32.8-45.6C1842.6,612.2,1865.8,620.5,1865.8,620.5z"/>
		<g>
			<path fill="#172866" d="M1866,689.9c-0.5-4.7-0.8-9.4-0.7-14.1c1,6,1.3,10.4,1.6,14.7c-2.5,0.7-5.5,2.1-9.3,0.7
				C1860.5,691.7,1863.4,690.9,1866,689.9z"/>
		</g>
		<path fill="#172866" d="M1856.7,675.3c-0.9-2.7-3.2-5.3-6.3-6.1c-5.6-1.5-9,6.6-12.9,6.5c2.8,1.4,7.2-3.3,10.2-4.5
			c1.7-0.7,3.1-0.2,4.7,0.6C1854,672.6,1855.4,673.8,1856.7,675.3z"/>
		<ellipse fill="#172866" cx="1849.3" cy="672.9" rx="2.7" ry="3.1"/>
		<path fill="#172866" d="M1869.2,677.1c1-2.7,3.4-5.2,6.6-5.9c5.7-1.2,8.7,7,12.6,7.1c-2.8,1.3-7-3.6-10-5
			c-1.6-0.7-3.1-0.3-4.8,0.3C1872,674.4,1870.5,675.6,1869.2,677.1z"/>
		<path fill="#172866" d="M1879.4,675.1c-0.1,1.7-1.4,3-2.9,3c-1.5-0.1-2.7-1.5-2.6-3.2c0.1-1.7,1.4-3,2.9-3
			C1878.3,671.9,1879.5,673.4,1879.4,675.1z"/>
		<path fill="#172866" d="M1858.7,662.2c0.6-0.4-4.3-5.3-10.2-5.9c-5.9-0.6-12.2,5.9-12.2,5.9s8.7-5.2,12.3-3.5
			C1852.2,660.4,1855.3,664.4,1858.7,662.2z"/>
		<path fill="#FD5E5A" d="M1850.8,686.4c-0.8,2.2-4.9,2.9-9.2,1.5c-4.3-1.4-7.2-4.4-6.5-6.7c0.8-2.2,4.9-2.9,9.2-1.4
			C1848.6,681.1,1851.5,684.1,1850.8,686.4z"/>
		
			<ellipse transform="matrix(0.9885 -0.1509 0.1509 0.9885 -82.05 291.3874)" fill="#FD5E5A" cx="1878.8" cy="686.3" rx="6.9" ry="3.9"/>
		<path fill="#001542" d="M1801.3,991.4l-18.4,8.6c0,0-20.8,23.1-25.4,63.8c-4.6,40.8,50.7,60.7,50.7,60.7l109.2-7.7
			c0,0,40.4-110.6-26.7-123.9C1826.4,980.3,1801.3,991.4,1801.3,991.4z"/>
		<path fill="#FF4747" d="M1862.8,1052.4c0,0,0.6,19.3,1.6,19.7c9.2,3.6,49.3-0.9,53.7,22c4.9,25.6-76.4,212.3-71,240
			c5.4,27.7,12.7,51.6,17.1,56c4.4,4.4,4.5,8.2,0.7,12c-3.8,3.8-20.2-0.6-24.8-5.2c-4.6-4.6-10.1-40.3-18.4-48.6
			c-8.3-8.3-11.5-13.5-1.9-33.1c9.6-19.6,34.6-171.5,37.7-187.2c3.1-15.8-1.9-22.7-1.9-22.7l-38.1-24.2L1862.8,1052.4z"/>
		<path fill="#FC7575" d="M1893.6,1035.5c0,0-14.2-9.6-42.7,0c-28.5,9.6-47.7,33.4-50.8,44.6c-3.1,11.1-15.8,227.6-32.7,263
			c-16.9,35.4-17.9,37.4-25.4,44.9c-7.4,7.4-4,25.8,0,29.8c4.1,4,35.4-4.2,39-16.5c3.6-12.3,11.3-41,14.4-49.7
			c3.1-8.7,24.8-91.1,45.4-130.1c20.7-39,27.4-125.1,27.4-132.3c0-7.2,36.3-9.9,36.3-9.9S1912.3,1039.7,1893.6,1035.5z"/>
		<path fill="#4D475B" d="M1909,772.5c0,0,13.3,7.7,15.1,17.5c7.5,39.3,14.1,138.8,11,164c-3.8,31.5-16.1,31.5-16.1,31.5
			l-146.9-17.6l6.2-39.2c0,0,100,6.2,110,6.2c10,0,10.7-75.9,10.7-75.9L1909,772.5z"/>
		<path fill="#998DB6" d="M1776.2,772.8c0,0-34.9-0.3-42.6,44.3c-7.7,44.6-3.1,168.3,13.1,168.3c16.1,0,105.4-51.8,117.7-51.8l0,0
			c-3.3-0.7-5.8-3.4-6.4-6.7l-4.2-23.8c0,0-69.4,0.8-81.7,13.1c0,0,13.1-48.4,13.1-66.1C1785.2,832.5,1797.8,772.8,1776.2,772.8z"/>
		<path fill="#FC7575" d="M1895.1,917.5c0,0-38.9-13-40-6.9c-2.8,16.2,6.3,23.6,6.3,23.6s26.4,4,30.6-0.3
			C1896.2,929.7,1895.1,917.5,1895.1,917.5z"/>
		<path fill="#FD5E5A" d="M2226.5,920.2l-2,62.7c0,0,29.7,5.6,37.9,2.5c4.5-1.7,5.4-33,4-69.1C2250.8,915,2241.2,914.9,2226.5,920.2
			z"/>
		<path fill="#703C6A" d="M2266.4,916.3c-1.2-29-3.8-61.1-7.2-83.7c-7.7-50.8-38.4-77.1-38.4-77.1l-0.9,156.2l0.7,10.4
			C2235.2,916.8,2250.8,915,2266.4,916.3z"/>
		<path fill="#47003F" d="M2110.1,758.5c0,20.5,3.5,122.8,9.7,155.5c6.2,32.7-42.9,89.6-42.9,117.1c0,27.6,35.9,67.6,35.9,67.6h120
			c0,0,36.9-67.2,23.6-98.7c-13.3-31.5-31.8-7.9-22.6-53.1c9.2-45.1,10.1-106.9,5-150c-5.1-43.1-28.4-56.2-68.4-56.2
			C2130.3,740.9,2110.1,738,2110.1,758.5z"/>
		<path fill="#060032" d="M2219.9,1012.1c0,0-56.5-17.3-83.6,9.7c-27,27-23.6,76.9-23.6,76.9h120
			C2232.7,1098.8,2271.7,1043.9,2219.9,1012.1z"/>
		<path fill="#FD5E5A" d="M2195,1048.2c-8.4-20.5-17.7-24.4-25.4-24.4c-14,0-36.1,7.7-45.6,32c-10.1,25.7-49,182.7-55.8,211.7
			c-4.9,20.7-14.4,35-24.5,46.8c-21.3,32.1-15.1,52.7-0.7,68c0,1.9,15.5,5.9,32.8-42.2c3.9-10.7,5.6-17.3,10.3-40.6
			C2090.6,1276.2,2203.4,1068.7,2195,1048.2z"/>
		<path fill="#482044" d="M2073.8,1345.4c-5.7,3.6-19.3,11.8-24.8,11.8c-5.3,0-12.6-15.6-15.7-23c-7.8,21.8-1.6,38,9.7,49.9
			C2045.1,1386.6,2057.3,1388,2073.8,1345.4z"/>
		<path fill="#FF7B7B" d="M2252.1,1060.3c0.5-22.4-13.4-27.2-24.3-29.1c-13.8-2.5-31.8,13.3-46.7,36.6
			c-14.9,23.3-49,182.7-55.8,211.7c-4.8,20.7-14.4,35-24.5,46.8c-21.3,32.1-15.1,53.1-0.7,68.4c0,1.9,15.5,5.6,32.8-42.5
			c3.9-10.7,5.6-17.3,10.3-40.6C2147.8,1288.3,2251.6,1082.5,2252.1,1060.3z"/>
		<path fill="#4B2847" d="M2128.2,1364.2c-6.8,2.3-13.8,3.8-19.4,2.9c-11-1.8-13-20.1-13-32.5c-15.1,27.7-8.8,47.6,4.4,61.6
			C2102.5,1397.6,2112.9,1399.9,2128.2,1364.2z"/>
		<path fill="#99CEDC" d="M2185,923.5l27.2,50.2c0.2,0.4,0.1,0.9-0.3,1.1c-0.4,0.2-0.9,0.1-1.1-0.3l-28.8-49.3
			c-0.5-0.8-0.2-1.9,0.6-2.4C2183.4,922.3,2184.5,922.6,2185,923.5C2185,923.4,2185,923.4,2185,923.5z"/>
		<path fill="#FC7575" d="M2198.8,939.8c-5.9-5.9-14.9,2.1-23.1,4.7c-8.2,2.6-85.1,2-95.9-0.5c-4-0.9-2.1-13.2,1.9-29.8
			c-12.5-4.1-26.1-5.3-38.8-3.8c-4.2,40.4-5.6,76.2,0,79.8c12.3,8.1,114.7-25.2,125-25.2s5.2,4.8,20.6,4.8c9.1,0,15.4-1.7,19-3.1
			c2.2-0.8,3.3-3.3,2.4-5.5C2207.8,955.3,2203.1,944.1,2198.8,939.8z"/>
		<path fill="#FD5E5A" d="M2080.4,920.2c0.4-1.9,0.9-4,1.4-6.1c-12.5-4.1-26.1-5.3-38.8-3.8c-0.5,5.1-1,10.1-1.4,14.9
			C2049.2,923.8,2068.1,920.4,2080.4,920.2z"/>
		<path fill="#95508D" d="M2081.8,914.2c12.8-27.9,33.5-74.6,35.2-93.3c2.6-29.7-3.9-75-3.9-75s-35,21.7-46.3,46.8
			c-6.2,13.7-25.3,72.6-30.4,121.5C2049.2,912.7,2069.3,910,2081.8,914.2z"/>
		<path fill="#CEF2FA" d="M2159.8,981.3h73.8C2233.6,981.3,2183,964.9,2159.8,981.3z"/>
		<path fill="#5DB9F4" d="M2304.4,981.3h-70.8c0,0,27.3-5.7,45.7-5.7C2297.7,975.6,2304.4,981.3,2304.4,981.3z"/>
		<path fill="#5DB9F4" d="M2291.9,958.5c0,0-34.4-1-58.2,22.8c0,0,11.3-8.1,29.8-12.8c18.5-4.8,31.1-4.5,31.1-4.5L2291.9,958.5z"/>
		<polygon fill="#00485C" points="2155,981.3 2233.6,981.3 2159.3,979.6 		"/>
		<path fill="#FD5E5A" d="M2295.3,899.2c-5.5-35.8-1-77.6-1-77.6s9.6-8.3,22.4-4.9c12.8,3.4,19.6,5.5,18.3,1.9
			c-1.2-3.6-17.9-9.4-17.9-9.4s16-0.2,24.2,4c8.2,4.2,10.1-3.9-12.7-8c-22.8-4-15.3-6.2-11.5-7.5c3.8-1.3,26.6,4.6,32.6,0.3
			c5.6-4-30.8-8-41.5-6.7c46.6-13.2,32.1-19-12.1-3.8c-12.7,4.3-24,23.3-24.3,23.7c-1.1,1.5-13.6,59.3-14.3,103.4
			C2269.5,909,2284.2,906.2,2295.3,899.2z"/>
		<path fill="#333A6A" d="M2264.4,826.5c-3.4,3.4-42.9,151-20.4,156.9c22.5,5.9,50-22.3,50-22.3l5.4-121.8L2264.4,826.5z"/>
		<path fill="#FC7575" d="M2577,819.3c4.6-10.5,24-13.2,30.2-15.2c6.2-2,11.9-14.4,16.1-15.7c4.1-1.3,2.9,12.6-3.4,16.2
			c-6.3,3.6,1.8,9.1,6.6,9.1c4.9,0,22.6-1.3,26.6-10.5c4.1-9.2,11.6-14.6,12.6-11.4c1,3.2-9.4,17.1-9.4,17.1s16.8-15.3,18-11.5
			s-14.1,14.8-14.1,14.8s10.3-4.7,13.3-3c3,1.8-24.5,18.8-30,20.5c-5.4,1.7-26.9,0.6-37.5-0.5c-4.4-0.5-6.7,21.4-14.3,50
			c-3.9-7-22.8-13-28.2-18.8C2572.7,841,2575.2,823.5,2577,819.3z"/>
		<path fill="#333A6A" d="M2564.1,840.3l-34.7,146c0,0,32.6,4.8,46.3,0c13.7-4.8,30.8-101.6,30.8-143.9L2564.1,840.3z"/>
		<polygon fill="#47405C" points="2833.3,1109.7 2760.8,1123.7 2714.8,1105.4 2760.8,1057.8 		"/>
		<path fill="#5F557B" d="M2867.9,785c0,0-11.8,7.1-25.9,41.5c-14.1,34.4-14.1,105.6-27.9,112.1c-12.1,5.7-109.1,17.6-133.1,20.4
			c-3.4,0.4-6.4,2.3-8.2,5.2l-12.5,20l65.1,2.1c0,0,74,36.9,92.9,24.3c18.9-12.6,73.8-116.7,80.9-147.4
			C2906.3,832.5,2867.9,785,2867.9,785z"/>
		<path fill="#C3EDF4" d="M2725.3,928.6c-3.1,0-33.8-7.2-33.8-7.2l-7.2,31.8l31.8,13.3L2725.3,928.6z"/>
		<path fill="#5F557B" d="M2663.8,1357.1c0,0-10.8,32.8-41.1,41c-11.4,3.1-63.4,28.7-53.7,28.7c3.7,0,111.5,0.4,111.5,0.4
			s8-14.2,5-27c-3.1-12.8,11.8-43.1,11.8-43.1H2663.8z"/>
		<g>
			<path fill="#363A68" d="M1466,602.2c0,0,9.1,54.3,37.5,90.8c21.3,27.3,65.8,57.7,65.8,57.7l-25.2,27.6l-69.5-57.4L1466,602.2z"/>
			<polygon fill="#260E0D" points="1427.9,551.4 1372.2,551.4 1374,734.7 1448,739.7 			"/>
			<path fill="#260E0D" d="M1490.4,1429.6c31.4,0,30.6,12.9,30.6,12.9h-91.9c0,0,4.6-39.7,5.3-49h21.6
				C1458.4,1404.9,1466.3,1429.6,1490.4,1429.6z"/>
			<path fill="#260E0D" d="M1336.8,1434.3c28.6,0,34.4-34.6,35.2-40.9h20.6c0,1.7,0,2.8,0,3c0,4.3,5.4,50.8,5.4,50.8s-23,0-38.3,0
				c-15.3,0-53.6,0-53.6,0S1305.4,1434.3,1336.8,1434.3z"/>
			<path fill="#2F1954" d="M1345,1184.8l-29.3-248.1l8.3-73.4h161.5l1.2,64.7l16.9,252.1c0,0-42.1,209.9-41.4,213.3h-30.5
				c0.1-0.8,8.6-230.1,8.6-230.1L1405.4,959l-13.6,214.4c0,0,6.2,193.3,6.3,220h-28.7C1369.4,1392.8,1345,1184.8,1345,1184.8z"/>
			<path fill="#0E0E0E" d="M1322.9,873l1.1-9.6h161.5l0.2,8.5l-33.9,11.5c-27.6,9.4-57,10.1-85,2.2L1322.9,873z"/>
			<path fill="#F1A97E" d="M1312.7,600.2c17.6-19.7,58.2-51.2,103-43.6l46.8,20.8l13.8,101l12.3,192.4l-166.9,1.9l-15.9-187.3
				C1305.9,685.4,1295.2,619.9,1312.7,600.2z"/>
			<path fill="#FC7575" d="M1421.4,511.2c0,0,0.5,39.5,4.3,59.6c1.5,7.8-2.1,15.7-8.7,18.6c-4.9,2.1-11.3,3.4-19.4,1.8
				c-21-4-21.7-27.6-21.7-27.6l7.1-72L1421.4,511.2z"/>
			<path fill="#FD5E5A" d="M1382.9,491.7l38.5,19.6c0,0,0.2,14.6,1.2,30.5c-10,0.5-22.7-5.2-36-22.4c-2-2.6-3.8-5.1-5.6-7.6
				L1382.9,491.7z"/>
			<path fill="#FC7575" d="M1418.9,410.1c0,0,13.2,11.2,18.9,30c5.7,18.8,10.7,32.4,10.7,32.4l-6.1,4c0,0,4.8,26.2,1.1,35.2
				c-5.7,13.6-29.7,24.6-57-6c-27.2-30.6-29.5-57.6-24.9-70.8C1366.2,421.7,1408.3,403.3,1418.9,410.1z"/>
			<path fill="#121841" d="M1378,439.3c0,0,12.1-11.2,29.5-6.4c17.4,4.8,23.3-2.6,19.9-6.4c0,0,15.3,0.4,21-13.6
				c5.7-14,4.3-56.4-22.8-48.4c-27.1,8-21.6,27.2-21.6,27.2s-8.7-9.2-16.9-4.4c-8.2,4.8-7.1,11.6-7.1,11.6s-7.5,15.6-17.8,17.6
				c-10.3,2-9.3,25.2-9.3,25.2s-6.1,4.8-1.8,21.6c4.3,16.8,29.4,42.9,29.4,50.9c0,0,6.2-10.5,1.2-26.9c-5-16.4-5-26,0.4-26
				C1387.6,461.3,1378,439.3,1378,439.3z"/>
			<path fill="#FC7575" d="M1385.7,472.2c0,0-1.7-13.8-5.6-13.8c-3.9,0-7.5,1.5-6.5,9.3c0.9,7.8,4.9,16.5,10,12.9
				C1388.6,477,1385.7,472.2,1385.7,472.2z"/>
			<path fill="#121841" d="M1339.9,440.4c0.4-1.2,1.3-2.4,2.4-3c3.6-1.7,8.5,2,11.6,4.6l0.5-0.7c-2.2-2.5-4.4-5-7.6-6.6
				c-4.7-2.2-8.9,0-10.6,4.3L1339.9,440.4z"/>
			<path fill="#121841" d="M1339.6,458.2c-0.3-2-0.3-4.3,0.1-6.4c2.3-10.4,13.6-9.5,14.1-9.8v-0.6c-0.3,0.1-16.3-3.4-18.6,13.4
				c-0.2,1.5-0.3,2.7-0.2,4.5L1339.6,458.2z"/>
			<ellipse fill="#2F499F" cx="1425" cy="451.7" rx="3" ry="6.2"/>
			<path fill="#2F499F" d="M1415.3,445.6c6.6-6.1,13.7-2.1,13.8-2.1l1.1-4.4c-0.3-0.2-7.9-4.4-15.4,2.4L1415.3,445.6z"/>
			<path fill="#555DA2" d="M1433.5,558.4l12.4,373.5h77.4l-22.8-169.6l-15-103.1c0,0-7.3-69.4-23-81.7
				C1446.8,565,1433.5,558.4,1433.5,558.4z"/>
			<path fill="#FD5E5A" d="M1383.1,466.6c0,0-2.3-4.7-4.3-4c-2,0.7-2.5,10.1,1.1,14C1383.6,480.6,1386.6,474.1,1383.1,466.6z"/>
			<path fill="#555DA2" d="M1371.4,556.4l8.2,375.5h-82.9c0,0-3.1-297.6,6.1-328.7C1311.8,572,1371.4,556.4,1371.4,556.4z"/>
			<polygon fill="#777EB5" points="1463.6,572.3 1427.9,551.4 1439.4,737.1 1459,631.8 1452.1,627 			"/>
			<polygon fill="#777EB5" points="1375.2,735.3 1372.2,551.4 1340.4,565.9 1357.7,626.9 1353.3,630.3 			"/>
			<polygon fill="#1E3340" points="1521,789.9 1636,702 1514.2,690.8 1422.2,789.9 			"/>
			<path fill="#FC7575" d="M1457,752.6c0,0-12.5,2.9-17.1,7.9c-5.9,6.4-19.9,16.9-25.8,16.9c-5.9,0-30.9,2.5-30.9,2.5l-4.2,28.1
				c0,0,93.4-21.8,97.8-26.7c4.4-4.8-21.9,3.6-21.9,1.4c0-2.1,31.7-4.6,30-10c-1.6-5.4-29.2,7.3-31.7,4.6
				c-2.4-2.7,33.3-7.1,33.3-12.9c0-5.7-35.6,8.3-35.6,8.3s-0.7-2.9,9-7.5c9.6-4.6,19-8.4,16.8-10.7c-2.1-2.3-26.8,12.5-30,8.9
				L1457,752.6z"/>
			<path fill="#777EB5" d="M1325.5,595.9c0,0,13.6,25.4,10.9,61.9c-2.7,36.5-7.3,92.5,0.3,110.8c7.6,18.3,63.3,0,63.3,0v43.2
				c0,0-80.7,33.5-104.1,22.5c-23.4-11-21.2-105.3-21.2-151.6C1274.6,636.5,1310.6,562.7,1325.5,595.9z"/>
			<path fill="#EEF1F9" d="M1325.5,595.9c6.7,14.7,11.1,36.4,9.7,59c-2.5,34-10.4,107.8,4.1,119c14,8.8,45.6,0,60.6-5.4
				c-14.8,4-56.6,13.9-62-0.7c-4.6-11.6-3.9-39.7-3.4-52.2c1.7-53.9,8.2-73-3-105.9C1329.8,605,1327.9,600.3,1325.5,595.9z"/>
			<path fill="#2B3278" d="M1437.1,498.1l-1.1,6.8c-13.5-1.5-20.2-13.2-20.2-13.2C1423.9,499.8,1437.1,498.1,1437.1,498.1z"/>
			<path fill="#FC7575" d="M1554.9,751.5c0,0,1.6,2,4.2,8.2c2.5,6-4.5,12.2-5.8,13.5c-2.6,2.5-7.3,5.8-10.2,7.5
				c-2.9,1.7-4.8,2.6-7.6,3.2c-4.1,0.9-13.3-14-12-15.5c0.9-1,1.9-1.7,2.8-1.4c1,0.3,11.2,8.5,11.2,8.5s-9.2-11.8-8.2-15.3
				c1-3.5,3-3.1,3.8-2.2c0.8,0.9,12.5,11.9,12.5,11.9s-7.9-14-7.2-16.3c0.7-2.3,3.9-3.9,7.5,1.8c2,3.2,7.4,8.3,7.4,8.3
				s-4.4-10.6-3.4-14C1551,746.4,1554.9,751.5,1554.9,751.5z"/>
		</g>
		<path fill="#403003" d="M2433.1,1399.6c0,0,0.3,1.4,1,3.6c2.2,6.6,8.2,20.2,22.1,23.6c18.5,4.5,33.1-0.4,36.4,3
			c3.3,3.3,4.6,13.7,4.6,13.7l-111.1,5.2l6.6-45.4L2433.1,1399.6z"/>
		<polygon fill="#403003" points="2342.8,1126.3 2385.4,1414.1 2442.5,1405 2433.2,1124.3 		"/>
		<path fill="#4C3D65" d="M2379.7,1389.5c0,0-14.1,12-14.1,24.6l-48.8,36h-17.3c0,0,36-45,43.2-56.3c7.2-11.3,7.5-22.3,7.5-22.3
			L2379.7,1389.5z"/>
		<path fill="#554004" d="M2534,1119.8c-15.8-47.7-59.4-25.6-59.4-25.6c-27.2,5.1-67.6,98.9-73.3,128.2
			c-4.1,21.1-44.2,117.1-66.2,169c15.3-8.3,35.5-3.5,44.3,10.9C2426.1,1325.1,2539.2,1135.5,2534,1119.8z"/>
		<path fill="#322844" d="M2347.7,1397c0,0,13.3,3.9,17.6,12.7c4.3,8.8-17.6,26-17.6,33.8c0,7.8,5.8,14.4,0,17.3
			c-5.8,2.9-53.1,3.4-50.5-6.1c2.6-9.5,21.2-20.1,28.8-32C2333.6,1410.9,2340.3,1393.8,2347.7,1397z"/>
		<path fill="#403003" d="M2481.1,1109.7c0,0,71.5-20.6,48.3,28.2c-4.5,9.4-210.6,23.6-210.6,6.4c0-17.3,13.1-34.5,13.1-34.5H2481.1
			z"/>
		<path fill="#000945" d="M2323.4,800.8c0,0,24.3-9.9,53.7-12.4c16.1-1.4,32.2,3.8,50.4,3.8c51.3,0,100.7,13.6,106.1,38.5
			c5.4,25-62.1,268.1-46.7,283.5c15.4,15.4-135.8,25.1-154.8,6.1C2313.2,1101.3,2268.1,822.3,2323.4,800.8z"/>
		<path fill="#F66D75" d="M2392.5,742l-15.3,51.7c0,0,40.1,15.8,67,0l-8.5-57.4L2392.5,742z"/>
		<path fill="#000945" d="M2323.4,800.8c0,0-43.1,57.9-52.3,85.5c-9.2,27.7-34.4,74.7-32.3,86.9c2.1,12.2,17.1,24.3,42.2,18.3
			c25.1-6,23.3-30.3,23.3-30.3L2323.4,800.8z"/>
		<path fill="#000945" d="M2532.3,826.5c0,0,54.1,149.1,43.4,159.8c-10.7,10.7-46.3,0-46.3,0l-39.1-76.2L2532.3,826.5z"/>
		<path fill="#FC7575" d="M2858.1,615c0,0-20.1,26.4-23.2,44.4c-3.1,18.5-6.9,48-6.9,48h8.2c0,0,6.8,16.4,6.8,27.3
			c0,10.9,17.3,4.1,27.3,4.1c10,0,32.3-8.6,41-40C2920,667.3,2936,611.4,2858.1,615z"/>
		<polygon fill="#98B0BF" points="2881.7,764.4 2869.5,773.5 2865.2,790.1 2882.7,782.1 		"/>
		<path fill="#FC7575" d="M2902.3,698.3l30.5,70.1c0,0-58.5,19.3-55.5,16.4c3-3-3.8-54.6-3.8-54.6L2902.3,698.3z"/>
		<path fill="#2D1175" d="M2830.8,595.9c-0.9,1.6-16.7,33.7,10.5,46c27.3,12.3,34-5.4,41.3,5.5c7.3,10.9-6.3,28.6-0.4,38.6l9.1,1.7
			c0,0,1.8-5.4,5.5-5.4s4.7,27.6,10.5,27.6c5.9,0,17.2-23.5,22.7-34.4s16.8-47.8-4.1-57.3c-20.9-9.6-30-2.3-30-11.4
			c0-9.1-9.1,0.5-9.1,0.5s-5-6.8-1.8-14.6c3.2-7.7-22.3-10.5-28.2,5C2850.9,613.2,2840.8,579.1,2830.8,595.9z"/>
		<g>
			<g>
				<rect x="2919.4" y="1222.4" fill="#56585E" width="26.3" height="194.6"/>
			</g>
			<g>
				<polygon fill="#0A2126" points="2949.8,1418.6 2915.7,1418.6 2915.7,1389.2 2915.7,1365.5 2949.8,1365.5 				"/>
				<polygon fill="#0A2126" points="2789.9,1453.8 2915.7,1389.2 2915.7,1418.6 2825.5,1453.8 2825.5,1460.2 2789.9,1460.2 				"/>
				<polygon fill="#0A2126" points="3075.7,1453.8 2949.8,1389.2 2949.8,1418.6 3040.1,1453.8 3040.1,1460.2 3075.7,1460.2 				"/>
				<polygon fill="#0A2126" points="2921.3,1389.2 2921.3,1460.2 2912.9,1460.2 2912.9,1465.2 2949.8,1465.2 2949.8,1460.2 
					2942,1460.2 2944.5,1389.2 				"/>
			</g>
		</g>
		<rect x="2915.7" y="1181.2" fill="#303030" width="33.7" height="68"/>
		<path fill="#47405C" d="M2571.4,1233.5c0,0-24.5,24.6-32.7,32.8c-8.2,8.2-54,12.4-44.9,21.5c9.1,9.1,32.6,20.9,43.3,20.9
			c10.7,0,51.7-9.2,51.7-9.2s4.7-41.1,10.3-46.7L2571.4,1233.5z"/>
		<path fill="#5F557B" d="M2716.1,1022.2c-34.9,0-156.9,200-156.9,200l12.2,11.3l32.8,24.4c5.6-5.6,133.2-163.7,133.2-163.7
			s49.5,20.2,87.5,20.2c37.9,0,83.4-78.4,83.4-78.4C2903.9,1031.6,2750.9,1022.2,2716.1,1022.2z"/>
		<path fill="#C3EDF4" d="M2968.6,1020.4c0.1-0.7,0.1-1.4,0.2-2.1c2.6-29.7,10.6-265.5-30.9-265.5c0,0-47.9,8.6-78.4,47.4
			c-5.1,6.5-6.1,12.4-8.3,21.3c-15.2,59.5-25.2,169.7-23.8,211.5C2874.2,1051.6,2926.7,1050.4,2968.6,1020.4z"/>
		<path fill="#CAEBFF" d="M2922,732.5c-4.1,0-46,40.4-46,40.4l-3.6,23.2l65.6-30.6L2922,732.5z"/>
		<polygon fill="#C33EA4" points="2875.5,775.7 2865.3,779.9 2854.6,802.1 2860.7,800.2 2873.1,790.9 		"/>
		<path fill="#743064" d="M2860.7,800.2c0,0-24.8,125.9-30.6,236.6l-16,14.3c0,0,2-17.4,2-42.5c0-25.1,26-188.4,38.5-206.5
			L2860.7,800.2z"/>
		<path fill="#7F71A4" d="M2937.9,752.7c0,0-12.5,2.3-28.9,9.6c-4.6,18.6-30.3,61.4-41.7,107.2c-8.5,34.2-28.5,78.8-31.8,107.2
			c-2.8,24.5-7.4,45.4-9.1,59.8c-3.9,34.6-19.7,93.5-19.7,93.5l149.2-20.4c0,0,10.3-61.7,12.8-91.4
			C2971.4,988.6,2979.5,752.7,2937.9,752.7z"/>
		<path fill="#998DB6" d="M2918.7,1078.6l-29-3.3c-11.2-1.3-19.3-11.4-18-22.6l6.4-56.2l69.7,7.9l-6.4,56.2
			C2940,1071.9,2929.9,1079.9,2918.7,1078.6z"/>
		<path fill="#B2AAC8" d="M2916.9,746.5l-39.8,33.8l-40,193.3c0,0,45.8-80.2,44.6-88.5c-1.2-8.3-8.3-15.6-8.3-15.6
			S2916.9,760.8,2916.9,746.5z"/>
		<polygon fill="#B2AAC8" points="2930.3,737.1 2916.9,746.5 2911.9,766.3 2943.6,754.4 		"/>
		<path fill="#303030" d="M2946.1,1183.4h-32.2c-8.6,0-15.6-7-15.6-15.6v-31h63.4v31C2961.7,1176.4,2954.7,1183.4,2946.1,1183.4z"/>
		<g>
			<path fill="#1E0C00" d="M2983.2,991.1c0,0-146.3-1-150.9,9.2c-4.6,10.2,2.3,129.8,2.3,129.8l17.4-3.1c0,0-7.2-101.4,3.6-112.2
				c10.8-10.8,129.2,5.6,130.7,4C2987.8,1017.3,2983.2,991.1,2983.2,991.1z"/>
			<path fill="#B2AAC8" d="M2830.4,997.2c-7.8,8.2,1.5,97,2.9,108.1c1.1-50.2-0.4-92.2,2.1-103.3c8.1-5,69.2-7.1,118.7-10.9
				C2937.1,990.1,2842,986.7,2830.4,997.2z M2835.3,1001.9C2835.3,1001.8,2835.3,1001.8,2835.3,1001.9
				C2835.4,1001.8,2835.3,1001.8,2835.3,1001.9z"/>
			<path fill="#0A6980" d="M3050.9,1137.7h-260.4l0,0c0-15.5,12.5-28,28-28h232.4V1137.7z"/>
			<path fill="#0A6980" d="M3026.3,809.6c0,0-61.5,29.5-61.5,127.5c0,98,35.9,172.5,35.9,172.5h50.2c0,0-64.6-138.1-34.9-197.1
				C3045.7,853.7,3096,820.9,3026.3,809.6z"/>
			<path fill="#084F60" d="M3016,912.7c28.4-56.3,75.5-88.7,19-101.3c41.8,14.1-1.4,46-28.1,98.8c-29.7,58.9,34.9,197.1,34.9,197.1
				v28h-251.2c-0.1,0.8-0.1,1.7-0.1,2.5h260.4v-28C3050.9,1109.7,2986.3,971.6,3016,912.7z"/>
		</g>
		<path fill="#998DB6" d="M2923.9,771.6c-18.6,4.4-40.8,18-53,54.9c-12.2,36.9-24.6,88.3-41,95.8c-16.4,7.5-123.1-1-123.1-1
			l-2.7,47.9c0,0,116.4,34.2,147.6,30.8c31.2-3.4,86-114.3,102.7-154.3C2986.6,768.5,2943.4,767,2923.9,771.6z"/>
		<path fill="#D4C5F6" d="M2923.9,771.6c-52.4,16-50.3,70.8-73.3,127.1c-3.7,8.6-10.7,23.5-19.6,26.8c-2,0-13.2,10-124.1-4.1
			c37.2,0.8,113.2,3.5,123.1-2.9c14.8-10.2,27.7-64.5,39.4-95.4c4.6-12.3,11.2-24.1,20.5-33.4
			C2899.2,780.4,2911.2,773.8,2923.9,771.6z"/>
		<path fill="#7F71A4" d="M2758.4,1149.3c-14.1,67.8-58,226.2-58,226.2l-53.5-15.5c0,0,33.4-253.9,60.5-280.9
			C2734.4,1052.1,2772.5,1081.6,2758.4,1149.3z"/>
		<path fill="#313B3D" d="M2681.8,964c0,0,14.8-2.3,22.4,5.4c7.6,7.6,10.7,16.5,10.7,16.5l-54.6-1.6
			C2660.2,984.2,2668.7,963.4,2681.8,964z"/>
		<path fill="#C3EDF4" d="M2660.2,984.2c0,0,8.5-20.9,21.5-20.3c0,0,14.8-2.3,22.4,5.4c1.3,1.3,2.5,2.7,3.6,4.1
			c-1.4-2.3-3-4.7-4.9-7c-7.6-9.2-17.3-6.9-22.4-6.5c-13,1.2-21.5,24.5-21.5,24.5L2660.2,984.2z"/>
		<path fill="#FC7575" d="M2681.1,964c0,0-7.4-0.7-10.1,1.9c-2.7,2.6-4.4,4.5-5.3,5.4c-0.9,0.8-0.1,11.5,12.2,14.2
			c12.3,2.7,10.1-3.1,13.7-1.7c3.5,1.5,7.6,3.8,9.3,2c1.8-1.7,4.1,2.5,6.7,0c2.6-2.5-4.5-18.3-8.5-22.2c-4-3.9-7-2.5-10.2-2.5
			C2685.6,961.1,2681.1,964,2681.1,964z"/>
		<rect x="2706.4" y="1010.4" fill="#743064" width="14.4" height="423.7"/>
		<rect x="1573.8" y="1007.8" fill="#743064" width="14.4" height="423.7"/>
		<rect x="1707.8" y="997.2" fill="#743064" width="14.4" height="423.7"/>
		<linearGradient id="SVGID_5_" gradientUnits="userSpaceOnUse" x1="2145.4363" y1="1129.5734" x2="2152.0259" y2="993.3895">
			<stop  offset="0" style="stop-color:#6A0352"/>
			<stop  offset="1" style="stop-color:#B8004C"/>
		</linearGradient>
		<rect x="1532.8" y="981.3" fill="url(#SVGID_5_)" width="1238.1" height="29.4"/>
		<path fill="#0089A9" d="M2463.8,1153.1h-162.5l-44.6-243.3c-8-43.7,30.3-83.3,80.6-83.3h90.6c50.3,0,54.1,58.7,51.6,105.8
			l-6.8,96.2L2463.8,1153.1z"/>
		<path fill="#339CB4" d="M2273.5,930.7c-8-43.7,30.3-83.3,80.6-83.3h90.6c10.6,0,19.1,2.6,25.9,7.1c-7.6-16.7-20.7-28-42.7-28
			h-90.6c-50.3,0-88.6,39.6-80.6,83.3l44.6,243.3h13L2273.5,930.7z"/>
		<g>
			<g>
				<g>
					<rect x="2392.6" y="1193.1" fill="#666E9E" width="26.3" height="254.8"/>
				</g>
				<g>
					<polygon fill="#371C45" points="2423,1449.8 2388.9,1449.8 2388.9,1416.3 2388.9,1389.3 2423,1389.3 					"/>
					<polygon fill="#371C45" points="2263,1489.9 2388.9,1416.3 2388.9,1449.8 2298.7,1489.9 2298.7,1497.3 2263,1497.3 					"/>
					<polygon fill="#371C45" points="2548.9,1489.9 2423,1416.3 2423,1449.8 2513.3,1489.9 2513.3,1497.3 2548.9,1497.3 					"/>
					<polygon fill="#371C45" points="2394.5,1416.3 2394.5,1497.3 2386.1,1497.3 2386.1,1503 2423,1503 2423,1497.3 2415.2,1497.3 
						2417.7,1416.3 					"/>
				</g>
			</g>
			<rect x="2388.8" y="1170.6" fill="#303030" width="33.9" height="25.9"/>
		</g>
		<path fill="#004555" d="M2552.6,1170.6h-293.2l0,0c0-18.1,14.7-32.8,32.8-32.8h227.5C2537.9,1137.7,2552.6,1152.4,2552.6,1170.6
			L2552.6,1170.6z"/>
		<path fill="#333A6A" d="M2375.1,776.6c0,0,47.2,18.8,69,1.4l6.6,15.2c0,0-7.5,13.1-37.8,15.4c-30.3,2.3-45.1-19.2-45.1-19.2
			L2375.1,776.6z"/>
		<path fill="#F66D75" d="M2381.5,703.1c0,0-10.8-8.2-10.8-2.2c0,6.1-1.2,27.5,8.9,21.5C2389.7,716.5,2381.5,703.1,2381.5,703.1z"/>
		<path fill="#170053" d="M2393.9,643.2c0,0-20.5-6.7-26.1,14.1c-5.6,20.8,9.3,42.2,9.3,52.6c0,10.4,5.6,22.3,15.3,32.1
			c9.8,9.8,32.6,20,32.6,20s25.4-15.7,34.1-33c8.7-17.3,3.5-28.9,6.9-54.8c3.5-26-14.3-34.6-21.9-34.6
			C2436.6,639.5,2410.6,611.3,2393.9,643.2z"/>
		<polygon fill="#1E0C00" points="2559.2,1051.1 2472.8,1025.1 2471.3,1047.6 2529.4,1060.6 2515.2,1138.8 2531.7,1140 		"/>
		<path fill="#4B2847" d="M2200.5,748.1c0-6.3-5-8.3-11.1-9.7c-21-4.7-48.1-5.5-46.1,1.8c2.6,9.5,22.7,22.6,36.5,22.6
			c13.7,0,20.2-11.2,20.2-11.2L2200.5,748.1z"/>
		<path fill="#FC7575" d="M2185,718.5l4.4,50.6c0,0-18.4,9.1-41.3-1.6l9.2-83L2185,718.5z"/>
		<path fill="#FD5E5A" d="M2185,718.5l1.9,21.8c-2.1-0.1-4.2-0.7-6.4-1.8c-17.6-9.5-20.2-35.6-20.5-50.5L2185,718.5z"/>
		<path fill="#FC7575" d="M2216.7,631.3c0,0,8.1,6.3,9.9,17.8c1.8,11.5-5.8,24.3-5.8,34c0,9.7-17.9,55.7-40.3,44.8
			c-22.3-10.9-20.5-45.9-20.5-53.7c0-7.8,10.9-35,24.1-41.3C2197.4,626.5,2216.7,631.3,2216.7,631.3z"/>
		<g>
			<path fill="#510B5E" d="M2206,676.5c0,0-0.9-5.4-4.2-9.4c-3.3-3.9-12.5-4.5-12.5-4.5s8.6,2.1,10.8,4.8c2.1,2.7,3,6.7,3,6.7
				L2206,676.5z"/>
			<path fill="#510B5E" d="M2211,680.3c0,0,3.5-3.3,7.3-3.9c3.8-0.6,7.1,4.4,7.1,4.4s-4-3.5-6.5-3c-2.5,0.5-5.2,2.7-5.2,2.7
				L2211,680.3z"/>
			<path fill="#FFFFFF" d="M2184.1,706.8c6.8,2.9,9.8,5.7,18.7,5.3C2196,714.5,2188,711.8,2184.1,706.8z"/>
			<path fill="#510B5E" d="M2197,679.6c-0.6,2.2-2.4,3.6-3.9,3.1c-1.5-0.5-2.3-2.6-1.6-4.8c0.6-2.2,2.4-3.6,3.9-3.1
				C2197,675.3,2197.7,677.4,2197,679.6z"/>
			<path fill="#42004A" d="M2183.9,677.2c13.5-7.4,15.2,1.6,18.5,3.2c-2.8-0.7-5.1-4.7-8.4-4.8
				C2191.3,675.4,2186.9,676.5,2183.9,677.2z"/>
			<path fill="#510B5E" d="M2217.9,689.5c-0.7,1.7-2.2,2.6-3.4,2.1c-1.1-0.5-1.5-2.3-0.8-4c0.7-1.7,2.2-2.6,3.4-2.1
				C2218.2,686.1,2218.6,687.9,2217.9,689.5z"/>
			<path fill="#42004A" d="M2208.8,688.8c9.8-9.3,12.7-0.7,15.6,0.4c-2.4-0.3-4.9-3.8-7.7-3.5C2214.5,686,2211.1,687.7,2208.8,688.8
				z"/>
			
				<ellipse transform="matrix(0.9598 0.2808 -0.2808 0.9598 280.1742 -585.045)" fill="#FD5E5A" cx="2182" cy="685.3" rx="7.5" ry="5.7"/>
			<path fill="#510B5E" d="M2210.3,684.5c-2.3,5.3-4.6,12-6.2,17.7c-2.1,0-4.5-0.6-6.4-1.9c2.6,2.9,6.9,2.8,7.1,2.9
				C2206.3,698.6,2208.6,692.6,2210.3,684.5z"/>
		</g>
		<path opacity="0.53" fill="#FD5E5A" d="M2216.7,631.3c0,0,8.1,6.3,9.9,17.8c1.8,11.5,3.7,32.2-5.8,34c-5.5,1-24.6-30.6-19.2-53.5
			C2209.9,629.6,2216.7,631.3,2216.7,631.3z"/>
		<path fill="#95508D" d="M2143.3,740.2l-5.6,24.8c6.4,10,39.1,61.5,47.8,75.3c5.4,8.6,11.5-49.4,15-92.2
			C2176.6,755.7,2163.2,759.5,2143.3,740.2z"/>
		<path fill="#FC7575" d="M2889,672.4c0,0-0.4,18,3.9,18c4.3,0,13.8-10.2,12.2-21C2903.5,658.5,2891,659.8,2889,672.4z"/>
		<path fill="#FD5E5A" d="M2892,670.4c0,0-2.2,7.1,1.1,10.4c3.2,3.2,9.5-4.5,6.1-10.4C2895.7,664.6,2892.7,666.3,2892,670.4z"/>
		<path fill="#2D1175" d="M2844.8,665.4l-0.7,4.3c0,0,7.6-0.9,11.8,3.3c4.2,4.2,4.7,4.6,4.7,4.6S2858.5,667.9,2844.8,665.4z"/>
		<ellipse fill="#2D1175" cx="2849.7" cy="678.8" rx="3.4" ry="4"/>
		<path fill="#2D1175" d="M2842.3,727.2c0,0-1.4,7-1.4,11.1c0,4,10.1,8.5,19.2,5.9c9.1-2.6,21.7-8.6,24.8-11.7
			c3.1-3.1,5.6-45,5.6-45l-8.2-1.6c0,0-4.1,27.3-7.5,30.7C2871.4,720.1,2842.3,727.2,2842.3,727.2z"/>
		<path fill="#2D1175" d="M2846.6,718.9c2.6,0,5.2-0.6,7.3-1.8c1-0.7,1.9-1.5,2.4-2.5c0.6-1,0.8-2.1,0.9-3.2l0-0.1
			c0.1-0.7,0.7-1.2,1.5-1.1s1.2,0.7,1.1,1.5c0,0.1,0,0.1,0,0.2c-0.4,1.4-0.9,2.8-1.9,4c-0.9,1.1-2.1,2-3.4,2.5
			C2851.9,719.3,2849.2,719.3,2846.6,718.9z"/>
		<path fill="#2D1175" d="M2818.8,628.7c-0.2,1.5,1.3,4.1,2.2,5.3c4.8,6.2,14.1,7.1,20.3,7.9c-0.8,0-9.1,1.7-16.1-0.3
			c-7.5-2-12-6.9-13.3-11.9L2818.8,628.7z"/>
		<path fill="#322554" d="M1755,1403.9c-3.8,0-6.5-14.1-7.7-21.8c-1.5,2-3.1,3.7-5.2,5.7c-7.4,7.4-4,25.8,0,29.8
			c4.1,4,35.4-4.2,39-16.5c0.5-1.8,1.1-3.8,1.8-6.2C1774.7,1398.1,1758.8,1403.9,1755,1403.9z"/>
		<path fill="#322554" d="M1821.2,1311.1c0,0-11.4,18.9-11.4,27.7c0,8.9,5.7,58.8,5.7,58.8l7.6,0.3c0,0-5.6-34.2-0.8-35.4
			c4.8-1.3,12.6,45.4,12.6,45.4l39.2,2.7c0,0,0.7-13-11.4-22.2c-12-9.2-12.6-6.2-18.4-25.9
			C1838.6,1342.8,1821.2,1311.1,1821.2,1311.1z"/>
		<path fill="#FF4747" d="M1812.7,1088.5c0,0-0.9,13.2,3,17.1c3.9,3.9,22.9,1.4,22.9-8.6C1838.6,1087.1,1818.6,1082.6,1812.7,1088.5
			z"/>
		<path fill="#FF4747" d="M2206.6,1059.4c-15.4,5.9,3.5,23.1,15.6,21.1C2234.3,1078.4,2225.6,1052,2206.6,1059.4z"/>
		<path fill="#FF4747" d="M2162.2,1052.7c0,0-6.7-6.5-20.5-4.6c-13.9,1.9,9.9,25.4,20.8,22.8
			C2173.4,1068.3,2162.2,1052.7,2162.2,1052.7z"/>
		<path fill="#FF4747" d="M2055.5,969.2c5.6-0.6,12.1-0.5,12.1,3.2c0,6.5-20.3,11.3-20.3,6.1C2047.4,978.1,2047.5,970,2055.5,969.2z
			"/>
		<path fill="#FC7575" d="M1793.2,908.4c0,0-2.1-19.4-4.4-22c-2.4-2.6-23.3-28.5-25.9-25.7c-2.6,2.8,15.5,23.3,15.5,23.3
			s-21.4-20-22.5-15.5c-1.2,4.6,19.6,23.7,19.6,23.7s-21.9-16.6-21.9-13.1c0,0,20.5,21.4,21.2,22.2c0.7,0.8,2.6,11.5,2.6,11.5
			L1793.2,908.4z"/>
		<path fill="#FC7575" d="M1777,863.2c0,0,10.1,4.8,10.1,8.6c0,3.8,3,21.7,3,21.7l-8.7-3.7l1.7-16.1
			C1783.2,873.8,1773.5,863.2,1777,863.2z"/>
		<path fill="#1B2B80" d="M1850.6,608.1c-12.5,1.4-32.4-1.6-41.6,18.8c-5.5,11.6-16.6,34-16.6,73.8c0,59.3-57.2,85.5-57.2,85.5
			l25.1,12.1l15-12.1l-10.2,21.8l41.1,4.1l1.8-28.4l8.5,32.3l19.2-3.9c0,0-7.6-97-8.4-133.6c0.1,0.2,0.2,0.2,0.2,0.2
			s-0.2-4.7-0.2-10.8c0,0,0,0,0,0c0.1-1.8,0.1-3.6,0-5.5c0.1-5.8,0.4-12,1.2-16.1c1.8-10,5.5-15.1,14.5-19.4
			c9-4.3,41.2,7.9,41.2,7.9C1883,616.2,1863.2,606.6,1850.6,608.1z"/>
		<path fill="#2F499F" d="M1867.4,611.4c15.8,3.5,20.5,27.7,33.4,40.6c12.9,12.9,9.6,31.5,3.5,43.8c-6.1,12.3-16,4.3-16,4.3
			s5.1,2.9,8.4-7.4c3.3-10.2-2.5-18.2-19.8-23.9c-17.4-5.7-34-41.9-34-41.9C1842.5,619.8,1851.7,608,1867.4,611.4z"/>
		<path fill="#023135" d="M1888.3,700.1c6,3.5,14.4-11.1,8.3-20.7c-4.5-7.4-14.3-10.5-22.1-13.7c-12.4-7.1-24.3-26.8-31.6-38.8
			c5.2,14.3,16.3,34.2,29.7,42.2l3.2,1.4c3.3,1.3,13.4,4,18.3,10.6c3.9,5.2,2.1,13.1-0.6,16.9
			C1892.5,699.6,1890.4,700.9,1888.3,700.1z"/>
		<path fill="#FC7575" d="M1830.6,680.5c0,0-4.4-19-11.7-14.4c-7.3,4.6,0.5,25.6,7.3,25.6C1833.1,691.7,1830.6,680.5,1830.6,680.5z"
			/>
		<path fill="#FD5E5A" d="M1823.6,670.1c0,0,10.8,17.3,3.4,15.4C1819.6,683.5,1816.6,666.9,1823.6,670.1z"/>
		<path fill="#560D68" d="M2218.2,632.4c17.9,4.5,24.9,22,16,35.5c-1.5,2.3-3.6,4.4-6.3,4.6v-3.9c1,0.2,2.9-1.9,3.5-2.7
			C2240.4,654.6,2234.9,638,2218.2,632.4z"/>
		<path fill="#510B5E" d="M2205.1,620.2c0,0,12.6,0,21.8,9.3c9.3,9.3,6.5,45.8,0,51.2c-6.5,5.4,16.5,10.5,2.7,10.5
			C2215.9,691.3,2192.8,621.5,2205.1,620.2z"/>
		<path fill="#510B5E" d="M2221.1,637c0.2-0.6-7.1-20.2-24.9-23.1c-21.3-3.5-46.5,12.4-54.2,33.9c-7.7,21.5-14.6,46-35.7,52.1
			c-21.1,6.1-24.9,37.1-18.3,56.6c6.6,19.5,26.7,14.5,26.7,14.5s-12.3-10.7-9.1-14c0,0,9.4,18.2,20,14.6c10.6-3.6,14.9-9.5,14.9-9.5
			s-18.3-2.8-6.3-13c8.4-7.1,12.7-13.6,22.6-25.6c9.5-11.5,4.5-42.2,12.8-64.2c1.1,0.9,2.7,1.7,5.2,1.9c11.3,1.2,6.1-7,16.9-19.3
			C2210.3,631.5,2219.8,637.1,2221.1,637z"/>
		<path fill="#560D68" d="M2147.1,661.4c2.9,8.3,5,19.2,4.6,27.7c-1.4,27.1-30.2,13-38.2,13.5c-4.9,0.2-9.1,4.7-7.3,10.9
			c1.4,5,4.7,6.6,6.4,8.6c2.6,3.1,1.2,6.8-1.8,8.2c-5.9,3-13.3-3.8-15.6,4.3c-1.8,5.6-0.1,12.3,4.4,16.6c-5-3.7-7.6-10.7-6.2-17.1
			c1.5-6.6,6-6.3,12.4-5.8c3.9,0.3,5.3-1.6,5-2.8c-0.3-2.4-5.7-3.3-8-10.9c-1.9-5.5,0.3-11.3,5.3-14.2c13.2-7.6,42.6,19.8,41.4-20.5
			C2149.3,673.6,2148.3,667.5,2147.1,661.4z"/>
		<path fill="#FC7575" d="M2171.7,667.1c0,0,0.4-10.4-5-9.6c-5.4,0.9-9.3,8-6.6,15C2162.8,679.5,2172.5,676.4,2171.7,667.1z"/>
		<path fill="#FD5E5A" d="M2169.6,668.7c0,0,0.7-6.4-1.7-7c-2.4-0.6-4.9,4.4-4.4,7.7C2164.1,672.8,2169.2,672.6,2169.6,668.7z"/>
	</g>
</g>
</svg>
