<?xml version="1.0" encoding="iso-8859-1"?>
<!-- Generator: Adobe Illustrator 19.0.0, SVG Export Plug-In . SVG Version: 6.00 Build 0)  -->
<svg version="1.1" id="Capa_1" xmlns="http://www.w3.org/2000/svg" xmlns:xlink="http://www.w3.org/1999/xlink" x="0px" y="0px"
	 viewBox="0 0 512 512" style="enable-background:new 0 0 512 512;" xml:space="preserve">
<g>
	<g>
		<g>
			<path d="M469.333,76.8H259.105C244.322,31.022,201.706,0,153.6,0C105.495,0,62.878,31.022,48.095,76.8h-5.429
				C19.114,76.828,0.028,95.914,0,119.467v281.6c0.028,23.553,19.114,42.639,42.667,42.667H179.2V460.8h-59.733
				c-2.263-0.001-4.434,0.898-6.035,2.499c-1.6,1.6-2.499,3.771-2.499,6.035v34.133c-0.001,2.263,0.898,4.434,2.499,6.035
				c1.6,1.6,3.771,2.499,6.035,2.499h273.067c2.263,0.001,4.434-0.898,6.035-2.499c1.6-1.6,2.499-3.771,2.499-6.035v-34.133
				c0.001-2.263-0.898-4.434-2.499-6.035c-1.6-1.6-3.771-2.499-6.035-2.499H332.8v-17.067h136.533
				c23.553-0.028,42.639-19.114,42.667-42.667v-281.6C511.972,95.914,492.886,76.828,469.333,76.8z M71.048,66.166
				c16.406-30.291,48.104-49.143,82.552-49.099c34.448-0.044,66.146,18.808,82.552,49.099c16.406,30.291,14.878,67.14-3.981,95.968
				h-18.838c-0.027-22.291-12.458-42.714-32.245-52.977c13.708-11.546,18.738-30.428,12.593-47.264S171.523,33.856,153.6,33.856
				c-17.923,0-33.935,11.201-40.081,28.036s-1.115,35.718,12.593,47.264c-19.787,10.263-32.218,30.686-32.245,52.977H75.029
				C56.17,133.305,54.641,96.457,71.048,66.166z M153.6,119.467c23.564,0,42.667,19.103,42.667,42.667h-85.333
				C110.933,138.569,130.036,119.467,153.6,119.467z M128,76.8c0-14.138,11.461-25.6,25.6-25.6c14.138,0,25.6,11.461,25.6,25.6
				s-11.461,25.6-25.6,25.6C139.468,102.385,128.015,90.932,128,76.8z M217.826,179.2c-36.015,34.133-92.437,34.133-128.452,0H102.4
				H217.826z M384,477.867v17.067H128v-17.067H384z M196.267,460.8v-17.067h119.467V460.8H196.267z M494.933,401.067
				c-0.015,14.132-11.468,25.585-25.6,25.6H42.667c-14.132-0.015-25.585-11.468-25.6-25.6v-25.6h477.867V401.067z M494.933,358.4
				H17.067V119.467c0.015-14.132,11.468-25.585,25.6-25.6h1.453c-4.739,28.619,2.206,57.943,19.278,81.397
				c0.332,0.572,0.729,1.103,1.184,1.583c20.828,28.306,53.876,45.02,89.019,45.02c35.143,0,68.191-16.714,89.019-45.02
				c0.455-0.48,0.853-1.011,1.184-1.583c17.072-23.454,24.017-52.778,19.278-81.397h206.253c14.132,0.015,25.585,11.468,25.6,25.6
				V358.4z"/>
			<path d="M230.4,238.933H76.8c-4.713,0-8.533,3.82-8.533,8.533S72.087,256,76.8,256h153.6c4.713,0,8.533-3.82,8.533-8.533
				S235.113,238.933,230.4,238.933z"/>
			<path d="M230.4,273.067H76.8c-4.713,0-8.533,3.821-8.533,8.533s3.82,8.533,8.533,8.533h153.6c4.713,0,8.533-3.82,8.533-8.533
				S235.113,273.067,230.4,273.067z"/>
			<path d="M230.4,307.2H76.8c-4.713,0-8.533,3.82-8.533,8.533s3.82,8.533,8.533,8.533h153.6c4.713,0,8.533-3.82,8.533-8.533
				S235.113,307.2,230.4,307.2z"/>
			<path d="M384,110.933h-85.333c-9.421,0.011-17.056,7.645-17.067,17.067v68.267c0.011,9.421,7.645,17.056,17.067,17.067H384
				c9.421-0.011,17.056-7.646,17.067-17.067V128C401.056,118.579,393.421,110.944,384,110.933z M368.933,128l-27.6,23.025
				L313.733,128H368.933z M298.667,137.653l19.649,16.393l-19.649,25.583V137.653z M307.409,196.267l24.022-31.278l4.439,3.703
				c3.166,2.633,7.759,2.633,10.925,0l4.439-3.703l24.022,31.279H307.409z M364.351,154.045l19.651-16.394l0.008,41.99
				L364.351,154.045z"/>
			<path d="M341.333,230.4c-32.99,0-59.733,26.744-59.733,59.733c0.038,32.974,26.759,59.695,59.733,59.733
				c32.99,0,59.733-26.744,59.733-59.733S374.323,230.4,341.333,230.4z M299.529,298.667h16.448
				c0.385,9.651,1.926,19.222,4.59,28.506C309.752,321.172,302.075,310.77,299.529,298.667z M315.977,281.6h-16.448
				c2.546-12.104,10.222-22.505,21.038-28.506C317.903,262.378,316.362,271.949,315.977,281.6z M341.333,332.025
				c-5.523-10.246-8.372-21.719-8.285-33.358h16.57C349.706,310.306,346.856,321.779,341.333,332.025z M349.618,281.6h-16.57
				c-0.088-11.639,2.762-23.113,8.285-33.358C346.856,258.487,349.706,269.961,349.618,281.6L349.618,281.6z M362.099,327.172
				c2.664-9.284,4.205-18.854,4.59-28.506h16.448C380.592,310.77,372.915,321.172,362.099,327.172z M366.69,281.6
				c-0.385-9.651-1.926-19.222-4.59-28.506c10.816,6,18.492,16.402,21.038,28.506H366.69z"/>
			<path d="M469.333,153.6h-42.667c-4.713,0-8.533,3.82-8.533,8.533s3.82,8.533,8.533,8.533h42.667c4.713,0,8.533-3.82,8.533-8.533
				S474.046,153.6,469.333,153.6z"/>
			<path d="M469.333,187.733h-42.667c-4.713,0-8.533,3.82-8.533,8.533s3.82,8.533,8.533,8.533h42.667
				c4.713,0,8.533-3.82,8.533-8.533S474.046,187.733,469.333,187.733z"/>
			<path d="M469.333,290.133h-42.667c-4.713,0-8.533,3.82-8.533,8.533s3.82,8.533,8.533,8.533h42.667
				c4.713,0,8.533-3.82,8.533-8.533S474.046,290.133,469.333,290.133z"/>
			<path d="M469.333,324.267h-42.667c-4.713,0-8.533,3.821-8.533,8.533c0,4.713,3.82,8.533,8.533,8.533h42.667
				c4.713,0,8.533-3.821,8.533-8.533C477.867,328.087,474.046,324.267,469.333,324.267z"/>
		</g>
	</g>
</g>
<g>
</g>
<g>
</g>
<g>
</g>
<g>
</g>
<g>
</g>
<g>
</g>
<g>
</g>
<g>
</g>
<g>
</g>
<g>
</g>
<g>
</g>
<g>
</g>
<g>
</g>
<g>
</g>
<g>
</g>
</svg>
