<?xml version="1.0"?>
<svg xmlns="http://www.w3.org/2000/svg" height="512px" viewBox="0 -35 448 448" width="512px"><g><path d="m401.738281 71h-173.027343l-43.664063-53.796875c-8.6875-10.800781-21.777344-17.1171875-35.640625-17.203125h-103.144531c-25.363281 0-46.261719 21.109375-46.261719 46.472656v285.054688c0 25.363281 20.898438 46.472656 46.261719 46.472656h355.476562c25.363281 0 46.261719-21.109375 46.261719-46.472656v-214.628906c0-25.363282-20.898438-45.898438-46.261719-45.898438zm-385.738281 260.527344v-285.054688c0-16.542968 13.71875-30.472656 30.261719-30.472656h103.144531c9.054688.09375 17.589844 4.25 23.246094 11.320312l35.40625 43.679688h-110.625c-25.367188 0-46.433594 20.535156-46.433594 45.898438v245.101562h-4.738281c-16.542969 0-30.261719-13.929688-30.261719-30.472656zm216.160156-91.527344h33.679688l.101562 90h-33.882812zm7.484375-16 9.355469-13.195312 9.355469 13.195312zm-7.605469 122h33.921876l.015624 16h-33.953124zm199.960938-14.472656c0 16.542968-13.71875 30.472656-30.261719 30.472656h-119.761719l-.144531-129.410156c0-1.691406-.515625-3.34375-1.472656-4.734375l-24.832031-35.089844c-1.492188-2.125-3.921875-3.390625-6.515625-3.402344-2.59375-.007812-5.035157 1.246094-6.539063 3.359375l-24.832031 35.019532c-.957031 1.4375-1.472656 3.125-1.472656 4.851562l-.144531 129.40625h-149.023438v-245.101562c0-16.539063 13.890625-29.898438 30.433594-29.898438h304.304687c16.542969 0 30.261719 13.359375 30.261719 29.898438zm0 0" data-original="#000000" class="active-path" data-old_color="#000000" fill="#60A7CF"/><path d="m383.800781 139h-29.582031c-4.417969 0-8.21875 3.132812-8.21875 7.550781v8.449219h-68.917969c-2.078125-14.132812-14.203125-24.609375-28.488281-24.609375s-26.410156 10.476563-28.484375 24.609375h-68.109375v-8.449219c0-4.417969-3.800781-7.550781-8.21875-7.550781h-29.582031c-4.417969 0-8.199219 3.132812-8.199219 7.550781v29.578125c.105469 4.429688 3.769531 7.945313 8.199219 7.871094h29.578125c4.4375.078125 8.109375-3.433594 8.222656-7.871094v-5.128906h35.648438c-19.648438 14.054688-33.695313 34.59375-39.671876 58h-13.976562c-4.464844.109375-8.019531 3.769531-8 8.234375v37.164063c0 4.417968 3.578125 7.601562 8 7.601562h37.164062c2.0625.085938 4.070313-.679688 5.550782-2.117188 1.480468-1.4375 2.308594-3.417968 2.285156-5.484374v-37.164063c.09375-4.429687-3.402344-8.109375-7.835938-8.234375h-6.578124c8.738281-27.550781 30.320312-49.132812 57.871093-57.875 4.671875 10.238281 14.894531 16.804688 26.148438 16.796875 11.253906-.007813 21.464843-6.585937 26.128906-16.828125 27.558594 8.742188 49.144531 30.339844 57.867187 57.90625h-6.578124c-4.46875.109375-8.03125 3.765625-8.023438 8.234375v37.164063c0 4.417968 3.605469 7.601562 8.023438 7.601562h37.167968c2.058594.085938 4.0625-.679688 5.539063-2.117188 1.476562-1.4375 2.296875-3.421874 2.269531-5.484374v-37.164063c.105469-4.425781-3.382812-8.105469-7.808594-8.234375h-13.972656c-5.964844-23.40625-20.007812-43.949219-39.652344-58h36.433594v5.128906c.113281 4.433594 3.785156 7.949219 8.21875 7.871094h29.582031c4.429688.074219 8.09375-3.441406 8.199219-7.871094v-29.578125c0-4.417969-3.78125-7.550781-8.199219-7.550781zm-247.800781 29h-14v-13h14zm27 98h-21v-21h21zm192 0h-21v-21h21zm-106.398438-94.019531c-7.066406 0-12.796874-5.726563-12.796874-12.792969s5.726562-12.796875 12.792968-12.796875c7.070313 0 12.796875 5.730469 12.796875 12.796875-.007812 7.0625-5.730469 12.785156-12.792969 12.792969zm127.398438-3.980469h-14v-13h14zm0 0" data-original="#000000" class="active-path" data-old_color="#000000" fill="#60A7CF"/></g> </svg>
