<svg height="426pt" viewBox="0 -42 426.66667 426" width="426pt" xmlns="http://www.w3.org/2000/svg"><path d="m112 341.667969h-53.332031c-32.363281 0-58.667969-26.304688-58.667969-58.667969v-53.332031c0-32.363281 26.304688-58.667969 58.667969-58.667969h53.332031c32.363281 0 58.667969 26.304688 58.667969 58.667969v53.332031c0 32.363281-26.304688 58.667969-58.667969 58.667969zm-53.332031-138.667969c-14.699219 0-26.667969 11.96875-26.667969 26.667969v53.332031c0 14.699219 11.96875 26.667969 26.667969 26.667969h53.332031c14.699219 0 26.667969-11.96875 26.667969-26.667969v-53.332031c0-14.699219-11.96875-26.667969-26.667969-26.667969zm0 0"/><path d="m16 245.667969c-8.832031 0-16-7.167969-16-16v-106.667969c0-67.625 55.019531-122.667969 122.667969-122.667969h32c8.832031 0 16 7.167969 16 16s-7.167969 16-16 16h-32c-50.007813 0-90.667969 40.683594-90.667969 90.667969v106.667969c0 8.832031-7.167969 16-16 16zm0 0"/><path d="m368 341.667969h-53.332031c-32.363281 0-58.667969-26.304688-58.667969-58.667969v-53.332031c0-32.363281 26.304688-58.667969 58.667969-58.667969h53.332031c32.363281 0 58.667969 26.304688 58.667969 58.667969v53.332031c0 32.363281-26.304688 58.667969-58.667969 58.667969zm-53.332031-138.667969c-14.699219 0-26.667969 11.96875-26.667969 26.667969v53.332031c0 14.699219 11.96875 26.667969 26.667969 26.667969h53.332031c14.699219 0 26.667969-11.96875 26.667969-26.667969v-53.332031c0-14.699219-11.96875-26.667969-26.667969-26.667969zm0 0"/><path d="m272 245.667969c-8.832031 0-16-7.167969-16-16v-106.667969c0-67.625 55.019531-122.667969 122.667969-122.667969h32c8.832031 0 16 7.167969 16 16s-7.167969 16-16 16h-32c-50.007813 0-90.667969 40.683594-90.667969 90.667969v106.667969c0 8.832031-7.167969 16-16 16zm0 0"/></svg>