<?xml version="1.0" encoding="utf-8"?>
<!-- Generator: Adobe Illustrator 18.1.1, SVG Export Plug-In . SVG Version: 6.00 Build 0)  -->
<svg version="1.1" xmlns="http://www.w3.org/2000/svg" xmlns:xlink="http://www.w3.org/1999/xlink" x="0px" y="0px"
	 viewBox="0 0 500 500" enable-background="new 0 0 500 500" xml:space="preserve">
<g id="BACKGROUND">
	<g id="XMLID_2_">
	</g>
	<rect id="XMLID_83_" x="0" y="0" fill="#F9F9F9" width="500" height="500"/>
</g>
<g id="OBJECTS">
	<g id="XMLID_1342_">
	</g>
	<g id="XMLID_522_">
		<linearGradient id="XMLID_47_" gradientUnits="userSpaceOnUse" x1="47.5703" y1="250.0002" x2="452.4292" y2="250.0002">
			<stop  offset="0" style="stop-color:#C2E1FE"/>
			<stop  offset="1" style="stop-color:#259AFF;stop-opacity:0"/>
		</linearGradient>
		<path id="XMLID_237_" opacity="0.3" fill="url(#XMLID_47_)" d="M64.1,374.2c-8.5-6.7-14.1-16.5-15.5-27.2
			c-4.8-36,3.6-116.3,79.4-183.5c92.1-81.5,188.2-75.9,234.8-55.4c51.3,22.5,83.9,98.1,89.2,165.4c4,50.6-24.9,94.2-73.8,107.9
			C296.2,404.5,125.9,422.7,64.1,374.2z"/>
		
			<linearGradient id="XMLID_51_" gradientUnits="userSpaceOnUse" x1="39.5158" y1="243.8404" x2="460.4837" y2="243.8404" gradientTransform="matrix(-1 0 0 1 499.9995 0)">
			<stop  offset="0" style="stop-color:#C2E1FE"/>
			<stop  offset="1" style="stop-color:#259AFF;stop-opacity:0"/>
		</linearGradient>
		<path id="XMLID_521_" opacity="0.3" fill="url(#XMLID_51_)" d="M443.2,373c8.9-6.9,14.6-17.1,16.1-28.3
			c5-37.5-3.7-120.9-82.6-190.8C281,69.2,181,75.1,132.6,96.3c-53.4,23.4-87.2,102-92.7,172c-4.1,52.7,25.9,97.9,76.8,112.2
			C202,404.5,379,423.4,443.2,373z"/>
	</g>
	<g id="XMLID_4_">
		<g id="XMLID_1_">
			<g id="XMLID_41_">
				<path id="XMLID_97_" fill="#417F00" d="M211.7,312.5c1.4-8.6-1.1-17.7-7.6-23.7c-3.9-3.5-10.9-5.4-12.2-11.1
					c-1-4.9,1.8-9.8,2.5-14.6c1.2-8.5-1.9-17.5-8.1-23.4c-4.2-4-10.3-6-13.6-10.9c-3.1-4.5-3.6-10.3-4.6-15.5
					c-1.5-7.6-6.8-18.4-16.3-16.2c-8.1,1.9-10.8,11.8-10.9,19c0,2.6,0.2,5.1,0.7,7.6c0.6,2.9,1.8,5.7,2.2,8.6
					c0.4,3.1,0.6,6.7-0.3,9.7c-0.8,2.7-2.1,5.3-2.9,8c-2.8,10.1-0.1,20.9,4.8,29.9c3.3,6,5.7,10.9,4.9,17.9
					c-0.6,5.5-2.1,10.8-1.7,16.4c0.8,10.9,8.8,19.3,18.4,23.5c0.3,0.1,0.5,0.1,0.8,0C186.4,343.4,207.7,331.8,211.7,312.5z"/>
				<path id="XMLID_190_" opacity="0.5" fill="#417F00" d="M211.7,312.5c1.4-8.6-1.1-17.7-7.6-23.7c-3.9-3.5-10.9-5.4-12.2-11.1
					c-1-4.9,1.8-9.8,2.5-14.6c1.2-8.5-1.9-17.5-8.1-23.4c-4.2-4-10.3-6-13.6-10.9c-3.1-4.5-3.6-10.3-4.6-15.5
					c-1.5-7.6-6.8-18.4-16.3-16.2c-8.1,1.9-10.8,11.8-10.9,19c0,2.6,0.2,5.1,0.7,7.6c0.6,2.9,1.8,5.7,2.2,8.6
					c0.4,3.1,0.6,6.7-0.3,9.7c-0.8,2.7-2.1,5.3-2.9,8c-2.8,10.1-0.1,20.9,4.8,29.9c3.3,6,5.7,10.9,4.9,17.9
					c-0.6,5.5-2.1,10.8-1.7,16.4c0.8,10.9,8.8,19.3,18.4,23.5c0.3,0.1,0.5,0.1,0.8,0C186.4,343.4,207.7,331.8,211.7,312.5z"/>
				<path id="XMLID_94_" fill="#417F00" d="M188.9,350c-2.8-10.8-5.7-21.6-8.5-32.4c0,0,0,0,0,0c4.8-8.9,8.3-18.3,10.5-28.2
					c0.3-1.3-1.8-1.6-2-0.3c-2,8.9-5.1,17.5-9.3,25.6c-2.4-9.1-4.8-18.3-7.1-27.4c0.1-0.1,0.1-0.1,0.2-0.2c4.9-9.2,8.7-18.9,11.2-29
					c0.3-1.3-1.7-1.5-2-0.3c-2.3,9.3-5.7,18.2-10.1,26.7c-2.2-8.6-4.4-17.1-6.6-25.7c3.1-6.7,5.7-13.5,7.7-20.6
					c0.4-1.3-1.5-2.1-1.9-0.8c-1.8,6.2-4,12.3-6.6,18.2c-2.2-8.5-4.4-17.1-6.6-25.6c0.1-0.1,0.2-0.2,0.3-0.3
					c2.1-4.3,4.1-8.7,5.8-13.1c0.5-1.2-1.4-2-1.9-0.8c-1.5,3.8-3.2,7.6-4.9,11.3c-1.5-5.7-2.9-11.4-4.4-17.2c-0.3-1.3-2.4-1-2,0.3
					c2,7.9,4,15.8,6,23.7c-3-3.2-6.1-6.2-9.3-9.2c-1-0.9-2.2,0.7-1.3,1.6c4,3.7,7.9,7.6,11.6,11.6c1.8,7,3.6,13.9,5.3,20.9
					c0,0.1,0,0.2,0.1,0.2c1,3.9,2,7.8,3,11.7c-7.5-5.1-14.3-11-20.4-17.6c-0.9-1-2.5,0.3-1.6,1.3c6.8,7.4,14.4,13.8,22.8,19.3
					c2.6,9.9,5.1,19.8,7.7,29.7c-6-3.9-12-7.8-18-11.7c-1.1-0.7-2.4,0.9-1.3,1.6c6.7,4.3,13.3,8.7,20,13
					c3.9,14.9,7.8,29.7,11.7,44.6C187.4,352,189.3,351.2,188.9,350z"/>
			</g>
			<g id="XMLID_109_">
				<path id="XMLID_333_" fill="#235F00" d="M83.8,281c2.1,3.1,4.9,5.7,6.8,8.8c2,3.4,4,7.5,4.5,11.4c0.4,3.5,0.2,7.2,0.6,10.7
					c1.7,13.1,10.2,24.2,20.4,32.1c6.8,5.3,12,9.8,14.6,18.3c2,6.6,2.9,13.6,6.1,19.8c3.7,7.1,9.8,12,16.8,14.9h28.2
					c18.5-7.5,31.2-27.6,27.1-48.1c-2.6-10.6-10.1-20-20.5-23.6c-6.2-2.2-15.3-0.8-19.5-6.8c-3.6-5.2-2.7-12.2-4.3-18.1
					c-2.8-10.4-10.9-19.2-21-23c-6.9-2.6-14.8-1.8-21.2-5.9c-5.8-3.7-9.2-10.1-13-15.6c-5.5-8-16.9-17.9-26.8-10.6
					c-8.4,6.2-6.6,19-3.2,27.3C80.4,275.5,82,278.4,83.8,281z"/>
				<path id="XMLID_252_" fill="#235F00" d="M106.3,285c-5-2.2-10.1-4.2-15.3-6c-1.6-0.6-2.2,1.9-0.7,2.5c6.5,2.3,12.9,4.9,19.2,7.7
					c5.5,7.2,11,14.3,16.5,21.5c0,0.1,0.1,0.2,0.2,0.2c3.1,4,6.2,8,9.2,12c-11.1-2.2-21.9-5.6-32.3-10.2c-1.5-0.7-2.7,1.6-1.2,2.3
					c11.5,5.2,23.5,8.9,35.9,11.1c7.9,10.2,15.7,20.4,23.6,30.6c-8.8-1.5-17.7-3.1-26.5-4.6c-1.6-0.3-2.3,2.2-0.7,2.5
					c9.9,1.7,19.7,3.4,29.6,5.2c9.7,12.5,19.3,24.9,29,37.4h3.2c-6.9-8.9-13.8-17.8-20.7-26.7c0,0,0,0,0,0
					c1.2-12.7,0.5-25.3-1.8-37.8c-0.3-1.6-2.8-0.9-2.5,0.7c2.1,11.3,2.8,22.7,2,34.2c-7.3-9.4-14.5-18.8-21.8-28.2
					c0-0.1,0.1-0.2,0.1-0.4c1.1-13.1,0.6-26.1-1.4-39.1c-0.3-1.6-2.7-0.9-2.5,0.7c1.9,11.9,2.4,23.9,1.5,35.8
					c-6.8-8.8-13.6-17.6-20.4-26.5c0.3-9.2-0.1-18.4-1.3-27.6c-0.2-1.6-2.8-1.6-2.6,0c1,8.1,1.5,16.2,1.4,24.3
					c-6.8-8.8-13.5-17.6-20.2-26.4c0.1-0.1,0.1-0.3,0.1-0.5c0.3-6,0.4-12,0.2-18.1c-0.1-1.7-2.6-1.7-2.6,0
					c0.2,5.2,0.1,10.4-0.1,15.5c-4.5-5.9-9-11.8-13.5-17.7c-1-1.3-3.2,0-2.2,1.3C93.8,268.7,100.1,276.9,106.3,285z"/>
			</g>
			<g id="XMLID_110_">
				<path id="XMLID_131_" fill="#417F00" d="M292.6,312.5c-1.4-8.6,1.1-17.7,7.6-23.7c3.9-3.5,10.9-5.4,12.2-11.1
					c1-4.9-1.8-9.8-2.5-14.6c-1.2-8.5,1.9-17.5,8.1-23.4c4.2-4,10.3-6,13.6-10.9c3.1-4.5,3.6-10.3,4.6-15.5
					c1.5-7.6,6.8-18.4,16.3-16.2c8.1,1.9,10.8,11.8,10.9,19c0,2.6-0.2,5.1-0.7,7.6c-0.6,2.9-1.8,5.7-2.2,8.6
					c-0.4,3.1-0.6,6.7,0.3,9.7c0.8,2.7,2.1,5.3,2.9,8c2.8,10.1,0.1,20.9-4.8,29.9c-3.3,6-5.7,10.9-4.9,17.9
					c0.6,5.5,2.1,10.8,1.7,16.4c-0.8,10.9-8.8,19.3-18.4,23.5c-0.3,0.1-0.5,0.1-0.8,0C317.9,343.4,296.6,331.8,292.6,312.5z"/>
				<path id="XMLID_121_" opacity="0.5" fill="#417F00" d="M292.6,312.5c-1.4-8.6,1.1-17.7,7.6-23.7c3.9-3.5,10.9-5.4,12.2-11.1
					c1-4.9-1.8-9.8-2.5-14.6c-1.2-8.5,1.9-17.5,8.1-23.4c4.2-4,10.3-6,13.6-10.9c3.1-4.5,3.6-10.3,4.6-15.5
					c1.5-7.6,6.8-18.4,16.3-16.2c8.1,1.9,10.8,11.8,10.9,19c0,2.6-0.2,5.1-0.7,7.6c-0.6,2.9-1.8,5.7-2.2,8.6
					c-0.4,3.1-0.6,6.7,0.3,9.7c0.8,2.7,2.1,5.3,2.9,8c2.8,10.1,0.1,20.9-4.8,29.9c-3.3,6-5.7,10.9-4.9,17.9
					c0.6,5.5,2.1,10.8,1.7,16.4c-0.8,10.9-8.8,19.3-18.4,23.5c-0.3,0.1-0.5,0.1-0.8,0C317.9,343.4,296.6,331.8,292.6,312.5z"/>
				<path id="XMLID_111_" fill="#417F00" d="M315.3,350c2.8-10.8,5.7-21.6,8.5-32.4c0,0,0,0,0,0c-4.8-8.9-8.3-18.3-10.5-28.2
					c-0.3-1.3,1.8-1.6,2-0.3c2,8.9,5.1,17.5,9.3,25.6c2.4-9.1,4.8-18.3,7.1-27.4c-0.1-0.1-0.1-0.1-0.2-0.2
					c-4.9-9.2-8.7-18.9-11.2-29c-0.3-1.3,1.7-1.5,2-0.3c2.3,9.3,5.7,18.2,10.1,26.7c2.2-8.6,4.4-17.1,6.6-25.7
					c-3.1-6.7-5.7-13.5-7.7-20.6c-0.4-1.3,1.5-2.1,1.9-0.8c1.8,6.2,4,12.3,6.6,18.2c2.2-8.5,4.4-17.1,6.6-25.6
					c-0.1-0.1-0.2-0.2-0.3-0.3c-2.1-4.3-4.1-8.7-5.8-13.1c-0.5-1.2,1.4-2,1.9-0.8c1.5,3.8,3.2,7.6,4.9,11.3
					c1.5-5.7,2.9-11.4,4.4-17.2c0.3-1.3,2.4-1,2,0.3c-2,7.9-4,15.8-6,23.7c3-3.2,6.1-6.2,9.3-9.2c1-0.9,2.2,0.7,1.3,1.6
					c-4,3.7-7.9,7.6-11.6,11.6c-1.8,7-3.6,13.9-5.3,20.9c0,0.1,0,0.2-0.1,0.2c-1,3.9-2,7.8-3,11.7c7.5-5.1,14.3-11,20.4-17.6
					c0.9-1,2.5,0.3,1.6,1.3c-6.8,7.4-14.4,13.8-22.8,19.3c-2.6,9.9-5.1,19.8-7.7,29.7c6-3.9,12-7.8,18-11.7c1.1-0.7,2.4,0.9,1.3,1.6
					c-6.7,4.3-13.3,8.7-20,13c-3.9,14.9-7.8,29.7-11.7,44.6C316.9,352,315,351.2,315.3,350z"/>
			</g>
			<g id="XMLID_6_">
				<path id="XMLID_88_" fill="#177400" d="M420.5,284c-2.1,3.1-4.9,5.7-6.8,8.8c-2,3.4-4,7.5-4.5,11.4c-0.4,3.5-0.2,7.2-0.6,10.7
					c-1.7,13.1-10.2,24.2-20.4,32.1c-6.8,5.3-12,9.8-14.6,18.3c-2,6.6-2.9,13.6-6.1,19.8c-3.7,7.1-9.8,12-16.8,14.9h-28.2
					c-18.5-7.5-31.2-27.6-27.1-48.1c2.6-10.6,10.1-20,20.5-23.6c6.2-2.2,15.3-0.8,19.5-6.8c3.6-5.2,2.7-12.2,4.3-18.1
					c2.8-10.4,10.9-19.2,21-23c6.9-2.6,14.8-1.8,21.2-5.9c5.8-3.7,9.2-10.1,13-15.6c5.5-8,16.9-17.9,26.8-10.6
					c8.4,6.2,6.6,19,3.2,27.3C423.8,278.5,422.3,281.4,420.5,284z"/>
				<path id="XMLID_8_" fill="#177400" d="M398,288c5-2.2,10.1-4.2,15.3-6c1.6-0.6,2.2,1.9,0.7,2.5c-6.5,2.3-12.9,4.9-19.2,7.7
					c-5.5,7.2-11,14.3-16.5,21.5c0,0.1-0.1,0.2-0.2,0.2c-3.1,4-6.2,8-9.2,12c11.1-2.2,21.9-5.6,32.3-10.2c1.5-0.7,2.7,1.6,1.2,2.3
					c-11.5,5.2-23.5,8.9-35.9,11.1c-7.9,10.2-15.7,20.4-23.6,30.6c8.8-1.5,17.7-3.1,26.5-4.6c1.6-0.3,2.3,2.2,0.7,2.5
					c-9.9,1.7-19.7,3.4-29.6,5.2c-9.7,12.5-19.3,24.9-29,37.4h-3.2c6.9-8.9,13.8-17.8,20.7-26.7c0,0,0,0,0,0
					c-1.2-12.7-0.5-25.3,1.8-37.8c0.3-1.6,2.8-0.9,2.5,0.7c-2.1,11.3-2.8,22.7-2,34.2c7.3-9.4,14.5-18.8,21.8-28.2
					c0-0.1-0.1-0.2-0.1-0.4c-1.1-13.1-0.6-26.1,1.4-39.1c0.3-1.6,2.7-0.9,2.5,0.7c-1.9,11.9-2.4,23.9-1.5,35.8
					c6.8-8.8,13.6-17.6,20.4-26.5c-0.3-9.2,0.1-18.4,1.3-27.6c0.2-1.6,2.8-1.6,2.6,0c-1,8.1-1.5,16.2-1.4,24.3
					c6.8-8.8,13.5-17.6,20.2-26.4c-0.1-0.1-0.1-0.3-0.1-0.5c-0.4-6-0.4-12-0.2-18.1c0.1-1.7,2.6-1.7,2.6,0
					c-0.2,5.2-0.1,10.4,0.1,15.5c4.5-5.9,9-11.8,13.5-17.7c1-1.3,3.2,0,2.2,1.3C410.5,271.7,404.2,279.9,398,288z"/>
			</g>
			<g id="XMLID_378_">
				<polygon id="XMLID_426_" fill="#DBA6A5" points="203.2,235.8 207.3,237 212.3,239.5 207,237.3 				"/>
				<path id="XMLID_419_" fill="#259AFF" d="M234.3,239.7l4.8-4.7c0,0,23.7-6.8,38.6-10.1c14.9-3.3,16.8-0.5,16.8-0.5l6.7,11.9
					c0,0-34.2,10.1-37,9.8c-2.8-0.3-18.1,6.6-18.1,6.6L234.3,239.7z"/>
				<polygon id="XMLID_533_" fill="#00307C" points="278,399 280.2,323.3 282.2,323.3 284.7,399 304,399 309.2,296.3 252.7,288.6 
					252.7,314.5 258.1,399 				"/>
				<polygon id="XMLID_534_" fill="#00307C" points="200.7,399 220.4,399 222.7,322.2 224.7,322.2 227.2,399 246.3,399 250.2,313.9 
					247.1,292.4 201.4,281 195.2,313.4 195.8,322.8 				"/>
				<polygon id="XMLID_354_" fill="#1117BC" points="311.1,310.3 250.3,310.3 253.5,223.9 280.7,219.7 310.1,223.9 304.4,244 				
					"/>
				<g id="XMLID_321_">
					<path id="XMLID_325_" fill="#EDB6B3" d="M242.5,199.5c0,0,8.8-4.7,10.1,2c1.3,6.7-2.8,13.4-10,9.7
						C235.4,207.6,242.5,199.5,242.5,199.5z"/>
					<circle id="XMLID_324_" fill="#003AA5" cx="248.2" cy="210" r="0.7"/>
					<path id="XMLID_323_" opacity="0.7" fill="#EDB6B3" d="M245.2,205c0.6-2.2,1.3-3.4,2.2-3.8c2.2-1,3.9,0.6,4.5,1.6
						c0.1,0.2,0.1,0.5-0.1,0.6c-0.2,0.1-0.5,0.1-0.6-0.1c0-0.1-0.8-1.3-2.1-1.5c1.3,1.3,2.7,3.8,0.9,6c-0.1,0.1-0.2,0.2-0.3,0.2
						c-0.1,0-0.2,0-0.3-0.1c-0.2-0.1-0.2-0.4-0.1-0.6c2-2.5-1.1-5.2-1.3-5.3c0,0,0,0,0,0c-0.1,0-0.2,0.1-0.3,0.1
						c-0.3,0.1-1,0.7-1.7,3.3c-0.1,0.2-0.2,0.3-0.4,0.3c0,0-0.1,0-0.1,0C245.2,205.4,245.1,205.2,245.2,205z"/>
				</g>
				<path id="XMLID_339_" fill="#1117BC" d="M274.2,220.6l-29.1,4l-42.4,11.9l8.3,13.2l31.7-5.8c0,0,30.3,3.2,32.8,2.8l-2.7-2.3
					L274.2,220.6z"/>
				<g id="XMLID_317_">
					<path id="XMLID_320_" fill="#EDB6B3" d="M203.3,199.5c0,0-8.8-4.7-10.1,2c-1.3,6.7,2.8,13.4,10,9.7
						C210.4,207.6,203.3,199.5,203.3,199.5z"/>
					<circle id="XMLID_319_" fill="#003AA5" cx="197.6" cy="210" r="0.7"/>
					<path id="XMLID_318_" opacity="0.7" fill="#EDB6B3" d="M200.6,205c-0.6-2.2-1.3-3.4-2.2-3.8c-2.2-1-3.9,0.6-4.5,1.6
						c-0.1,0.2-0.1,0.5,0.1,0.6c0.2,0.1,0.5,0.1,0.6-0.1c0-0.1,0.8-1.3,2.1-1.5c-1.3,1.3-2.7,3.8-0.9,6c0.1,0.1,0.2,0.2,0.3,0.2
						c0.1,0,0.2,0,0.3-0.1c0.2-0.1,0.2-0.4,0.1-0.6c-2-2.5,1.1-5.2,1.3-5.3c0,0,0,0,0,0c0.1,0,0.2,0.1,0.3,0.1
						c0.3,0.1,1,0.7,1.7,3.3c0.1,0.2,0.2,0.3,0.4,0.3c0,0,0.1,0,0.1,0C200.5,205.4,200.7,205.2,200.6,205z"/>
				</g>
				<g id="XMLID_310_">
					<path id="XMLID_375_" fill="#EDB6B3" d="M222.9,222.3c-3.6,0-6.5,2.7-6.5,6v26.5l0,0v-0.1c0,3.6,2.9,6.5,6.5,6.5l0,0
						c3.6,0,6.5-2.9,6.5-6.5v-19.9h0.1v-6.5C229.4,225,226.5,222.3,222.9,222.3z"/>
					<g id="XMLID_311_">
						<defs>
							<path id="XMLID_313_" d="M225.3,249.2h-4.8c-2.3,0-4.1-1.9-4.1-4.1V224c0-1,0.8-1.7,1.7-1.7h9.6c1,0,1.7,0.8,1.7,1.7v21.1
								C229.4,247.4,227.6,249.2,225.3,249.2z"/>
						</defs>
						<clipPath id="XMLID_52_">
							<use xlink:href="#XMLID_313_"  overflow="visible"/>
						</clipPath>
						<g id="XMLID_314_" clip-path="url(#XMLID_52_)">
							<path id="XMLID_315_" fill="#EDB6B3" d="M252.9,174.5h-29.3h0h-29.3c0,0-2.6,34,1.4,43c2.2,4.9,9.3,9.9,16.1,14
								c7.2,4.4,16.7,4.4,23.8-0.1c6.7-4.2,13.6-9.1,15.8-14C255.5,208.5,252.9,174.5,252.9,174.5z"/>
						</g>
					</g>
				</g>
				<path id="XMLID_309_" fill="#EDB6B3" d="M246.8,191.1c-0.2-6.3-5.4-11.4-11.7-11.4h-12.2h0h-12c-6.5,0-11.8,5.1-12,11.6
					c-0.3,9.2,0.9,21.2,2.8,25.8c1.7,4.3,6.3,8.6,11.8,12.2c5.8,3.9,13.3,3.8,19.1-0.1c5.3-3.6,9.8-7.9,11.5-12.2
					C245.9,212.6,247.1,200.4,246.8,191.1z"/>
				<path id="XMLID_308_" fill="#3A2719" d="M244.3,171.3"/>
				<g id="XMLID_291_">
					<defs>
						<path id="XMLID_294_" d="M231.9,216.7c-0.4-1.1-1.7-0.8-4,0.4c-2.5,1.3-6.9,1.7-10,0.3c-2.4-1.1-3.6-1.2-4-0.2
							c-0.4,1,2.2,6.6,7.2,7.3c0.9,0.1,2.4,0.2,3.9-0.1C230,223.5,232.3,218,231.9,216.7z"/>
					</defs>
					<clipPath id="XMLID_56_">
						<use xlink:href="#XMLID_294_"  overflow="visible"/>
					</clipPath>
					<g id="XMLID_306_" clip-path="url(#XMLID_56_)">
						<path id="XMLID_307_" fill="#7F3322" d="M231.9,216.7c-0.4-1.1-1.7-0.8-4,0.4c-2.5,1.3-6.9,1.7-10,0.3c-2.4-1.1-3.6-1.2-4-0.2
							c-0.4,1,2.2,6.6,7.2,7.3c0.9,0.1,2.4,0.2,3.9-0.1C230,223.5,232.3,218,231.9,216.7z"/>
					</g>
					<g id="XMLID_302_" clip-path="url(#XMLID_56_)">
						<g id="XMLID_303_">
							<path id="XMLID_305_" fill="#FFFFFF" d="M216.1,216c0,0,0.1,3.9,6.3,4.1c6.2,0.1,8-1.8,8-4.5L216.1,216z"/>
						</g>
					</g>
					<g id="XMLID_299_" clip-path="url(#XMLID_56_)">
						<g id="XMLID_300_">
							<path id="XMLID_301_" fill="#EDB6B3" d="M218.3,223.8c0,0,4.3-3,10.8-0.2l-5.1,3.9L218.3,223.8z"/>
						</g>
					</g>
					<g id="XMLID_295_" clip-path="url(#XMLID_56_)">
						<g id="XMLID_296_">
							<path id="XMLID_298_" fill="#EDB6B3" d="M218.3,223.8c0,0,4.3-3,10.8-0.2l-5.1,3.9L218.3,223.8z"/>
						</g>
					</g>
				</g>
				<g id="XMLID_289_">
					<path id="XMLID_290_" fill="#EDB6B3" d="M218.4,207.1c0,0-0.1,0.3-0.2,0.7c-0.1,0.2-0.1,0.5-0.2,0.8c0,0.3-0.1,0.7,0,1
						c0,0.2,0.5,0.5,0.8,0.7c0.4,0.2,0.8,0.5,1.2,0.7c0.9,0.4,1.9,0.8,2.8,0.7c0.3,0,0.5-0.1,0.7-0.1c0.2-0.1,0.5-0.1,0.7-0.2
						c0.5-0.2,0.9-0.4,1.4-0.6c0.4-0.2,0.9-0.4,1.2-0.7c0.2-0.1,0.4-0.3,0.5-0.4c0.1-0.1,0.1-0.1,0.1-0.2c0-0.1,0-0.1,0-0.2
						c0.1-0.8,0-1.5,0-1.9c0-0.5-0.1-0.7-0.1-0.7s0.1,0.3,0.2,0.7c0.1,0.2,0.1,0.5,0.2,0.8c0.1,0.3,0.1,0.7,0.1,1.1
						c0,0.1,0,0.3,0,0.4c0,0.1-0.1,0.3-0.2,0.4c-0.2,0.2-0.3,0.4-0.5,0.5c-0.4,0.3-0.8,0.6-1.2,0.9c-0.5,0.3-0.9,0.5-1.5,0.7
						c-0.3,0.1-0.5,0.2-0.8,0.2c-0.3,0.1-0.6,0.1-0.9,0.1c-1.2,0.1-2.3-0.4-3.2-0.9c-0.5-0.3-0.9-0.6-1.2-0.9
						c-0.2-0.2-0.4-0.3-0.5-0.5c-0.1-0.1-0.2-0.2-0.2-0.3c-0.1,0-0.2-0.3-0.2-0.4c-0.1-0.5,0.1-0.8,0.2-1.2c0.1-0.3,0.2-0.6,0.3-0.8
						C218.3,207.3,218.4,207.1,218.4,207.1z"/>
				</g>
				<g id="XMLID_284_">
					<path id="XMLID_288_" fill="#3A2719" d="M204.3,214"/>
					<g id="XMLID_285_">
						<path id="XMLID_286_" fill="#3A2719" d="M204.3,214c0.1,0,0.1-0.1,0-0.1S204.3,214,204.3,214L204.3,214z"/>
					</g>
				</g>
				<g id="XMLID_281_">
					<circle id="XMLID_283_" fill="#153158" cx="211.5" cy="200.4" r="2.4"/>
					<circle id="XMLID_282_" fill="#153158" cx="234.3" cy="200.4" r="2.4"/>
				</g>
				<g id="XMLID_278_">
					
						<path id="XMLID_280_" fill="none" stroke="#153158" stroke-width="2" stroke-linecap="round" stroke-linejoin="round" stroke-miterlimit="10" d="
						M205.2,195.4c1.8-2.3,4.4-4,7.3-4.6"/>
					
						<path id="XMLID_279_" fill="none" stroke="#153158" stroke-width="2" stroke-linecap="round" stroke-linejoin="round" stroke-miterlimit="10" d="
						M240.6,195.4c-1.8-2.3-4.4-4-7.3-4.6"/>
				</g>
				<g id="XMLID_274_">
					<path fill="#003AA5" d="M245.1,182.5c-3.3,2.8-7.6,4.3-11.7,5.6c-7.8,2.4-16.1,4.4-24.2,3.1c-4.5-0.7-8.9-2.4-12.3-5.4
						c-3.5-2.9-5.9-7.1-6.3-11.7c0.1,1.6,2.3,2.1,3.9,2c13.2-0.4,26.4-5.5,39.5-3.1c4.7,0.9,8.5,3.1,10.4,7.5"/>
					<g>
						<path fill="#003AA5" d="M244.1,181.6c-7.4,6.5-20.7,9.1-30.3,8.8c-10.2-0.3-20.4-5.5-22-16.5c-0.9,0.3-1.8,0.5-2.7,0.8
							c0.8,2.2,2.5,2.9,4.8,3.1c4.9,0.3,10.4-1,15.3-1.9c10.2-1.7,28-5.9,34.2,5.4c0.6,1.2,2.3,0.1,1.8-1c-3.8-7.8-12.3-9-20.2-8.8
							c-4.9,0.1-9.8,0.9-14.7,1.7c-2.6,0.4-17.3,4-18.4,0.9c-0.6-1.8-3-1-2.7,0.8c3.7,26.2,41.4,19.3,56.6,9.1
							C247.4,182.6,245.6,180.3,244.1,181.6L244.1,181.6z"/>
					</g>
				</g>
				<path id="XMLID_327_" fill="#003AA5" d="M202.7,187.6c-0.1-0.4-0.6-0.7-1-0.4c-1,0.6-1.7,1.7-2.1,3.1c0.1-1.5,0.2-3.1,0.5-4.6
					c0.5-1.7-2.2-2.4-2.5-0.7c-0.9,4.6-0.6,9,0.7,13.5c0.3,1.1,1.7,0.7,1.8-0.2C201.3,191.7,203.3,189.1,202.7,187.6z"/>
				<g id="XMLID_326_">
					<path fill="#003AA5" d="M240,184c0.7,5.2,6.3,8.8,6.5,14.1c0.9-2.8,1.9-5.6,2.1-8.5c0.2-2.9-0.5-6-2.5-8.1"/>
					<g>
						<path fill="#003AA5" d="M238.8,184c0.1,2.5,1.6,4.5,3,6.4c1.8,2.6,3.3,4.7,4.1,7.8c0.2,0.7,1.2,0.5,1.2-0.2
							c0-1.9,1.6-3.9,2.1-5.7c0.5-1.7,0.6-3.5,0.5-5.2c-0.2-2.4-0.8-5.4-3.2-6.5c-0.7-0.3-1.6,0.2-1.4,1.1c0.5,2.1,1.9,3.8,2.2,6.1
							c0.3,2.6,0.2,7.8-1.4,9.9c0.4,0.1,0.8,0.2,1.2,0.3c0.2-2.3-1-4.5-2.1-6.4c-1.6-2.7-2.9-5-3.8-8
							C240.8,182.4,238.8,182.6,238.8,184L238.8,184z"/>
					</g>
				</g>
				<path id="XMLID_331_" fill="#000E15" d="M236,165.3c-5.2-1.1-10.6-0.3-15.7,0.8c-3.6,0.8-7.1,1.9-10.5,3.1
					c-5.1,1.7-8.2,0.7-12.1-3.1c-0.8-0.8-2-0.5-2.6,0.3c-1.7,2.5-2.2,5.5-1.7,8.3c-1.7-1.3-3.4-2.5-5.1-3.7c-0.6-0.5-1.8,0-1.9,0.8
					c-0.9,5.6-1.4,11.5,2.3,16.2c3.4,4.3,9.2,6,14.4,6.8c14.8,2.2,28.5-4.3,41.7-10.1c1.1-0.5,0.1-2.1-1-1.7
					c-0.4,0.2-0.9,0.4-1.3,0.5l2.7-1.9c0,0,0,0,0,0c0.1,0.9,1.3,1.4,1.8,0.5C250.8,174.5,242.9,166.7,236,165.3z"/>
				<g id="XMLID_332_">
					<path id="XMLID_316_" fill="#EDEDEB" d="M214.8,240.7c0,0,8.1,5.4,17-1c0,0,2,18.8-5.5,19.3
						C218.9,259.5,214.8,240.7,214.8,240.7z"/>
					<g id="XMLID_277_">
						<path id="XMLID_347_" fill="#259AFF" d="M252.7,239.7l-13.6-4.7l-9.7-1.2c0,2.7-0.7,20.1-6.4,22.9c-5.6-2.7-6.7-19.7-6.7-22.8
							l-18.8,3.1l0.1,9.4l-3.6,19l2.6,39.7c0,0,13,2.7,24.8,3.8c18.7,1.7,27-3.8,27-3.8l3.6-39.2L252.7,239.7z"/>
					</g>
				</g>
				<g id="XMLID_275_">
					<path id="XMLID_273_" fill="#EDB6B3" d="M173.7,171.8c0,0,1.6-6.4,0.8-6.7c-0.8-0.3-1.5-0.4-2,0.7c-0.5,1.1-2.3,5.1-2.3,5.1
						l-1.6-3.5c0,0-1.8-8.5-2.2-9.5c-0.4-1-2.1-1.1-2.2,0.3c-0.1,0.7,1,9.9,1,9.9s-3.6-10.4-4.4-10.8c-0.8-0.5-2.1,0-1.9,1.7
						c0.1,0.6,2.7,10.5,2.7,10.5s-3.2-6.2-4.1-7c-0.9-0.8-1.8-0.1-1.9,0.7c-0.1,0.8,3.9,9.6,3.9,9.6s-2.2-2.4-3-2.9
						c-0.8-0.5-1.6,0.1-1.5,1.1c0.1,1,6.6,10.3,6.6,10.3l1.3,6.2l9.4-3.2c-0.4-1-0.8-4.8-0.8-4.8C171.8,179,173.7,171.8,173.7,171.8
						z"/>
					<polygon id="XMLID_229_" fill="#003AA5" stroke="#003AA5" stroke-width="0.25" stroke-miterlimit="10" points="172.7,183.1 
						172.2,180.4 159.6,182.5 160.3,186.2 					"/>
					<path id="XMLID_226_" fill="#259AFF" d="M171.8,237.1c-6.6-16-12.2-51.6-12.2-51.6l13.7-3.4c0,0,9.1,31.2,13.9,41.1
						c2.3,4.8,8.6,12.8,12.5,15.4c-2.6,10.9,0.9,19-5,28.2l0.1-1C194.8,265.8,177.6,251.2,171.8,237.1z"/>
				</g>
				<linearGradient id="XMLID_57_" gradientUnits="userSpaceOnUse" x1="288.1224" y1="221.5327" x2="273.2978" y2="221.5327">
					<stop  offset="0" style="stop-color:#FDDA42"/>
					<stop  offset="1" style="stop-color:#E5A003"/>
				</linearGradient>
				<polygon id="XMLID_365_" fill="url(#XMLID_57_)" points="273.3,218.2 288.1,218.2 286.2,224.8 275.4,224.8 				"/>
				<g id="XMLID_501_">
					<path id="XMLID_504_" fill="#EDB6B3" d="M300.3,186.5c0,0,8.8-4.7,10.1,2c1.3,6.7-2.8,13.4-10,9.7
						C293.2,194.5,300.3,186.5,300.3,186.5z"/>
					<path id="XMLID_502_" opacity="0.7" fill="#EDB6B3" d="M303,191.9c0.6-2.2,1.3-3.4,2.2-3.8c2.2-1,3.9,0.6,4.5,1.6
						c0.1,0.2,0.1,0.5-0.1,0.6c-0.2,0.1-0.5,0.1-0.6-0.1c0-0.1-0.8-1.3-2.1-1.5c1.3,1.3,2.7,3.8,0.9,6c-0.1,0.1-0.2,0.2-0.3,0.2
						c-0.1,0-0.2,0-0.3-0.1c-0.2-0.1-0.2-0.4-0.1-0.6c2-2.5-1.1-5.2-1.3-5.3c0,0,0,0,0,0c-0.1,0-0.2,0.1-0.3,0.1
						c-0.3,0.1-1,0.7-1.7,3.3c-0.1,0.2-0.2,0.3-0.4,0.3c0,0-0.1,0-0.1,0C303.1,192.4,302.9,192.2,303,191.9z"/>
				</g>
				<g id="XMLID_497_">
					<path id="XMLID_500_" fill="#EDB6B3" d="M261.1,186.5c0,0-8.9-4.7-10.1,2c-1.3,6.7,2.8,13.4,10,9.7
						C268.2,194.5,261.1,186.5,261.1,186.5z"/>
					<path id="XMLID_498_" opacity="0.7" fill="#EDB6B3" d="M258.4,191.9c-0.6-2.2-1.3-3.4-2.2-3.8c-2.2-1-3.9,0.6-4.5,1.6
						c-0.1,0.2-0.1,0.5,0.1,0.6c0.2,0.1,0.5,0.1,0.6-0.1c0-0.1,0.8-1.3,2.1-1.5c-1.3,1.3-2.7,3.8-0.9,6c0.1,0.1,0.2,0.2,0.3,0.2
						c0.1,0,0.2,0,0.3-0.1c0.2-0.1,0.2-0.4,0.1-0.6c-2-2.5,1.1-5.2,1.3-5.3c0,0,0,0,0,0c0.1,0,0.2,0.1,0.3,0.1
						c0.3,0.1,1,0.7,1.7,3.3c0.1,0.2,0.2,0.3,0.4,0.3c0,0,0.1,0,0.1,0C258.4,192.4,258.5,192.2,258.4,191.9z"/>
				</g>
				<g id="XMLID_491_">
					<path id="XMLID_496_" fill="#EDB6B3" d="M280.7,209.2c-3.6,0-6.5,2.7-6.5,6v7.6l0,0v-0.1c0,3.6,2.9,6.5,6.5,6.5l0,0
						c3.6,0,6.5-2.9,6.5-6.5v-1h0.1v-6.5C287.3,211.9,284.3,209.2,280.7,209.2z"/>
					<g id="XMLID_492_">
						<defs>
							<path id="XMLID_493_" d="M283.1,236.2h-4.8c-2.3,0-4.1-1.9-4.1-4.1v-21.1c0-1,0.8-1.7,1.7-1.7h9.6c1,0,1.7,0.8,1.7,1.7v21.1
								C287.3,234.3,285.4,236.2,283.1,236.2z"/>
						</defs>
						<clipPath id="XMLID_58_">
							<use xlink:href="#XMLID_493_"  overflow="visible"/>
						</clipPath>
						<g id="XMLID_494_" clip-path="url(#XMLID_58_)">
							<path id="XMLID_495_" fill="#EDB6B3" d="M310.7,161.5h-29.3h0h-29.3c0,0-2.6,34,1.4,43c2.2,4.9,9.3,9.9,16.1,14
								c7.2,4.4,16.7,4.4,23.8-0.1c6.7-4.2,13.6-9.1,15.8-14C313.3,195.4,310.7,161.5,310.7,161.5z"/>
						</g>
					</g>
				</g>
				<path id="XMLID_490_" fill="#EDB6B3" d="M304.6,178.1c-0.2-6.3-5.4-11.4-11.7-11.4h-12.2h0h-12c-6.5,0-11.8,5.1-12,11.6
					c-0.3,9.2,0.9,21.2,2.8,25.8c1.7,4.3,6.3,8.6,11.8,12.2c5.8,3.9,13.3,3.8,19.1-0.1c5.3-3.6,9.8-7.9,11.5-12.2
					C303.7,199.5,304.9,187.3,304.6,178.1z"/>
				<path id="XMLID_489_" fill="#3A2719" d="M302.2,171.3"/>
				<g id="XMLID_458_">
					<defs>
						<path id="XMLID_465_" d="M291.4,203.7c-0.4-1.1-2-0.8-4.7,0.4c-3,1.3-8.2,1.7-11.9,0.3c-2.8-1.1-4.2-1.2-4.7-0.2
							c-0.5,1,2.6,6.6,8.6,7.3c1.1,0.1,2.8,0.2,4.6-0.1C289.1,210.4,291.9,204.9,291.4,203.7z"/>
					</defs>
					<clipPath id="XMLID_59_">
						<use xlink:href="#XMLID_465_"  overflow="visible"/>
					</clipPath>
					<g id="XMLID_487_" clip-path="url(#XMLID_59_)">
						<path id="XMLID_488_" fill="#7F3322" d="M291.4,203.7c-0.4-1.1-2-0.8-4.7,0.4c-3,1.3-8.2,1.7-11.9,0.3
							c-2.8-1.1-4.2-1.2-4.7-0.2c-0.5,1,2.6,6.6,8.6,7.3c1.1,0.1,2.8,0.2,4.6-0.1C289.1,210.4,291.9,204.9,291.4,203.7z"/>
					</g>
					<g id="XMLID_484_" clip-path="url(#XMLID_59_)">
						<g id="XMLID_485_">
							<path id="XMLID_486_" fill="#FFFFFF" d="M272.6,202.9c0,0,0.1,3.9,7.5,4.1c7.4,0.1,9.5-1.8,9.5-4.5L272.6,202.9z"/>
						</g>
					</g>
					<g id="XMLID_481_" clip-path="url(#XMLID_59_)">
						<g id="XMLID_482_">
							<path id="XMLID_483_" fill="#EDB6B3" d="M275.3,210.7c0,0,5.1-3,12.9-0.2l-6,3.9L275.3,210.7z"/>
						</g>
					</g>
					<g id="XMLID_470_" clip-path="url(#XMLID_59_)">
						<g id="XMLID_471_">
							<path id="XMLID_480_" fill="#EDB6B3" d="M275.3,210.7c0,0,5.1-3,12.9-0.2l-6,3.9L275.3,210.7z"/>
						</g>
					</g>
				</g>
				<g id="XMLID_456_">
					<path id="XMLID_457_" fill="#EDB6B3" d="M276.2,194c0,0-0.1,0.3-0.2,0.7c-0.1,0.2-0.1,0.5-0.2,0.8c0,0.3-0.1,0.7,0,1
						c0,0.2,0.5,0.5,0.8,0.7c0.4,0.2,0.8,0.5,1.2,0.7c0.9,0.4,1.9,0.8,2.8,0.7c0.3,0,0.5-0.1,0.7-0.1c0.2-0.1,0.5-0.1,0.7-0.2
						c0.5-0.2,0.9-0.4,1.4-0.6c0.4-0.2,0.9-0.4,1.2-0.7c0.2-0.1,0.4-0.3,0.5-0.4c0.1-0.1,0.1-0.1,0.1-0.2c0-0.1,0-0.1,0-0.2
						c0.1-0.8,0-1.5,0-1.9c0-0.5-0.1-0.7-0.1-0.7s0.1,0.3,0.2,0.7c0.1,0.2,0.1,0.5,0.2,0.8c0.1,0.3,0.1,0.7,0.1,1.1
						c0,0.1,0,0.3,0,0.4c0,0.1-0.1,0.3-0.2,0.4c-0.2,0.2-0.3,0.4-0.5,0.5c-0.4,0.3-0.8,0.6-1.2,0.9c-0.5,0.3-0.9,0.5-1.5,0.7
						c-0.3,0.1-0.5,0.2-0.8,0.2c-0.3,0.1-0.6,0.1-0.9,0.1c-1.2,0.1-2.3-0.4-3.2-0.9c-0.5-0.3-0.9-0.6-1.2-0.9
						c-0.2-0.2-0.4-0.3-0.5-0.5c-0.1-0.1-0.2-0.2-0.2-0.3c-0.1,0-0.2-0.3-0.2-0.4c-0.1-0.5,0.1-0.8,0.2-1.2c0.1-0.3,0.2-0.6,0.3-0.8
						C276.1,194.3,276.2,194,276.2,194z"/>
				</g>
				<g id="XMLID_452_">
					<path id="XMLID_455_" fill="#3A2719" d="M262.2,200.9"/>
					<g id="XMLID_453_">
						<path id="XMLID_454_" fill="#3A2719" d="M262.2,201c0.1,0,0.1-0.1,0-0.1C262.1,200.9,262.1,201,262.2,201L262.2,201z"/>
					</g>
				</g>
				<g id="XMLID_448_">
					<circle id="XMLID_451_" fill="#153158" cx="269.3" cy="187.4" r="2.4"/>
					<circle id="XMLID_450_" fill="#153158" cx="292.1" cy="187.4" r="2.4"/>
				</g>
				<g id="XMLID_438_">
					
						<path id="XMLID_445_" fill="none" stroke="#153158" stroke-width="2" stroke-linecap="round" stroke-linejoin="round" stroke-miterlimit="10" d="
						M263,182.4c1.8-2.3,4.4-4,7.3-4.6"/>
					
						<path id="XMLID_439_" fill="none" stroke="#153158" stroke-width="2" stroke-linecap="round" stroke-linejoin="round" stroke-miterlimit="10" d="
						M298.4,182.4c-1.8-2.3-4.4-4-7.3-4.6"/>
				</g>
				<path id="XMLID_526_" fill="#030015" d="M306.8,169.8c-0.5-3.1-1.5-6.1-3.3-8.7c0.9-1.2,1.6-2.7,2.1-3.9
					c1.3-3.2,1.5-6.5,0.9-9.9c-0.2-1.3-1.9-1.5-2.7-0.7c-2,1.9-4.1,3.1-6.4,4.1c1.1-1.9,1.9-4,2.1-6c0.1-1.3-1.4-1.8-2.4-1.4
					c-4.5,2-10,3.1-14.6,5.3c0.1-0.2,0.2-0.5,0.3-0.7c0.4-0.3,2.2-5.2,0.8-5.1c-1.5,0.1-2.3,2.6-5.9,3.6c-2.2,0.7-29.1,2-22.9,31.7
					c0.3,2.3,0.8,4.6,1.5,6.7c0,0.3,0,0.5,0.1,0.8c0.1,1.5,2.4,1.5,2.3,0c0-0.1,0-0.2,0-0.3c0,0,0-0.1,0-0.1c0-0.1,0-0.1,0-0.2
					c0-0.7,0-1.4,0-2.2c0.2-2.3,0.7-4.9,1.7-7.2c1.2-2.7,3.6-4.7,6.5-5.2c4.1-0.6,9,0.8,13.3,1.4c5.8,0.8,14.5-4.1,19.3-0.2
					c2.6,3.4,2.8,9,3.6,13.1c0.3,1.4,2.5,1.1,2.5-0.3C305.8,179.3,307.6,175,306.8,169.8z"/>
				<g id="XMLID_363_">
					<polygon id="XMLID_355_" fill="#FDDA42" points="273.3,218.2 268.8,221.5 273.1,232.8 280.7,229.2 					"/>
					<polygon id="XMLID_364_" fill="#FDDA42" points="288.1,218.2 292.6,221.5 289.2,232.8 280.7,229.2 					"/>
				</g>
				<path id="XMLID_3_" fill="#137CBC" d="M229.4,233.7"/>
				<path id="XMLID_405_" fill="#EDB6B3" d="M297.8,309.5c0,0-5,3.7-4.6,4.4s0.8,1.2,1.8,0.6c1-0.5,4.7-2.3,4.7-2.3l-0.9,3.5
					c0,0-3.7,7.2-4,8.2c-0.3,0.9,0.9,2,1.7,1.1c0.5-0.5,5.1-7.8,5.1-7.8s-3.5,9.6-3.2,10.4c0.3,0.8,1.5,1.3,2.3-0.1
					c0.3-0.5,4.3-9.2,4.3-9.2s-1.3,6.4-1.1,7.5c0.2,1.1,1.3,1.1,1.8,0.6c0.6-0.5,2.9-9.2,2.9-9.2s0.2,3.1,0.5,3.9
					c0.3,0.8,1.2,0.9,1.7,0.1c0.5-0.8,1.3-11.3,1.3-11.3l2.7-5.2l-8.7-3.2c-0.3,0.9-2.3,3.9-2.3,3.9
					C303.4,305.5,297.8,309.5,297.8,309.5z"/>
				<polygon id="XMLID_423_" opacity="0.3" fill="#137CBC" points="302.4,299.5 307.5,274.5 308.8,286.4 				"/>
				<polygon id="XMLID_421_" fill="#FDDA42" points="304.8,297.8 303.2,303.1 314.7,308.7 316.9,305.2 				"/>
				<path id="XMLID_367_" fill="#1117BC" d="M310.1,224.3c0,0,19.3,29.8,20.5,36.9c1.2,7.1-13.5,46.2-13.5,46.2l-14.7-7.9l10.9-33.7
					l-9-22.3L310.1,224.3z"/>
				<path id="XMLID_425_" fill="#EDB6B3" d="M196.6,234.4"/>
			</g>
			<g id="XMLID_245_">
				<polygon id="XMLID_54_" fill="#003AA5" stroke="#003AA5" stroke-width="0.25" stroke-miterlimit="10" points="172.5,369.2 
					145.5,366.5 145.5,366.5 145.4,366.5 145.3,366.5 145.3,366.5 118.3,369.2 114.9,396.3 115.8,396.4 145.3,396.4 145.5,396.4 
					175,396.4 175.9,396.3 				"/>
				<path id="XMLID_297_" fill="#259AFF" d="M145.3,383.2c12.9-0.4,30.5-3.6,30.5-3.6l-4-69.9c0.3-3.1,0.3-4.6-2.9-5.7
					c-4.4-1.4-22.3-9.6-22.3-9.6c-0.1,0-0.2,0-0.3,0v0h-1.1h-0.8h-1v0c-0.1,0-0.2,0-0.2,0c0,0-17.3,8.2-21.5,9.6
					c-3.1,1-3,2.6-2.7,5.7l-4.7,69.9c0,0,17.8,3.2,30.2,3.6L145.3,383.2z"/>
				<g id="XMLID_464_">
					<path id="XMLID_67_" fill="#EDB6B3" d="M105.2,329.2c0,0-2.4,15-1.5,16.6c0.9,1.6,16.5,5.7,27.1,3.2
						c10.6-2.5,23.2-8.2,23.2-8.2l-26.1-6.9l-11.3,1C116.6,334.9,108.7,332.6,105.2,329.2z"/>
					<g id="XMLID_145_">
						<defs>
							<path id="XMLID_141_" d="M105.2,329.2c0,0-2.4,15-1.5,16.6c0.9,1.6,16.5,5.7,27.1,3.2c10.6-2.5,23.2-8.2,23.2-8.2l-26.1-6.9
								l-11.3,1C116.6,334.9,108.7,332.6,105.2,329.2z"/>
						</defs>
						<clipPath id="XMLID_60_">
							<use xlink:href="#XMLID_141_"  overflow="visible"/>
						</clipPath>
						<path id="XMLID_133_" opacity="0.3" clip-path="url(#XMLID_60_)" fill="#EDB6B3" d="M121,335.9c0,0,11.3,4.5,11.3,5.7
							c0,1.3,0.9,5.1-29.7,3.9c0,0,23.3,14.5,45.3,7.2s6.1-10.5,6.1-10.5L121,335.9z"/>
					</g>
				</g>
				<g id="XMLID_449_">
					<path id="XMLID_69_" fill="#259AFF" d="M101.2,331l13.7,4.1l5.7-1.6l2.8-2.6l17.4-6.7l-0.1-29.7c0,0-24,5.8-31,13.9
						C105.5,313.1,101.2,331,101.2,331z"/>
					<path id="XMLID_38_" opacity="0.5" fill="#259AFF" d="M114.9,335c0,0,1.9-10.4,4.1-17.5l0.8,18.4L114.9,335z"/>
				</g>
				<g id="XMLID_227_">
					<path id="XMLID_287_" fill="#259AFF" d="M189.6,331l-13.7,4.1l-5.7-1.6l-2.8-2.6l-17.3-6.7v-29.7c0,0,24,5.8,31,13.9
						C185.3,313.1,189.6,331,189.6,331z"/>
					<path id="XMLID_247_" opacity="0.5" fill="#259AFF" d="M175.9,335c0,0-1.9-10.4-4.1-17.5l-0.8,18.4L175.9,335z"/>
				</g>
				<g id="XMLID_254_">
					<path id="XMLID_63_" fill="#E2ABAA" d="M165,328.7c0,0,2-4.1,2.5-5c0.6-0.9,2.7,0.5,1.9,2.3c-0.8,1.8-1.2,2.5-1.2,2.5
						L165,328.7z"/>
					<path id="XMLID_304_" fill="#EDB6B3" d="M153.6,336.1c0,0,12.1-8.9,12.7-8.9c0.6,0,9.3-0.2,9.8-0.1c0.5,0.1,0.6,1.1,0.5,1.5
						c-0.1,0.3-0.3,0.5-0.6,0.5l-5.9,0.4v0.1c0,0,5.4,0,7.7,0.1c0.5,0,0.8,0.4,0.8,0.9l0,0c0,0.5-0.4,0.9-0.9,0.9l-6.8,0.5l8.1,0.5
						l0.7,2.3l-19.9,3.1L153.6,336.1z"/>
				</g>
				<g id="XMLID_253_">
					<g id="XMLID_244_">
						<path id="XMLID_68_" fill="#EDB6B3" d="M185.2,332.1c0,0,1.3,7.4,1.3,10.4c0,3-5.5,6.3-8,6.4c-2.6,0.2-55.7-12.2-58.6-12.4
							c-2.9-0.2-5.3-0.8-5.3-0.8s2.6-4.9,7.4-6.5s10.3,0.9,13.5,1.7c3.2,0.8,20.6,3.1,29.7,3C174.3,333.7,185.2,332.1,185.2,332.1z"
							/>
						<g id="XMLID_86_">
							<defs>
								<path id="XMLID_71_" d="M185.2,332.1c0,0,1.3,7.4,1.3,10.4c0,3-5.5,6.3-8,6.4c-2.6,0.2-55.7-12.2-58.6-12.4
									c-2.9-0.2-5.3-0.8-5.3-0.8s2.6-4.9,7.4-6.5s10.3,0.9,13.5,1.7c3.2,0.8,20.6,3.1,29.7,3C174.3,333.7,185.2,332.1,185.2,332.1
									z"/>
							</defs>
							<clipPath id="XMLID_61_">
								<use xlink:href="#XMLID_71_"  overflow="visible"/>
							</clipPath>
							<path id="XMLID_70_" opacity="0.25" clip-path="url(#XMLID_61_)" fill="#EDB6B3" d="M184.9,345.6c0,0-14.7-1.4-33.5-4.6
								c-18.8-3.3-36.8-5.2-36.8-5.2l64.2,15.2L184.9,345.6z"/>
						</g>
					</g>
					<g id="XMLID_246_" opacity="0.3">
						<path fill="#EDB6B3" d="M157,333.6c0,0,0.3,0,0.9,0c0.6,0,1.4,0,2.4,0c2,0,4.6,0,7.3,0c2.6,0,5.3,0.1,7.3,0.1c0.5,0,1,0,1.4,0
							c0.4,0,0.8,0,1,0c0.6,0,0.9,0,0.9,0s-0.3,0.1-0.9,0.2c-0.3,0.1-0.6,0.1-1,0.2c-0.4,0.1-0.9,0.2-1.4,0.2
							c-2,0.3-4.7,0.4-7.3,0.3c-2.7,0-5.3-0.2-7.3-0.5c-1-0.1-1.8-0.3-2.4-0.3C157.3,333.7,157,333.6,157,333.6z"/>
					</g>
				</g>
				<g id="XMLID_312_">
					<g id="XMLID_216_">
						<path fill="#003AA5" d="M154.9,236.4c2.1-1.7,5.3-1,7.7,0.2c4.1,2,7.6,5.5,9.1,9.8c0.6,1.9,0.9,3.8,1,5.8
							c0.2,2.9-0.2,6.2-2.6,7.9c-0.3,0.2-0.6,0.4-1,0.4c-0.7-0.1-1.1-0.8-1.3-1.4c-0.7-2-1-4.2-1.6-6.3c-1.7-6-5.8-11-9.9-15.6"/>
						<g>
							<path fill="#003AA5" d="M155.6,237.6c5.3-3,12.2,3.8,14.2,8.1c1,2.2,1.4,4.6,1.5,7.1c0,2.5-1,7.1-2.8,2.7
								c-1.5-3.6-2-7.1-4.1-10.5c-2-3.1-4.4-6.7-7.6-8.6C155.9,235.8,155.2,236.8,155.6,237.6c1.6,3.7,4.9,6.6,6.9,10.2
								c2.1,3.8,2.1,8.3,4,12c2.6,4.9,6.7,0,7.5-3.4c1.3-5.8-0.8-12.5-4.8-16.8c-3.7-3.8-9.8-7.5-14.9-4.3
								C152.7,236.1,154.1,238.4,155.6,237.6L155.6,237.6z"/>
						</g>
					</g>
					<g id="XMLID_195_">
						<path fill="#003AA5" d="M122.8,260.1c-4.3-6.1-3.9-14.8,0.2-20.9c4.1-6.2,11.5-9.8,18.9-10c4-0.1,8.3,0.8,10.8,3.9
							c0.7,0.8,1.2,2.1,0.6,2.9c-0.3,0.4-0.7,0.6-1.1,0.8c-4.1,1.9-8.6,2.5-13,3.5c-4.4,1-8.9,2.5-12.1,5.6c-3.6,3.6-5,9.3-3.5,14.2
							"/>
						<g>
							<path fill="#003AA5" d="M123.7,259.6c-5.1-8.9-2.3-19.7,6.5-25.1c3.9-2.4,8.7-3.7,13.3-3.5c2,0.1,4.7,0.4,6.2,1.7
								c4.5,3.7-1.9,4-4.3,4.6c-6.7,1.6-14.1,2.4-19.2,7.7c-3.8,4-5,10.2-3.7,15.5c0.4,1.5,2.7,0.9,2.3-0.6
								c-4.3-17,15.8-16.7,26.3-20.7c8.9-3.4,1-10.4-4.9-11.4c-17.5-3.2-35.7,16.6-24.2,32.9C122.7,261.7,124.4,260.7,123.7,259.6
								L123.7,259.6z"/>
						</g>
					</g>
					<g id="XMLID_183_">
						<path id="XMLID_186_" fill="#EDB6B3" d="M164.3,260.9c0,0,8.4-4.5,9.6,1.9s-2.6,12.7-9.5,9.2
							C157.6,268.6,164.3,260.9,164.3,260.9z"/>
						<path id="XMLID_184_" opacity="0.7" fill="#EDB6B3" d="M166.8,266.1c0.6-2.1,1.2-3.3,2.1-3.6c2.1-1,3.7,0.6,4.3,1.5
							c0.1,0.2,0.1,0.4-0.1,0.5c-0.2,0.1-0.4,0.1-0.5-0.1c0-0.1-0.8-1.3-2-1.4c1.2,1.3,2.5,3.6,0.8,5.7c-0.1,0.1-0.2,0.1-0.3,0.1
							c-0.1,0-0.2,0-0.2-0.1c-0.2-0.1-0.2-0.4-0.1-0.6c1.9-2.4-1.1-4.9-1.2-5c0,0,0,0,0,0c-0.1,0-0.2,0.1-0.2,0.1
							c-0.3,0.1-0.9,0.7-1.6,3.1c0,0.2-0.2,0.3-0.4,0.3c0,0-0.1,0-0.1,0C166.9,266.5,166.8,266.3,166.8,266.1z"/>
					</g>
					<g id="XMLID_179_">
						<path id="XMLID_182_" fill="#EDB6B3" d="M127.1,260.9c0,0-8.4-4.5-9.6,1.9c-1.2,6.4,2.6,12.7,9.5,9.2
							C133.9,268.6,127.1,260.9,127.1,260.9z"/>
						<path id="XMLID_180_" opacity="0.7" fill="#EDB6B3" d="M124.6,266.1c-0.6-2.1-1.2-3.3-2.1-3.6c-2.1-1-3.7,0.6-4.3,1.5
							c-0.1,0.2-0.1,0.4,0.1,0.5c0.2,0.1,0.4,0.1,0.5-0.1c0-0.1,0.8-1.3,2-1.4c-1.2,1.3-2.5,3.6-0.8,5.7c0.1,0.1,0.2,0.1,0.3,0.1
							c0.1,0,0.2,0,0.2-0.1c0.2-0.1,0.2-0.4,0.1-0.6c-1.9-2.4,1.1-4.9,1.2-5c0,0,0,0,0,0c0.1,0,0.2,0.1,0.2,0.1
							c0.3,0.1,0.9,0.7,1.6,3.1c0,0.2,0.2,0.3,0.4,0.3c0,0,0.1,0,0.1,0C124.6,266.5,124.7,266.3,124.6,266.1z"/>
					</g>
					<g id="XMLID_173_">
						<path id="XMLID_224_" fill="#EDB6B3" d="M151.4,288.2c0-3.1-2.8-5.7-6.2-5.7c-3.4,0-6.2,2.5-6.2,5.7l0,6.8
							c0,3.4,2.8,6.2,6.2,6.2l0,0c3.4,0,6.2-2.8,6.2-6.2L151.4,288.2z"/>
						<g id="XMLID_174_">
							<defs>
								<path id="XMLID_175_" d="M147.2,308h-4.1c-2.3,0-4.1-1.9-4.1-4.1v-19.7c0-1,0.8-1.7,1.7-1.7h8.9c1,0,1.7,0.8,1.7,1.7v19.7
									C151.4,306.2,149.5,308,147.2,308z"/>
							</defs>
							<clipPath id="XMLID_113_">
								<use xlink:href="#XMLID_175_"  overflow="visible"/>
							</clipPath>
							<g id="XMLID_176_" clip-path="url(#XMLID_113_)">
								<path id="XMLID_177_" fill="#EDB6B3" d="M173.6,237.2h-27.7h0h-27.7c0,0-2.4,32.2,1.3,40.7c2,4.6,8.8,9.3,15.3,13.3
									c6.8,4.2,15.8,4.2,22.6-0.1c6.3-3.9,12.9-8.6,14.9-13.2C176,269.4,173.6,237.2,173.6,237.2z"/>
							</g>
						</g>
					</g>
					<path id="XMLID_172_" fill="#EDB6B3" d="M168.4,253c-0.2-6-5.1-10.8-11.1-10.8h-11.5h0h-11.3c-6.1,0-11.2,4.9-11.3,11
						c-0.2,8.7,0.9,20.1,2.6,24.5c1.6,4,6,8.1,11.2,11.6c5.5,3.7,12.6,3.6,18.1-0.1c5-3.4,9.3-7.5,10.9-11.5
						C167.5,273.3,168.7,261.7,168.4,253z"/>
					<g id="XMLID_155_">
						<defs>
							<path id="XMLID_159_" d="M155.1,277.2c-0.4-1.1-1.7-0.8-4.2,0.4c-2.6,1.3-7.2,1.6-10.5,0.2c-2.5-1-3.7-1.1-4.2-0.2
								c-0.4,0.9,2.3,6.3,7.6,6.9c1,0.1,2.5,0.2,4.1-0.1C153.1,283.6,155.6,278.4,155.1,277.2z"/>
						</defs>
						<clipPath id="XMLID_115_">
							<use xlink:href="#XMLID_159_"  overflow="visible"/>
						</clipPath>
						<g id="XMLID_170_" clip-path="url(#XMLID_115_)">
							<path id="XMLID_171_" fill="#7F3322" d="M155.1,277.2c-0.4-1.1-1.7-0.8-4.2,0.4c-2.6,1.3-7.2,1.6-10.5,0.2
								c-2.5-1-3.7-1.1-4.2-0.2c-0.4,0.9,2.3,6.3,7.6,6.9c1,0.1,2.5,0.2,4.1-0.1C153.1,283.6,155.6,278.4,155.1,277.2z"/>
						</g>
						<g id="XMLID_167_" clip-path="url(#XMLID_115_)">
							<g id="XMLID_168_">
								<path id="XMLID_169_" fill="#FFFFFF" d="M138.6,276.5c0,0,0.1,3.7,6.6,3.8c6.5,0.1,8.4-1.7,8.4-4.3L138.6,276.5z"/>
							</g>
						</g>
						<g id="XMLID_164_" clip-path="url(#XMLID_115_)">
							<g id="XMLID_165_">
								<path id="XMLID_166_" fill="#EDB6B3" d="M141,283.9c0,0,4.5-2.9,11.4-0.2l-5.3,3.7L141,283.9z"/>
							</g>
						</g>
						<g id="XMLID_160_" clip-path="url(#XMLID_115_)">
							<g id="XMLID_162_">
								<path id="XMLID_163_" fill="#EDB6B3" d="M141,283.9c0,0,4.5-2.9,11.4-0.2l-5.3,3.7L141,283.9z"/>
							</g>
						</g>
					</g>
					<g id="XMLID_153_">
						<path id="XMLID_154_" fill="#EDB6B3" d="M141.5,269.8c0,0-0.1,0.3-0.2,0.7c0,0.2-0.1,0.5-0.1,0.8c0,0.3-0.1,0.7,0,1
							c0,0.2,0.5,0.5,0.8,0.7c0.4,0.2,0.8,0.4,1.2,0.6c0.8,0.4,1.8,0.7,2.7,0.7c0.3,0,0.5-0.1,0.7-0.1c0.2-0.1,0.5-0.1,0.7-0.2
							c0.5-0.1,0.9-0.3,1.3-0.5c0.4-0.2,0.8-0.4,1.2-0.7c0.2-0.1,0.3-0.2,0.5-0.4c0.1-0.1,0.1-0.1,0.1-0.2c0-0.1,0-0.1,0-0.2
							c0.1-0.7,0-1.4,0-1.8c0-0.4-0.1-0.7-0.1-0.7s0.1,0.2,0.2,0.7c0.1,0.2,0.1,0.5,0.2,0.8c0.1,0.3,0.1,0.7,0.1,1.1
							c0,0.1,0,0.3,0,0.3c0,0.1-0.1,0.3-0.2,0.3c-0.1,0.2-0.3,0.3-0.5,0.5c-0.3,0.3-0.7,0.6-1.2,0.8c-0.4,0.2-0.9,0.5-1.4,0.7
							c-0.3,0.1-0.5,0.2-0.8,0.2c-0.3,0.1-0.6,0.1-0.8,0.1c-1.2,0.1-2.2-0.4-3.1-0.8c-0.4-0.2-0.8-0.5-1.2-0.8
							c-0.2-0.1-0.3-0.3-0.5-0.4c-0.1-0.1-0.2-0.2-0.2-0.3c0,0-0.2-0.3-0.2-0.4c-0.1-0.5,0.1-0.8,0.2-1.1c0.1-0.3,0.2-0.6,0.3-0.8
							C141.4,270,141.5,269.8,141.5,269.8z"/>
					</g>
					<g id="XMLID_132_">
						<path id="XMLID_152_" fill="#3A2719" d="M128.2,272.9"/>
						<g id="XMLID_150_">
							<path id="XMLID_151_" fill="#3A2719" d="M128.2,273c0.1,0,0.1-0.1,0-0.1C128.1,272.9,128.1,273,128.2,273L128.2,273z"/>
						</g>
					</g>
					<g id="XMLID_45_">
						<circle id="XMLID_87_" fill="#153158" cx="134.9" cy="261.8" r="2.3"/>
						<circle id="XMLID_64_" fill="#153158" cx="156.5" cy="261.8" r="2.3"/>
					</g>
					<g id="XMLID_14_">
						
							<path id="XMLID_44_" fill="none" stroke="#153158" stroke-width="2" stroke-linecap="round" stroke-linejoin="round" stroke-miterlimit="10" d="
							M128.9,257c1.7-2.2,4.2-3.8,6.9-4.3"/>
						
							<path id="XMLID_19_" fill="none" stroke="#153158" stroke-width="2" stroke-linecap="round" stroke-linejoin="round" stroke-miterlimit="10" d="
							M162.5,257c-1.7-2.2-4.2-3.8-6.9-4.3"/>
					</g>
					<g id="XMLID_185_">
						<path fill="#003AA5" d="M156.1,237.1c0.3,0.5,0,1.1-0.4,1.6c-1.9,2.7-3.9,5.4-6.4,7.7c-2.5,2.2-5.5,4-8.8,4.3
							c-0.4,0-0.8,0-1.1-0.2c-0.3-0.2-0.3-0.7-0.3-1c0-2.2,1.4-4.2,2.9-5.9c3-3.3,6.8-6,10.9-7.7"/>
						<g>
							<path fill="#003AA5" d="M155.4,236.9c-0.8,2.8-4,5.9-6,7.9c-1.3,1.2-2.6,2.3-4.2,3.1c-0.6,0.3-4,1.8-4.6,1.4
								c-1.6-1,4.9-7.1,5.8-7.9c2.3-1.9,4.9-3.2,7.2-5c0.8-0.6-0.1-1.7-0.9-1.6c-4.8,0.9-9.4,4.7-12.4,8.5c-1.4,1.8-4.5,7.2-0.9,8.5
								c3.6,1.3,8.8-2.8,11.2-5.1c1.8-1.7,3.3-3.7,4.8-5.7c1.1-1.6,2.1-2.5,1.4-4.3C156.5,236.2,155.6,236.4,155.4,236.9
								L155.4,236.9z"/>
						</g>
					</g>
					<g id="XMLID_187_">
						<path fill="#000815" d="M149.1,239.2c-5.9,4.7-12.5,8.5-19.6,11.2c-1.2,0.5-2.7,0.9-3.7,0.1c-0.7-0.5-1-1.5-0.9-2.4
							c0.1-0.9,0.6-1.7,1.1-2.4c1.2-1.7,2.9-3.1,4.6-4.3c6.1-4.3,13.6-6.5,21.1-6.2"/>
						<g>
							<path fill="#003AA5" d="M148.4,238.5c-3.3,2.8-7.7,5.3-11.6,7.2c-1.6,0.8-4.2,2.5-6,2.6c-2,1.4-2.8,0.5-2.5-2.6
								c0.7-0.7,1.4-1.4,2.2-2c3.1-2.5,6.8-4.4,10.7-5.5c3.6-1.1,7.3-0.9,10.9-1.8c1.2-0.3,1.1-2,0-2.4c-5.3-1.6-11.9,0.5-16.7,2.7
								c-4.1,1.9-11.5,5.9-12.1,11.1c-1.5,12.7,23.8-5.9,26.4-7.7C150.9,239.2,149.5,237.5,148.4,238.5L148.4,238.5z"/>
						</g>
					</g>
					<g id="XMLID_188_">
						<path fill="#003AA5" d="M155.6,238.4c-0.3,4.5,0.4,9.1,1.9,13.4c1,2.7,2.5,5.5,5.2,6.4c0.3,0.1,0.7,0.2,1,0.1
							c0.3-0.1,0.6-0.5,0.7-0.8c0.8-1.8,0-4-1-5.8c-2.6-5-5.5-9.9-8.7-14.6"/>
						<g>
							<path fill="#003AA5" d="M154.7,238.4c-0.6,5.2-0.2,10.5,1.9,15.3c1.1,2.4,4.3,7.4,7.7,6c3.2-1.4,1.8-6,0.8-8.2
								c-2.4-5.2-5.4-11.1-9.3-15.3c-1.1-1.2-2.9,0.3-2.2,1.7c1.3,2.8,3.2,5.3,4.8,7.9c1.4,2.3,4.4,6,4.6,8.7
								c0.3,3.7-2.3,0.5-3.2-1.1c-0.8-1.5-1.3-3.2-1.8-4.8c-0.9-3.3-1.4-6.7-1.5-10.1C156.5,237.2,154.9,237.3,154.7,238.4
								L154.7,238.4z"/>
						</g>
					</g>
					<g id="XMLID_193_">
						<path fill="#000615" d="M156.2,238c1.4,3,2.8,5.9,4.2,8.9c2,4.3,4.2,8.7,8.1,11.5c0.4,0.3,0.9,0.6,1.4,0.6
							c0.7,0,1.4-0.7,1.5-1.4c0.2-0.7,0-1.5-0.2-2.2c-1.2-3.9-3.6-7.4-6.5-10.3c-2.9-2.9-6.2-5.4-9.5-7.7"/>
						<g>
							<path fill="#003AA5" d="M155.3,238.2c1.2,3.4,10.1,28.2,16.8,21.3c3.1-3.2-1.4-9.7-3.3-12.3c-3.2-4.3-8.2-9.3-13.3-11.2
								c-1.4-0.5-2,1.3-1.3,2.2c2.6,3.1,6.4,5.1,9.2,8c1.1,1.1,7.5,8.6,5.6,9.9c-2.1,1.4-11-16.6-12.1-18.5
								C156.4,236.7,155,237.2,155.3,238.2L155.3,238.2z"/>
						</g>
					</g>
					<g id="XMLID_236_">
						<path fill="#003AA5" d="M156.7,234.7c0.3-3.2-1-6.5-3.3-8.6c-0.1-0.1-0.2-0.2-0.4-0.2c-0.2,0-0.4,0.2-0.5,0.5
							c-0.2,0.8,0.2,1.6,0.6,2.3c1,1.9,2,3.7,3,5.6"/>
						<g>
							<path fill="#003AA5" d="M157.5,234.9c0.4-2.1,0.5-4.1-0.4-6.1c-0.6-1.4-2.1-4.4-4-4.4c-4.8,0,1,9.8,2.5,10.9
								c0.8,0.5,1.8-0.2,1.8-1c0-1.4-0.8-2.4-1.5-3.6c-0.3-0.6-1.8-3.7-2.2-3.6c-0.5,0-1,0-1.5,0c2.2,1.2,3.5,5.3,3.6,7.6
								C156,235.5,157.3,235.7,157.5,234.9L157.5,234.9z"/>
						</g>
					</g>
					<g id="XMLID_249_">
						<path fill="#003AA5" d="M150.8,235c-0.2-3.4-3.5-5.7-6.8-6.7c-8.5-2.4-17.9,1.6-24.2,7.8c-1.8,1.8-3.5,4-3.1,6.5
							c3.3-0.7,6.3-2.4,8.7-4.7"/>
						<g>
							<path fill="#003AA5" d="M151.7,235c0.5-8.4-11.3-9.5-17.3-8.5c-7.5,1.3-19.3,7.4-19.4,16.2c0,1.1,1.1,1.9,2.2,1.7
								c3.6-0.9,7.4-2.4,9.4-5.7c0.7-1.2-0.7-2.3-1.8-1.8c-3,1.5-5.2,3.3-8.5,4.2c0.7,0.6,1.5,1.1,2.2,1.7
								c0.1-6.4,10-11.3,15.3-12.8c5.9-1.6,13.6-0.7,16.3,5.6C150.4,236.3,151.6,235.8,151.7,235L151.7,235z"/>
						</g>
					</g>
					<g id="XMLID_257_">
						<path fill="#010015" d="M118.1,238.2c2.1-5.9,8.1-9.5,14.1-11.3c4.4-1.3,9.1-1.9,13.4-0.2c4.2,1.6,7.7,5.9,7.3,10.4"/>
						<g>
							<path fill="#003AA5" d="M119.6,239.1c5.1-11.8,28.8-17.8,31.6-1.5c0.3,1.7,3.1,1.7,3.4,0c1.8-9.3-8.8-14.3-16.5-13.7
								c-8.9,0.7-18,5.5-21.6,14C115.8,239.5,118.8,240.8,119.6,239.1L119.6,239.1z"/>
						</g>
					</g>
					<g id="XMLID_270_">
						<path fill="#003AA5" d="M156.7,233.3c-0.1,0.1-0.3,0.2-0.4,0.3c1.3-2.6,4.5-3.7,7.3-3.4c0.4,0,0.9,0.2,1.1,0.5
							c0.3,0.7-0.6,1.2-1.3,1.4c-2.5,0.8-5.1,1.6-7.6,2.4"/>
						<g>
							<path fill="#003AA5" d="M156.7,232.3c-0.1,0-0.3,0-0.4,0c0.3,0.7,0.6,1.5,0.9,2.2c1.1-0.9,1.7-1.8,3-2.4
								c0.6-0.2,1.3-0.4,1.9-0.4c0.3,0,0.6,0,1,0c0.5,0.1,0.6,0,0.2-0.2c0-0.4,0.1-0.7,0.1-1.1c-0.4,1-3.6,1.5-4.5,1.8
								c-1.3,0.5-2.8,0.7-3.8,1.7c-0.7,0.6-0.1,1.6,0.7,1.7c1.4,0.2,2.8-0.5,4.2-0.9c1.4-0.4,2.9-0.7,4.2-1.3
								c1.6-0.7,2.8-2.7,1.1-4.1c-2.8-2.3-9.8,0.4-10.3,4c-0.2,1.6,2.1,2.4,2.5,0.7c0-0.1,0.1-0.3,0.1-0.4
								C157.9,233,157.4,232.3,156.7,232.3L156.7,232.3z"/>
						</g>
					</g>
					<g id="XMLID_204_">
						<g id="XMLID_203_">
							<g id="XMLID_13_">
								<path id="XMLID_10_" fill="none" stroke="#EDEDEB" stroke-width="1.2" stroke-miterlimit="10" d="M127.6,255.2h12.3
									c1.7,0,3,1.3,3,2.9v5.4c0,3.2-2.7,5.8-6.1,5.8h-6c-3.4,0-6.2-2.6-6.2-5.9V258C124.6,256.4,125.9,255.2,127.6,255.2z"/>
								<path id="XMLID_181_" opacity="0.4" fill="#EDEDEB" d="M127.6,255.2h12.3c1.7,0,3,1.3,3,2.9v5.4c0,3.2-2.7,5.8-6.1,5.8h-6
									c-3.4,0-6.2-2.6-6.2-5.9V258C124.6,256.4,125.9,255.2,127.6,255.2z"/>
								
									<line id="XMLID_178_" fill="none" stroke="#EDEDEB" stroke-width="1.2" stroke-linecap="round" stroke-linejoin="round" stroke-miterlimit="10" x1="123" y1="259.4" x2="124.6" y2="260.1"/>
							</g>
							<g id="XMLID_196_">
								<path id="XMLID_202_" fill="none" stroke="#EDEDEB" stroke-width="1.2" stroke-miterlimit="10" d="M164.4,255.2h-12.3
									c-1.7,0-3,1.3-3,2.9v5.4c0,3.2,2.7,5.8,6.1,5.8h6c3.4,0,6.2-2.6,6.2-5.9V258C167.4,256.4,166.1,255.2,164.4,255.2z"/>
								<path id="XMLID_199_" opacity="0.4" fill="#EDEDEB" d="M164.4,255.2h-12.3c-1.7,0-3,1.3-3,2.9v5.4c0,3.2,2.7,5.8,6.1,5.8h6
									c3.4,0,6.2-2.6,6.2-5.9V258C167.4,256.4,166.1,255.2,164.4,255.2z"/>
								
									<line id="XMLID_197_" fill="none" stroke="#EDEDEB" stroke-width="1.2" stroke-linecap="round" stroke-linejoin="round" stroke-miterlimit="10" x1="169" y1="259.4" x2="167.4" y2="260.1"/>
							</g>
						</g>
						
							<line id="XMLID_194_" fill="none" stroke="#EDEDEB" stroke-width="2" stroke-linecap="round" stroke-linejoin="round" stroke-miterlimit="10" x1="143.3" y1="260.6" x2="148.6" y2="260.6"/>
					</g>
				</g>
			</g>
			<g id="XMLID_156_">
				<g id="XMLID_96_">
					<path id="XMLID_40_" fill="#000415" d="M270.5,296c-1.3-4.4-3.3-8.7-4.2-13.3c-0.8-4.5-0.5-9.1-1-13.6
						c-0.7-6.1-2-12.9-6.7-17.3c-2-1.9-4.7-2.9-7.4-3.4c-0.9-0.2-4.3-0.8-3.8-0.3c-0.7-0.6-1.4-1.5-2.1-2c-1.9-1.3-4-2.3-6.3-2.8
						c-11.8-2.8-25.4,4.1-28.8,16.9c-2.4,9,0.6,18.2-1.9,27.3c-2,7.1-4.3,35-0.6,42c0.4,0.8,2.9,11.4,3.6,11.1
						c9.1-4.5,16.7,3,25.4,3.9c11,1.2,27.5-2.7,33.1-7.1C273,332.5,271.8,301.4,270.5,296z"/>
					<g id="XMLID_77_">
						<path id="XMLID_81_" fill="#EDB6B3" d="M255.3,278.4c0,0,8.1-4.3,9.3,1.9c1.1,6.2-2.6,12.3-9.2,8.9
							C248.7,285.8,255.3,278.4,255.3,278.4z"/>
						<circle id="XMLID_79_" fill="#003AA5" cx="260.5" cy="288" r="0.7"/>
						<path id="XMLID_78_" opacity="0.7" fill="#EDB6B3" d="M257.7,283.4c0.5-2,1.2-3.2,2-3.5c2-0.9,3.6,0.6,4.2,1.5
							c0.1,0.2,0,0.4-0.1,0.5c-0.2,0.1-0.4,0.1-0.5-0.1c0-0.1-0.8-1.2-2-1.4c1.2,1.2,2.4,3.5,0.8,5.5c-0.1,0.1-0.2,0.1-0.3,0.1
							c-0.1,0-0.2,0-0.2-0.1c-0.2-0.1-0.2-0.4-0.1-0.5c1.9-2.3-1-4.8-1.2-4.9c0,0,0,0,0,0c-0.1,0-0.2,0.1-0.2,0.1
							c-0.3,0.1-0.9,0.6-1.6,3c0,0.2-0.2,0.3-0.4,0.3c0,0-0.1,0-0.1,0C257.7,283.8,257.6,283.6,257.7,283.4z"/>
					</g>
					<g id="XMLID_65_">
						<path id="XMLID_606_" fill="#EDB6B3" d="M219.1,278.4c0,0-8.1-4.3-9.3,1.9c-1.1,6.2,2.6,12.3,9.2,8.9
							C225.7,285.8,219.1,278.4,219.1,278.4z"/>
						<circle id="XMLID_630_" fill="#003AA5" cx="213.9" cy="288" r="0.7"/>
						<path id="XMLID_90_" opacity="0.7" fill="#EDB6B3" d="M216.7,283.4c-0.5-2-1.2-3.2-2-3.5c-2-0.9-3.6,0.6-4.2,1.5
							c-0.1,0.2,0,0.4,0.1,0.5c0.2,0.1,0.4,0.1,0.5-0.1c0-0.1,0.8-1.2,2-1.4c-1.2,1.2-2.4,3.5-0.8,5.5c0.1,0.1,0.2,0.1,0.3,0.1
							c0.1,0,0.2,0,0.2-0.1c0.2-0.1,0.2-0.4,0.1-0.5c-1.9-2.3,1-4.8,1.2-4.9c0,0,0,0,0,0c0.1,0,0.2,0.1,0.2,0.1
							c0.3,0.1,0.9,0.6,1.6,3c0,0.2,0.2,0.3,0.4,0.3c0,0,0.1,0,0.1,0C216.7,283.8,216.8,283.6,216.7,283.4z"/>
					</g>
					<g id="XMLID_622_">
						<path id="XMLID_30_" fill="#EDB6B3" d="M244.4,313l-1.7-1.2v-7c0-3-2.7-5.5-6-5.5c-3.3,0-6,2.5-6,5.5v7.4L229,313l-1,11.1
							h19.7L244.4,313z"/>
						<g id="XMLID_623_">
							<defs>
								<path id="XMLID_624_" d="M238.5,324.1h-3.7c-2.3,0-4.1-1.9-4.1-4.1V301c0-1,0.8-1.7,1.7-1.7h8.6c1,0,1.7,0.8,1.7,1.7V320
									C242.7,322.2,240.8,324.1,238.5,324.1z"/>
							</defs>
							<clipPath id="XMLID_116_">
								<use xlink:href="#XMLID_624_"  overflow="visible"/>
							</clipPath>
							<g id="XMLID_625_" clip-path="url(#XMLID_116_)">
								<path id="XMLID_31_" fill="#EDB6B3" d="M264.2,255.4h-26.9h0h-26.9c0,0-2.4,31.2,1.3,39.5c2,4.5,8.6,9.1,14.8,12.9
									c6.6,4.1,15.3,4.1,21.9-0.1c6.1-3.8,12.5-8.4,14.5-12.8C266.6,286.6,264.2,255.4,264.2,255.4z"/>
							</g>
						</g>
					</g>
					<path id="XMLID_607_" fill="#EDB6B3" d="M259.2,270.7c-0.2-5.8-5-10.5-10.8-10.5h-11.2h0h-11c-5.9,0-10.8,4.7-11,10.7
						c-0.2,8.5,0.8,19.5,2.5,23.8c1.6,3.9,5.8,7.9,10.8,11.2c5.3,3.6,12.2,3.5,17.5-0.1c4.9-3.3,9-7.3,10.6-11.2
						C258.4,290.4,259.4,279.2,259.2,270.7z"/>
					<path id="XMLID_594_" fill="#3A2719" d="M256.9,252.4"/>
					<g id="XMLID_1470_">
						<defs>
							<path id="XMLID_1473_" d="M245.5,294.2c-0.3-1-1.5-0.8-3.6,0.4c-2.3,1.2-6.3,1.5-9.2,0.2c-2.2-1-3.3-1.1-3.7-0.2
								c-0.4,0.9,2,6.1,6.6,6.7c0.9,0.1,2.2,0.2,3.6-0.1C243.7,300.4,245.8,295.3,245.5,294.2z"/>
						</defs>
						<clipPath id="XMLID_117_">
							<use xlink:href="#XMLID_1473_"  overflow="visible"/>
						</clipPath>
						<g id="XMLID_1482_" clip-path="url(#XMLID_117_)">
							<path id="XMLID_39_" fill="#7F3322" d="M245.5,294.2c-0.3-1-1.5-0.8-3.6,0.4c-2.3,1.2-6.3,1.5-9.2,0.2
								c-2.2-1-3.3-1.1-3.7-0.2c-0.4,0.9,2,6.1,6.6,6.7c0.9,0.1,2.2,0.2,3.6-0.1C243.7,300.4,245.8,295.3,245.5,294.2z"/>
						</g>
						<g id="XMLID_1479_" clip-path="url(#XMLID_117_)">
							<g id="XMLID_1480_">
								<path id="XMLID_1481_" fill="#FFFFFF" d="M230.9,293.5c0,0,0.1,3.6,5.8,3.7c5.7,0.1,7.4-1.7,7.4-4.2L230.9,293.5z"/>
							</g>
						</g>
						<g id="XMLID_1475_" clip-path="url(#XMLID_117_)">
							<g id="XMLID_1476_">
								<path id="XMLID_1478_" fill="#EDB6B3" d="M233,300.7c0,0,3.9-2.8,10-0.2l-4.7,3.6L233,300.7z"/>
							</g>
						</g>
						<g id="XMLID_580_" clip-path="url(#XMLID_117_)">
							<g id="XMLID_581_">
								<path id="XMLID_678_" fill="#EDB6B3" d="M233,300.7c0,0,3.9-2.8,10-0.2l-4.7,3.6L233,300.7z"/>
							</g>
						</g>
					</g>
					<g id="XMLID_578_">
						<path id="XMLID_25_" fill="#EDB6B3" d="M233.1,285.3c0,0-0.1,0.2-0.2,0.7c0,0.2-0.1,0.5-0.1,0.8c0,0.3-0.1,0.7,0,0.9
							c0,0.2,0.5,0.5,0.8,0.7c0.3,0.2,0.7,0.4,1.1,0.6c0.8,0.4,1.7,0.7,2.6,0.6c0.3,0,0.5,0,0.7-0.1c0.2,0,0.4-0.1,0.7-0.2
							c0.4-0.1,0.9-0.3,1.3-0.5c0.4-0.2,0.8-0.4,1.1-0.6c0.2-0.1,0.3-0.2,0.4-0.4c0.1-0.1,0.1-0.1,0.1-0.2c0-0.1,0-0.1,0-0.2
							c0.1-0.7,0-1.3,0-1.8c0-0.4-0.1-0.7-0.1-0.7s0.1,0.2,0.2,0.7c0,0.2,0.1,0.5,0.2,0.8c0.1,0.3,0.1,0.6,0.1,1c0,0.1,0,0.3,0,0.3
							c0,0.1-0.1,0.3-0.2,0.3c-0.1,0.2-0.3,0.3-0.5,0.5c-0.3,0.3-0.7,0.6-1.1,0.8c-0.4,0.2-0.9,0.5-1.3,0.6
							c-0.2,0.1-0.5,0.2-0.7,0.2c-0.3,0.1-0.5,0.1-0.8,0.1c-1.1,0.1-2.1-0.3-3-0.8c-0.4-0.2-0.8-0.5-1.1-0.8
							c-0.2-0.1-0.3-0.3-0.5-0.4c-0.1-0.1-0.2-0.2-0.2-0.2c0,0-0.2-0.3-0.2-0.3c-0.1-0.5,0.1-0.8,0.2-1.1c0.1-0.3,0.2-0.5,0.3-0.7
							C233,285.5,233.1,285.3,233.1,285.3z"/>
					</g>
					<g id="XMLID_584_">
						<path id="XMLID_46_" fill="#3A2719" d="M220.2,291.7"/>
						<g id="XMLID_48_">
							<path id="XMLID_50_" fill="#3A2719" d="M220.2,291.7c0.1,0,0.1-0.1,0-0.1S220.1,291.7,220.2,291.7L220.2,291.7z"/>
						</g>
					</g>
					<g id="XMLID_24_">
						<circle id="XMLID_16_" fill="#153158" cx="226.7" cy="279.2" r="2.2"/>
						<circle id="XMLID_37_" fill="#153158" cx="247.7" cy="279.2" r="2.2"/>
					</g>
					<g id="XMLID_49_">
						
							<path id="XMLID_62_" fill="none" stroke="#153158" stroke-width="2" stroke-linecap="round" stroke-linejoin="round" stroke-miterlimit="10" d="
							M220.9,274.6c1.7-2.1,4-3.7,6.7-4.2"/>
						
							<path id="XMLID_53_" fill="none" stroke="#153158" stroke-width="2" stroke-linecap="round" stroke-linejoin="round" stroke-miterlimit="10" d="
							M253.5,274.6c-1.7-2.1-4-3.7-6.7-4.2"/>
					</g>
					<path id="XMLID_66_" fill="#001513" stroke="#003AA5" stroke-width="0.25" stroke-miterlimit="10" d="M242.7,256
						c0,0,1.5,14.2,16.6,17.6l1.2-7.5C260.5,266.1,253.8,255.9,242.7,256z"/>
					<path id="XMLID_91_" fill="#000D15" stroke="#003AA5" stroke-width="0.25" stroke-miterlimit="10" d="M245.4,252.4
						c0,0,4.2,10.3-6.9,16.7c-10.1,5.8-14.2-6.1-23.3,7.8c0,0-4.6-7.6,0.6-16.7C218.6,255.3,237.4,247.9,245.4,252.4z"/>
				</g>
				<g id="XMLID_15_">
					<path id="XMLID_114_" fill="#EDB6B3" d="M283.3,242.4c0,0-1.5-5.9-0.7-6.2c0.7-0.3,1.4-0.4,1.8,0.7c0.4,1,2.1,4.7,2.1,4.7
						l1.5-3.2c0,0,1.7-7.8,2-8.7c0.3-0.9,1.9-1,2,0.2c0.1,0.6-0.9,9.1-0.9,9.1s3.3-9.5,4-10c0.7-0.4,1.9,0,1.7,1.5
						c-0.1,0.5-2.5,9.7-2.5,9.7s2.9-5.7,3.8-6.4c0.8-0.7,1.6-0.1,1.8,0.7c0.1,0.7-3.5,8.9-3.5,8.9s2-2.2,2.8-2.7
						c0.7-0.4,1.5,0.1,1.4,1c-0.1,0.9-5.5,8.6-5.5,8.6l-1.8,6.6l-8.6-3c0.3-0.9,0.7-4.4,0.7-4.4C285.1,249,283.3,242.4,283.3,242.4z
						"/>
					<polygon id="XMLID_112_" fill="#003AA5" stroke="#003AA5" stroke-width="0.25" stroke-miterlimit="10" points="283.1,252.3 
						283.7,249.9 295.2,252.6 294.2,255.2 					"/>
					<path id="XMLID_467_" fill="#259AFF" d="M283.9,308.4c6-14.7,11.2-53.4,11.2-53.4l-12.6-3.1c0,0-8.4,29.7-12.8,38.8
						c-2.1,4.4-10.6,17.3-14.2,19.7c2.4,10,7.2,19.5,12.6,27.9l-0.1-0.9C268.1,337.4,278.6,321.4,283.9,308.4z"/>
				</g>
				<path id="XMLID_161_" fill="#EDEDEB" d="M247.5,375.8l4.1-58.4c-16.4,9.5-27.3,0.3-27.3,0.3l4.7,58.1H247.5z"/>
				<path id="XMLID_107_" fill="#259AFF" d="M226.7,377.9c-0.1-3,6.1-8.3,6.1-11.6c-0.3-38.9-3.6-48.6-3.9-53.3l-12.5,3.9
					c-11.9,3.7-18,13.5-18.4,25.9l-1.6,33L226.7,377.9z"/>
				<path id="XMLID_447_" fill="#259AFF" d="M268.2,338.2c-2.8-4.3-5.3-8.8-7.5-13.5c-0.3-1-0.7-2-1.3-2.9
					c-1.6-3.7-2.9-7.6-3.8-11.5c-0.3,0.2-0.5,0.3-0.7,0.3c-5.4,1.4-10.5,2.4-10.5,2.4l0,0.2c-0.3,5-2.8,26.1-3.8,53.1
					c-0.1,3.3-0.2,6.5-0.4,9.5h8.6h16.9h6.1L268.2,338.2z"/>
				<polygon id="XMLID_98_" opacity="0.4" fill="#259AFF" points="214.6,375.8 211.2,340.5 211.2,375.8 				"/>
				<path id="XMLID_18_" fill="#1117A5" d="M285.1,396.4h-99.8v-53.2c0-2.7,2.2-4.9,4.9-4.9h89.9c2.7,0,4.9,2.2,4.9,4.9V396.4z"/>
				<linearGradient id="XMLID_118_" gradientUnits="userSpaceOnUse" x1="235.1829" y1="392.9696" x2="235.1829" y2="341.8379">
					<stop  offset="0" style="stop-color:#FDDA42"/>
					<stop  offset="1" style="stop-color:#E5A003"/>
				</linearGradient>
				<circle id="XMLID_519_" fill="url(#XMLID_118_)" cx="235.2" cy="371.6" r="6.2"/>
			</g>
			<g id="XMLID_441_">
				<path id="XMLID_435_" fill="#003AA5" d="M323,358.7l-2.6,37.7l59.9-0.2c0,0-1.5-27.7-5.7-36.9C370.4,350.1,323,358.7,323,358.7z
					"/>
				<path id="XMLID_93_" fill="#259AFF" d="M336,301.1h4l16.3,1.3l8.4,1.6l13,37.2l3.4,38.9c0,0-40.8,4.1-61.6,0l0.7-61.7L336,301.1
					z"/>
				<g id="XMLID_442_">
					<path id="XMLID_431_" fill="#EDB6B3" d="M322.1,232.6c-0.6-0.4-1.2-0.7-1.8,0.2s-3.1,3.8-3.1,3.8l-0.6-3.3c0,0,0.3-7.6,0.2-8.5
						c-0.1-0.9-1.5-1.4-1.9-0.3c-0.2,0.6-1.3,8.6-1.3,8.6s-0.8-9.6-1.4-10.1c-0.6-0.6-1.8-0.5-1.9,1c0,0.5,0,9.5,0,9.5
						s-1.4-5.9-2-6.8c-0.6-0.9-1.5-0.4-1.8,0.2c-0.3,0.7,1.2,9,1.2,9s-1.4-2.5-1.9-3.1c-0.6-0.6-1.4-0.3-1.5,0.6
						c-0.1,0.9,3,9.2,3,9.2l0.1,6.5l8.6-0.7c-0.1-0.9,0.4-4.2,0.4-4.2c0.3-0.3,3.4-6,3.4-6S322.7,233,322.1,232.6z"/>
					<path id="XMLID_532_" fill="#259AFF" d="M320.2,318.3l14.4-2.9l1.4-14.3c0.4,0.1-2.8-2.4-4.6-4.6c-5-6-9.3-8.8-9.9-11.6
						c-1.5-7-3.5-41.8-3.5-41.8l-14.4,1.4c0,0-1,34.2,1.6,49.5C306.4,301.3,317.6,313,320.2,318.3z"/>
				</g>
				<g id="XMLID_433_">
					<g id="XMLID_446_">
						<path fill="#000815" d="M351.1,242.7c-0.2-2.6-2.7-4.4-5.2-5.2c-6.4-2.2-14.5,0.4-17.6,6.5c-2.5,4.8-1.7,10.6-2.1,16"/>
						<g>
							<path fill="#003AA5" d="M352.5,242.7c-0.5-8.8-12.8-9.3-18.9-6.4c-3.6,1.7-6.6,4.8-7.9,8.6c-1.3,4.2-2.1,11.4,0,15.4
								c0.2,0.5,0.9,0.4,1.1,0c1.4-2.2,1.1-4.3,1.3-6.9c0.3-4,1-8.1,3.9-11c4.4-4.3,14.9-5.7,17.8,1
								C350.4,244.7,352.6,244,352.5,242.7L352.5,242.7z"/>
						</g>
					</g>
					<path id="XMLID_443_" fill="#000315" d="M340.1,284c-1.1-2-2.4-3.7-3.9-5.4c-2.2-2.5-3.3-4.2-4.2-7.4c-0.7-2.3-1.9-5-4.2-5.2
						c0.2-0.6-0.4-1.3-1.2-1c-3.9,1.8-3.8,6.1-4.5,9.8c-1,5.1-5.3,8.4-6.5,13.4c-0.2,1-0.5,2.3,0.3,3.2c1.1,1.1,1.4,0.2,2.5,0.2
						c3.3,0.1,4.8,2.3,7.6,3.1c1.2,0.3,2.9,0.3,4,0.5c1.4,0.3,2.8,0.9,4.3,1.1c2.7,0.4,5.9,0,7.3-2.7
						C343.2,290.4,341.5,286.7,340.1,284z"/>
					<g id="XMLID_147_">
						<path fill="#00042A" d="M326,266.7c-0.3-3-0.5-6-0.5-9c0-2.3,0.1-4.6,0.7-6.7c0.9-3,2.9-5.6,5.3-7.5c2.4-1.9,5.4-3.3,8.3-2.5
							c2.2,0.6,4,2.5,5.2,4.6c1.1,2.1,1.7,4.6,2.3,7"/>
						<g>
							<path fill="#003AA5" d="M327,266.7c0.2-6.8-1-15.2,4.1-20.4c3.3-3.4,8.2-5.3,11.5-0.8c1.7,2.4,1.7,5.4,3.4,7.7
								c0.9,1.3,2.6,0.7,2.8-0.7c1.1-8.5-7.7-16.4-15.6-12.3c-10.3,5.3-10.3,17-8,26.8C325.3,268,326.9,267.7,327,266.7L327,266.7z"
								/>
						</g>
					</g>
					<path id="XMLID_444_" fill="#000115" d="M380.4,295.1c0-0.1-0.1-0.3-0.2-0.5c-0.8-1.2-1.7-2.1-2.7-3.1c-2.8-2.7-2.6-5.7-1-8.8
						c1.7-3.2,1.8-6.7,2.4-10.4c1-7,0-25.3-4.5-31c-3.8-4.8-26.7-18.9-35.7-3.4c-2.4,4.2,10.3,7.2,9.7,12.5c-0.9,7,7,9.9,11.8,12.5
						c8.9,4.8,8.6,15.2,0.8,21c-2.7,2-5.8,2.8-8.8,4.1c-1.7,0.8-4.4,2.2-4.5,4.4c-0.1,1.2,0.9,2.6,1.9,3.1c1.2,0.7,2.5,0.4,3.7,1
						c1.7,0.9,2.4,2.6,3.9,3.7c2.4,1.7,4.2,1.3,6.7,0.5c3.4-1.1,5.8,1.8,9.3,1.7c0.5,0,0.9-0.4,1.4-0.4c0.8,0,1.7,0.5,2.4,0.5
						c1.1,0,1.1,0.2,2.2-0.6C381.1,300.5,381.2,297.4,380.4,295.1z"/>
					<g id="XMLID_415_">
						<path id="XMLID_420_" fill="#EDB6B3" d="M364.4,271.4c0,0,8.8-2.3,8.4,3.9c-0.3,6.2-5.3,11.2-10.8,6.4
							C356.4,277,364.4,271.4,364.4,271.4z"/>
						<path id="XMLID_416_" opacity="0.7" fill="#EDB6B3" d="M365.5,276.7c1-1.8,1.9-2.8,2.7-2.9c2.2-0.4,3.3,1.4,3.6,2.4
							c0.1,0.2,0,0.4-0.2,0.5c-0.2,0.1-0.4,0-0.5-0.2c0-0.1-0.4-1.3-1.6-1.8c0.9,1.4,1.5,3.9-0.5,5.4c-0.1,0.1-0.2,0.1-0.3,0.1
							c-0.1,0-0.2-0.1-0.2-0.1c-0.1-0.2-0.1-0.4,0.1-0.5c2.3-1.8,0.1-4.8,0-4.9c0,0,0,0,0,0c-0.1,0-0.2,0-0.2,0
							c-0.3,0.1-1,0.4-2.2,2.5c-0.1,0.2-0.3,0.2-0.4,0.2c0,0-0.1,0-0.1,0C365.5,277.2,365.4,276.9,365.5,276.7z"/>
					</g>
					<g id="XMLID_412_">
						<path id="XMLID_414_" fill="#EDB6B3" d="M331,263.5c0,0-6.4-6.4-9.2-1c-2.9,5.5-1.2,12.3,6,11.1
							C334.9,272.4,331,263.5,331,263.5z"/>
						<path id="XMLID_413_" opacity="0.7" fill="#EDB6B3" d="M327.2,267.5c0.1-2-0.2-3.3-0.8-3.9c-1.6-1.5-3.6-0.5-4.3,0.2
							c-0.2,0.1-0.2,0.4,0,0.5c0.1,0.2,0.4,0.2,0.5,0c0.1,0,1.1-0.9,2.2-0.7c-1.5,0.8-3.3,2.5-2.4,4.9c0,0.1,0.1,0.2,0.2,0.2
							c0.1,0,0.2,0,0.3,0c0.2-0.1,0.3-0.3,0.2-0.5c-1.1-2.7,2.4-4.2,2.5-4.2c0,0,0,0,0,0c0.1,0,0.1,0.1,0.2,0.2
							c0.2,0.2,0.7,0.9,0.6,3.3c0,0.2,0.1,0.3,0.3,0.4c0,0,0.1,0,0.1,0C327,267.9,327.2,267.7,327.2,267.5z"/>
					</g>
					<g id="XMLID_401_">
						<path id="XMLID_411_" fill="#EDB6B3" d="M353.9,293.9c0.3-3-2.1-5.6-5.4-5.9c-3.2-0.3-6.1,1.9-6.4,4.9l-0.6,6.5
							c-0.3,3.3,2.1,4.5,5.4,4.8l0,0c3.2,0.3,6.1-2.1,6.4-5.4L353.9,293.9z"/>
						<g id="XMLID_402_">
							<defs>
								<path id="XMLID_403_" d="M349.7,302l-5.2-0.5c-1.8-0.2-3.1-0.1-3-1.9l1-10.8c0.1-0.7,0.7-1.3,1.5-1.2l9,0.8
									c0.7,0.1,1.3,0.7,1.2,1.5l-1,9.2C353.1,300.8,351.5,302.2,349.7,302z"/>
							</defs>
							<clipPath id="XMLID_119_">
								<use xlink:href="#XMLID_403_"  overflow="visible"/>
							</clipPath>
							<g id="XMLID_404_" clip-path="url(#XMLID_119_)">
								<path id="XMLID_406_" fill="#EDB6B3" d="M371,242.7l-26.4,0.8l0,0l-26.4,0.8c0,0-1.4,30.7,2.4,38.7
									c2.1,4.4,8.7,8.7,14.9,12.2c6.6,3.8,15.2,3.5,21.5-0.7c5.9-3.9,12.1-8.6,13.9-13C374.2,273.3,371,242.7,371,242.7z"/>
							</g>
						</g>
					</g>
					<path id="XMLID_400_" fill="#EDB6B3" d="M369.9,264.9c1.2-5.6-2.3-11.1-7.9-12.5l-10.7-2.6l0,0l-10.5-2.5
						c-5.7-1.4-11.4,2-12.9,7.7c-2.2,8-3.7,18.8-3,23.3c0.6,4.1,3.8,8.9,7.8,13.2c4.3,4.6,10.9,6.2,16.7,3.9
						c5.4-2.1,10.3-4.9,12.6-8.3C364.6,283.6,368.2,273.1,369.9,264.9z"/>
					<g id="XMLID_385_">
						<defs>
							<path id="XMLID_388_" d="M334.9,284c0.4-0.9,1.3-0.6,2.9,0.7c1.8,1.4,5,2,7.5,1.1c1.9-0.7,2.8-0.7,3,0.2
								c0.2,0.9-2.3,5.5-6.1,5.7c-0.7,0-1.8-0.1-2.9-0.4C335.7,290,334.5,285,334.9,284z"/>
						</defs>
						<clipPath id="XMLID_120_">
							<use xlink:href="#XMLID_388_"  overflow="visible"/>
						</clipPath>
						<g id="XMLID_398_" clip-path="url(#XMLID_120_)">
							<path id="XMLID_399_" fill="#7F3322" d="M334.9,284c0.4-0.9,1.3-0.6,2.9,0.7c1.8,1.4,5,2,7.5,1.1c1.9-0.7,2.8-0.7,3,0.2
								c0.2,0.9-2.3,5.5-6.1,5.7c-0.7,0-1.8-0.1-2.9-0.4C335.7,290,334.5,285,334.9,284z"/>
						</g>
						<g id="XMLID_395_" clip-path="url(#XMLID_120_)">
							<g id="XMLID_396_">
								<path id="XMLID_397_" fill="#FFFFFF" d="M346.8,284.7c0,0-0.4,3.4-5.1,2.9c-4.7-0.4-5.9-2.2-5.6-4.6L346.8,284.7z"/>
							</g>
						</g>
						<g id="XMLID_392_" clip-path="url(#XMLID_120_)">
							<g id="XMLID_393_">
								<path id="XMLID_394_" fill="#EDB6B3" d="M344.4,291.2c0,0-2.9-3-8.1-1.1l3.5,3.8L344.4,291.2z"/>
							</g>
						</g>
						<g id="XMLID_389_" clip-path="url(#XMLID_120_)">
							<g id="XMLID_390_">
								<path id="XMLID_391_" fill="#EDB6B3" d="M344.4,291.2c0,0-2.9-3-8.1-1.1l3.5,3.8L344.4,291.2z"/>
							</g>
						</g>
					</g>
					<g id="XMLID_383_">
						<path id="XMLID_384_" fill="#EDB6B3" d="M338.1,274.3c0,0-0.1,0.2-0.3,0.6c-0.1,0.2-0.2,0.4-0.3,0.7c-0.1,0.3-0.2,0.6-0.2,0.9
							c0,0.2,0.3,0.5,0.6,0.8c0.3,0.3,0.6,0.6,0.9,0.9c0.7,0.5,1.5,1.1,2.3,1.2c0.3,0,0.5,0.1,0.7,0.1c0.2,0,0.5,0,0.7,0
							c0.5,0,0.9-0.1,1.3-0.2c0.4-0.1,0.8-0.2,1.2-0.4c0.2-0.1,0.4-0.2,0.5-0.2c0.1-0.1,0.1-0.1,0.2-0.1c0.1-0.1,0.1-0.1,0.1-0.2
							c0.2-0.7,0.3-1.3,0.4-1.7c0.1-0.4,0.1-0.7,0.1-0.7s0,0.2,0,0.7c0,0.2,0,0.5,0,0.8c0,0.3,0,0.6-0.1,1c0,0.1-0.1,0.2-0.1,0.3
							c0,0.1-0.2,0.2-0.2,0.3c-0.2,0.1-0.4,0.2-0.6,0.4c-0.4,0.2-0.8,0.4-1.3,0.5c-0.5,0.1-0.9,0.2-1.4,0.3c-0.3,0-0.5,0-0.8,0
							c-0.3,0-0.5,0-0.8-0.1c-1.1-0.2-2-0.8-2.7-1.5c-0.4-0.3-0.7-0.7-0.9-1c-0.1-0.2-0.3-0.3-0.4-0.5c-0.1-0.1-0.1-0.2-0.2-0.3
							c0-0.1-0.1-0.3-0.1-0.4c0.1-0.4,0.3-0.7,0.4-1c0.2-0.3,0.3-0.5,0.4-0.7C337.9,274.5,338.1,274.3,338.1,274.3z"/>
					</g>
					<g id="XMLID_376_">
						<path id="XMLID_382_" fill="#3A2719" d="M328.2,274.5"/>
						<g id="XMLID_380_">
							<path id="XMLID_381_" fill="#3A2719" d="M328.2,274.6C328.3,274.6,328.3,274.5,328.2,274.6
								C328.2,274.4,328.1,274.5,328.2,274.6L328.2,274.6z"/>
						</g>
					</g>
					<g id="XMLID_371_">
						<circle id="XMLID_373_" fill="#153158" cx="334.4" cy="266" r="2.2"/>
						<circle id="XMLID_372_" fill="#153158" cx="354.3" cy="271.2" r="2.2"/>
					</g>
					<g id="XMLID_368_">
						
							<path id="XMLID_370_" fill="none" stroke="#153158" stroke-width="2" stroke-linecap="round" stroke-linejoin="round" stroke-miterlimit="10" d="
							M331.1,259.6c2.2-1.5,4.8-2.3,7.5-2"/>
						
							<path id="XMLID_369_" fill="none" stroke="#153158" stroke-width="2" stroke-linecap="round" stroke-linejoin="round" stroke-miterlimit="10" d="
							M361.7,269c-1-2.5-2.7-4.6-5.1-5.9"/>
					</g>
					<g id="XMLID_89_">
						<path fill="#003AA5" d="M374.4,266.6"/>
						<g>
							<path fill="#003AA5" d="M374.4,267.9c1.6,0,1.6-2.4,0-2.4C372.8,265.4,372.8,267.9,374.4,267.9L374.4,267.9z"/>
						</g>
					</g>
					<path id="XMLID_366_" fill="#000415" d="M367.6,247.8c-3.9-4.5-13.5-9.2-19.4-6.2c-4.9,2.5-5.6,11.2-3.2,15.5
						c4.8,8.3,20.5,3.8,23.2,13.7c0.1,0.4,0.8,0.3,0.7-0.2c0-0.1,0-0.1,0-0.2l1.5-1.5c0.5,0.4,1.4,0.3,1.5-0.4
						C372.8,261.7,372.2,253.1,367.6,247.8z"/>
					<g id="XMLID_95_">
						<path fill="#140015" d="M345.1,250.2c-1.3,2-3.4,3.4-5.7,3.9c-1.4,0.3-2.8,0.2-4.1,0.7c-2.2,0.8-3.9,2.5-4.7,4.7
							c-0.2,0.4-0.7,0.9-0.9,0.5c0-0.1,0-0.2,0-0.2c-0.1-3.1,0.4-5.7,1.6-8.6c1.3-2.9,3.9-5.3,7-5.5c3.1-0.2,6.4,2.5,6,5.6"/>
						<g>
							<path fill="#003AA5" d="M344.2,249.3c-1.5,1.4-2.7,2.7-4.7,3.3c-1.6,0.4-3.3,0.3-4.8,0.9c-1.2,0.5-2.3,1.2-3.1,2.1
								c-0.8,0.8-1.4,2.8-2.2,3.3c0.4,0,0.9,0,1.3,0c-0.1-0.1-0.2-0.1-0.3-0.2c0.2,0.4,0.4,0.8,0.7,1.1c0.1-3.5,0.6-7.3,2.8-10.1
								c3.1-3.8,8-3.2,9,1.7c0.3,1.5,2.6,1.4,2.9,0c1.1-4.7-4.1-8.2-8.3-7.6c-5.4,0.8-8.3,6.4-9,11.3c-0.2,1.5-0.9,4.5,0.5,5.6
								c1.1,0.9,2.2,0.1,2.9-0.8c1.1-1.5,1.6-3,3.5-3.9c1.7-0.8,3.7-0.5,5.4-1c2.3-0.6,4.6-2.2,5.5-4.4
								C346.8,249.6,345.4,248.3,344.2,249.3L344.2,249.3z"/>
						</g>
					</g>
					<polygon id="XMLID_223_" fill="#003AA5" points="339.3,296.8 347.5,298.1 355.6,297.7 356,305.2 347.8,304.9 338.6,303.9 					
						"/>
					<polygon id="XMLID_434_" opacity="0.3" fill="#003AA5" points="339.3,296.8 347.5,298.1 355.6,297.7 356,305.2 347.8,304.9 
						338.6,303.9 					"/>
				</g>
				<g id="XMLID_430_">
					<path id="XMLID_92_" opacity="0.5" fill="#259AFF" d="M353.6,349.4c0,0,17.7,10.5,26.1,13.7l-0.4-4.9L353.6,349.4z"/>
					<path id="XMLID_437_" fill="#EDB6B3" d="M350.6,326.3c-0.7,0.4-1.1,0.8-0.6,1.7c0.5,1,2.1,4.4,2.1,4.4l-3.3-0.9
						c0,0-6.7-3.6-7.6-4c-0.8-0.3-1.9,0.8-1.1,1.6c0.4,0.4,7.2,5,7.2,5s-9-3.5-9.7-3.2s-1.2,1.4,0.1,2.2c0.4,0.3,8.6,4.2,8.6,4.2
						s-5.9-1.4-7-1.2c-1,0.2-1.1,1.2-0.6,1.7c0.5,0.5,8.6,2.9,8.6,2.9s-2.9,0.1-3.6,0.4c-0.8,0.3-0.8,1.1-0.1,1.6
						c0.7,0.5,9.6,1.3,9.6,1.3l5.9,2.7l3.2-8.1c-0.9-0.3-3.7-2.2-3.7-2.2c-0.2-0.4-3.9-5.7-3.9-5.7S351.3,325.9,350.6,326.3z"/>
					<path id="XMLID_436_" fill="#259AFF" d="M364.7,304c0,0,8,1.4,11.8,6.3c3.2,4.1,18.2,37.2,15.7,42c-0.8,1.4-2.2,10.3-7.3,9.1
						c-12-2.9-31.4-12-31.4-12l6.8-14.7l14,3.4l-5.4-17.3L364.7,304z"/>
					<polygon id="XMLID_440_" opacity="0.5" fill="#259AFF" points="360.4,334.7 374.4,337.5 374.4,338.1 					"/>
				</g>
			</g>
			<g id="XMLID_250_">
				<linearGradient id="XMLID_122_" gradientUnits="userSpaceOnUse" x1="290.4576" y1="358.7739" x2="302.6262" y2="358.7739">
					<stop  offset="0" style="stop-color:#FDDA42"/>
					<stop  offset="1" style="stop-color:#E5A003"/>
				</linearGradient>
				<path id="XMLID_479_" fill="url(#XMLID_122_)" d="M294.9,360.8v-6.5c0-1.2-1-2.2-2.2-2.2l0,0c-1.2,0-2.2,1-2.2,2.2v8.6
					c0,1.4,1.1,2.5,2.5,2.5h0.4h1.5h7.7V361h-7.5C295,361,294.9,360.9,294.9,360.8z"/>
				
					<linearGradient id="XMLID_123_" gradientUnits="userSpaceOnUse" x1="465.189" y1="369.2348" x2="477.3576" y2="369.2348" gradientTransform="matrix(-1 0 0 1 779.3659 0)">
					<stop  offset="0" style="stop-color:#FDDA42"/>
					<stop  offset="1" style="stop-color:#E5A003"/>
				</linearGradient>
				<path id="XMLID_478_" fill="url(#XMLID_123_)" d="M309.7,371.3v-6.5c0-1.2,1-2.2,2.2-2.2l0,0c1.2,0,2.2,1,2.2,2.2v8.6
					c0,1.4-1.1,2.5-2.5,2.5h-0.4h-1.5H302v-4.5h7.5C309.6,371.4,309.7,371.4,309.7,371.3z"/>
				<linearGradient id="XMLID_124_" gradientUnits="userSpaceOnUse" x1="290.4576" y1="358.7739" x2="302.6262" y2="358.7739">
					<stop  offset="0" style="stop-color:#FDDA42"/>
					<stop  offset="1" style="stop-color:#E5A003"/>
				</linearGradient>
				<path id="XMLID_477_" fill="url(#XMLID_124_)" d="M294.9,360.8v-6.5c0-1.2-1-2.2-2.2-2.2l0,0c-1.2,0-2.2,1-2.2,2.2v8.6
					c0,1.4,1.1,2.5,2.5,2.5h0.4h1.5h7.7V361h-7.5C295,361,294.9,360.9,294.9,360.8z"/>
				
					<linearGradient id="XMLID_125_" gradientUnits="userSpaceOnUse" x1="465.189" y1="369.2348" x2="477.3576" y2="369.2348" gradientTransform="matrix(-1 0 0 1 779.3659 0)">
					<stop  offset="0" style="stop-color:#FDDA42"/>
					<stop  offset="1" style="stop-color:#E5A003"/>
				</linearGradient>
				<path id="XMLID_476_" fill="url(#XMLID_125_)" d="M309.7,371.3v-6.5c0-1.2,1-2.2,2.2-2.2l0,0c1.2,0,2.2,1,2.2,2.2v8.6
					c0,1.4-1.1,2.5-2.5,2.5h-0.4h-1.5H302v-4.5h7.5C309.6,371.4,309.7,371.4,309.7,371.3z"/>
				<linearGradient id="XMLID_126_" gradientUnits="userSpaceOnUse" x1="303.2953" y1="391.3279" x2="303.2953" y2="338.3654">
					<stop  offset="0" style="stop-color:#FDDA42"/>
					<stop  offset="1" style="stop-color:#E5A003"/>
				</linearGradient>
				<path id="XMLID_475_" fill="url(#XMLID_126_)" d="M303.3,345.6L303.3,345.6c2.1,0,3.9,1.7,3.9,3.9V383c0,2.1-1.7,3.9-3.9,3.9
					l0,0c-2.1,0-3.9-1.7-3.9-3.9v-33.5C299.4,347.4,301.2,345.6,303.3,345.6z"/>
				<linearGradient id="XMLID_127_" gradientUnits="userSpaceOnUse" x1="303.2953" y1="391.3279" x2="303.2953" y2="338.3654">
					<stop  offset="0" style="stop-color:#FDDA42"/>
					<stop  offset="1" style="stop-color:#E5A003"/>
				</linearGradient>
				<path id="XMLID_474_" fill="url(#XMLID_127_)" d="M303.3,345.6L303.3,345.6c2.1,0,3.9,1.7,3.9,3.9V383c0,2.1-1.7,3.9-3.9,3.9
					l0,0c-2.1,0-3.9-1.7-3.9-3.9v-33.5C299.4,347.4,301.2,345.6,303.3,345.6z"/>
				<g id="XMLID_251_">
					<polygon id="XMLID_473_" fill="#003AA5" points="311.9,395.4 295.1,395.4 294.2,380.3 312.8,380.3 					"/>
					<rect id="XMLID_472_" x="292.7" y="377.9" fill="#003AA5" width="21.6" height="5.2"/>
					<rect id="XMLID_469_" x="292.7" y="377.9" fill="#4BAAFC" width="21.6" height="5.2"/>
					<rect id="XMLID_468_" x="292.7" y="377.9" fill="#003AA5" width="21.6" height="5.2"/>
					<rect id="XMLID_460_" x="292.7" y="377.9" fill="#003AA5" width="21.6" height="5.2"/>
				</g>
			</g>
		</g>
		<g id="XMLID_55_">
			<rect id="XMLID_42_" x="87.6" y="389.5" fill="#003AA5" width="324.9" height="5.7"/>
			<rect id="XMLID_43_" x="87.6" y="389.5" opacity="0.5" fill="#003AA5" width="324.9" height="5.7"/>
		</g>
	</g>
</g>
<g id="DESIGNED_BY_FREEPIK">
</g>
</svg>
