<?xml version="1.0" encoding="utf-8"?>
<!-- Generator: Adobe Illustrator 18.1.1, SVG Export Plug-In . SVG Version: 6.00 Build 0)  -->
<svg version="1.1" id="Layer_1" xmlns="http://www.w3.org/2000/svg" xmlns:xlink="http://www.w3.org/1999/xlink" x="0px" y="0px"
	 viewBox="0 0 1920 1080" enable-background="new 0 0 1920 1080" xml:space="preserve">
<g>
	<path fill="#706F6F" d="M965.2,506.3l-1.3,1.1c-8.2,6.7-20.7,16.8-21.6,17.4c-0.4,0.2-0.6,0.2-1.2,0c-1.1-0.7-13.5-10.8-21.6-17.4
		l-1.3-1.1l-0.4,1.7c-0.1,0.3-0.1,0.7-0.1,1v21.7c0,2.4,2,4.4,4.4,4.4h39.4c2.4,0,4.4-2,4.4-4.4v-21.7c0-0.3,0-0.7-0.1-1
		L965.2,506.3z M963.5,530.8c0,1.2-1,2.2-2.2,2.2H922c-1.2,0-2.2-1-2.2-2.2v-20.3c7.9,6.5,19.5,15.9,20.3,16.3
		c0.9,0.4,1.9,0.7,3.3,0c0.8-0.5,14-11.2,20.2-16.2V530.8z"/>
	<path fill="#706F6F" d="M961.5,493.8h-10.2l-7.9-5.6l0,0c-1.4-1-2.6-1-4.1,0.1l-7.6,5.5h-9.9v7.2l-4.8,3.5l4.8,4.1v0l0.9,0.8l1.2,1
		v0l15.8,13.2c0.5,0.5,1.2,0.7,1.9,0.7c0.7,0,1.3-0.2,1.9-0.7l15.8-13.3l0,0l0.1-0.1l2.1-1.7v0l4.8-4.1l-4.8-3.4V493.8z
		 M940.5,490.1c0.7-0.5,0.9-0.5,1.5,0l5.3,3.8h-12L940.5,490.1z M920.5,504.6l1.3-0.9v2L920.5,504.6z M942.1,521.9L942.1,521.9
		c-0.3,0.2-0.7,0.2-0.9,0L924,507.5v-8.1V496h4.7h25.7h5v3.5v8L942.1,521.9z M962.7,504.6l-1.3,1.1v-1.9L962.7,504.6z"/>
	
		<rect x="963.5" y="485.2" transform="matrix(0.8385 0.5449 -0.5449 0.8385 421.4332 -446.9107)" fill="#706F6F" width="2.2" height="4.6"/>
	
		<rect x="967" y="491" transform="matrix(-1.516539e-002 -0.9999 0.9999 -1.516539e-002 489.5225 1468.6775)" fill="#706F6F" width="2.2" height="4.6"/>
	
		<rect x="965.8" y="488" transform="matrix(-0.8253 0.5646 -0.5646 -0.8253 2043.1879 346.1854)" fill="#706F6F" width="4.4" height="2.2"/>
	
		<rect x="917.6" y="486.3" transform="matrix(0.545 0.8385 -0.8385 0.545 827.2809 -549.4791)" fill="#706F6F" width="4.6" height="2.2"/>
	
		<rect x="914.1" y="492.2" transform="matrix(0.9999 1.520087e-002 -1.520087e-002 0.9999 7.6039 -13.8733)" fill="#706F6F" width="4.6" height="2.2"/>
	
		<rect x="914.2" y="488" transform="matrix(0.8254 0.5646 -0.5646 0.8254 436.2015 -431.9966)" fill="#706F6F" width="4.4" height="2.2"/>
	<rect x="935.8" y="504.1" fill="#706F6F" width="11.5" height="2.2"/>
	<rect x="935.8" y="508.9" fill="#706F6F" width="11.5" height="2.2"/>
</g>
</svg>
